<svg width="360" height="341" viewBox="0 0 360 341" fill="none" xmlns="http://www.w3.org/2000/svg">
<path d="M9.55617 22.8244C3.16738 24.282 3.94602 25.2273 0 22.8244V38.0219V54.7397C72.8134 63.2954 68.9343 71.5442 95.1471 81.4467C121.36 91.3491 127.185 131.117 179.705 89.1309C221.72 55.5419 317.408 41.1768 360 38.1929V11.9713H349.853C325.331 13.7141 317.721 22.8244 301.655 28.6866C285.589 34.5488 260.974 12.4466 223.017 2.0689C192.651 -6.23328 135.077 12.4466 110.086 22.8244C103.133 17.4374 66.2097 3.01953 50.1438 7.05972C35.9447 10.6304 17.5422 21.0023 9.55617 22.8244Z" fill="url(#paint0_linear_0_1)"/>
<path d="M138.5 118.5C133 241 58.5 233.5 66.4997 337" stroke="#120F9A" stroke-width="5" stroke-linecap="round"/>
<path d="M145.5 120.5C140 243 65.5 235.5 73.4997 339" stroke="#A0187F" stroke-width="3" stroke-linecap="round"/>
<defs>
<linearGradient id="paint0_linear_0_1" x1="173.081" y1="15.3863" x2="172.928" y2="108" gradientUnits="userSpaceOnUse">
<stop stop-color="#201D39"/>
<stop offset="1" stop-color="#29096C"/>
</linearGradient>
</defs>
</svg>
