<svg xmlns="http://www.w3.org/2000/svg" viewBox="0 0 612.71 623.39"><g id="Layer_2" data-name="Layer 2"><g id="Layer_1-2" data-name="Layer 1"><path d="M563.28,492.65,561,489.42l-.88.28c.11,1.84.21,3.68.36,6.23-.7-1.7-1.66-2.94-1.51-4,.6-4.09-1.82-6.66-4-9.58-6.28-8.58-14.87-13.52-24.94-16.17a46.5,46.5,0,0,0-5.75-.8c1,2.79,1.93,5.15,2.79,7.51l-.62.34c-.77-1.5-1.29-3.23-2.37-4.46s-2.74-2.75-4.19-2.79c-3,0-6.1.85-9.63,1.4l3.59,3.81c-2.79-1.24-4.92-2.79-7.12-3-2.43-.15-4.94,1-7.87,1.75,1.33,1.13,2.42,1.9,3.34,2.86a9.8,9.8,0,0,1,2,3.26l-7.49-5.84-.83,1,4.82,6.34-.44.57a31.31,31.31,0,0,1-4.19-3.84c-1.62-2.18-3.22-3.24-5.76-1.27l4.7,4.44a2.36,2.36,0,0,1-.08.45,11.13,11.13,0,0,1-3-1.27c-4.09-3.49-4.06-3.49-9.16-.54l4.34,5.26-.48.54-5.42-5-3.43,2.21,2.21,3.79-.41.41-3.26-2.93-.61.24,1.71,5-2.4-1.52c.49,1.52.9,2.76,1.31,4l-.7.4-3.19-5.21c-3.75,2.52.08,4.36-.06,6.79L469,485.5c-1.4.92-1.4.92,1,6.06l-4.53-4.62-2.45.84,3.18,5-.36.44-5.26-5.08-.78.89,3.95,4.7-.58.66-5.64-5.22-.6.22,1,3.21-.52.54L455,488.53l-1.64,1.33c.84,1.89,1.67,3.78,2.72,6.18-.87-.66-1.31-1-1.76-1.3-1.78-1.65-1.32-6-6.09-4.7,2,2,2.43,5.4,6.19,4.61-2.3,1.73-3.85.48-5.24-1.32-3.05-3.94-5.06-4.61-9.68-3.35a14.35,14.35,0,0,1-3.1,0c1.05,1.39,2,2.65,3,4.07-3.56.07-3.11-5.91-7.83-4.39l3.93,4.66-.17.35a38.82,38.82,0,0,1-3.36-2.79,35.23,35.23,0,0,1-2.53-3.07l-.7.6,3,4.33-.26.24-6.83-5.82-.93.94,2.45,3.26-.28.33-5.43-4.42-.62.62,4,6.32-.59.51a27.13,27.13,0,0,1-3.1-4.36c-1.23-2.79-3.09-3.74-6.28-2.95l4.45,8.24-.81.57-5.84-9-.92.58,3,5.94-.51.41-4.6-6.35-.58.35,4.3,8.91c-2.68-.57-3.28-3-4.32-5.21a43.75,43.75,0,0,0-2.68-4.4l-1.09.7,3.23,6.65-.59.4c-.81-1.21-1.62-2.43-2.45-3.64s-1.56-2.24-2.34-3.36l-.74.52,4.37,8.68-2.87-1.88,2.8,4.84c-5.25-2.26-4-8.67-8.53-11.44l2.67,8.62c-3-2.38-1.77-6.85-6-7.91l5.58,11.67-.69.42c-1.13-1.88-2.39-3.68-3.35-5.65s-.7-4.94-4.46-5.5c.65,2.38,1.22,4.43,1.79,6.48l-.53.2c-.48-1.08-.91-2.2-1.47-3.25a32.75,32.75,0,0,0-1.77-2.8l-1,.7q1.93,4.53,3.89,9.07l-.7.42c-1-2-2-4-2.91-6-.74-1.59-1.31-3.34-3.81-2.3,1.2,3.31,2.36,6.53,3.49,9.74l-.74.37L383,494.63l-1.13.53q1.95,5,3.92,10l-.77.34c-1.11-2.53-2.09-5.13-3.38-7.56a3.25,3.25,0,0,0-2.8-1.31L384,507.25l-.85.46q-2.94-5.06-5.87-10.12l-1.13.6,3.39,9-.85.39-4.05-8.53-1,.51,3,8.87-.64.29a42.39,42.39,0,0,0-2.52-5.63c-.52-.84-1.85-1.18-3.49-2.16l4.74,12.43c-3.92-2.71-3-8-6.33-10l-.84.7,4.19,9.89-.8.37-4.89-9-1.15.59,2.51,8.74-.7.25-3-7.94-2,1.08,5,12.29c-4.55-2.93-3.14-9.15-8.11-10.47q1.52,4.11,3,8.22l-.85.36-3.49-7.28-1.3.55c1.48,4.51,3,9,4.48,13.58-5.24-2.14-3-8.61-6.61-12.31.48,6.66.92,12.81,1.39,19l-1.49.19a19,19,0,0,1-.85-3.65,42,42,0,0,0-3.39-15.88c-1.21-2.7-1.27-6.17-1-9.21A43.33,43.33,0,0,0,343,478.21c-1.8-3.26-3.53-6.57-5.59-9.68-4.44-6.82-4.45-14.8-6.14-22.33-.45-2-.9-4-1.4-6.21-1.7,4.89-2.94,9.66-5,14.06-3.37,7.28-1.73,15.14-3.28,22.6-.48,2.28-.84,4.58-1.27,6.86-.63,3.42-.63,6.68,1.66,9.64a4.51,4.51,0,0,1,1.05,2.87c-.54,4.31-1.33,8.59-2,12.87l-1-.1c.15-3.21.46-6.43.39-9.64a31.56,31.56,0,0,0-1.08-5.51c-.57-2.89-2-6-1.52-8.66,2.1-10.82,2.3-21.68,2.21-32.64,0-5.15,1.21-10.35,2.05-15.49a5.11,5.11,0,0,1,2.23-3l-2.43,20.25.86.19c2.09-5.51,4.25-11,6.18-16.57.26-.75-.7-1.89-1-2.88-1.6-5.17-3.28-10.31-4.68-15.53-.36-1.33.22-2.92.38-4.49,3.22,10.47,6.33,20.55,9.38,30.63a14.23,14.23,0,0,1,.63,3.42c.66,10.7,5.66,19.7,10.92,28.67a41.82,41.82,0,0,1,5.58,24.07c-.19,3.29.13,6.6.22,9.91l1.15.57c4.82-2.92,10-5.4,14.42-8.85,17.78-13.85,38-17.29,59.88-15.62a265,265,0,0,0,28.88.41c7.49-.24,14.19-3.38,20-8.23,8.78-7.38,19.62-9.85,30.29-12.62,4.26-1.1,8.67-1.66,13-2.34,15-2.33,26.75,3.88,36.37,14.74a219.5,219.5,0,0,1,16.39,20.31c2.61,3.77,3.44,8.73,5.24,13.08.61,1.49,1.67,3.86,2.6,3.9,1.54,0,3.45-1.16,4.61-2.39a6.83,6.83,0,0,0,1.69-4.42c-.12-7.23,2.8-13.06,7.83-18,3.09-3,6.1-6.1,9.42-8.81,8.1-6.64,8.33-7.09,5.09-17.52-3.83,7.49-11.06,10.93-16.56,16.25a46,46,0,0,0-6.28,8.28c-1.31,2-2.41,2.74-4.19.7-3.49-4.13-7.26-8.1-10.55-12.41-7.68-10.09-16.75-18.64-28.75-23-9.91-3.58-20.5-3.65-31-3.26A57.74,57.74,0,0,0,483.74,460c-4.89,2.71-9.88,5.22-14.66,8.14-12.63,7.75-26.59,9.32-40.72,7.54-16.91-2.09-32.4,1.24-47,9.28-6.88,3.79-13.26,8.53-19.85,12.81a18.36,18.36,0,0,1-2,.92c-.4-1.39-.84-2.5-1.06-3.66-1.16-6.05-2-12.17-3.49-18.15-.93-3.64-3-7-4.47-10.52-1.66-3.93-3.49-7.81-4.78-11.86-2.5-7.74-5.06-15.48-6.88-23.38-1.46-6.4-1.93-13-2.73-19.58a5.13,5.13,0,0,1,1-3.07c-.12,12.3,3.88,23.57,7.82,34.9,1.07,3.06,1.51,6.33,2.58,9.4,1.52,4.34,2.83,8.89,5.16,12.79,5.13,8.59,6.15,18.15,7.81,27.65.12.64.19,1.29.24,1.7,7.36-4.36,14.41-9.07,21.93-12.88,12.7-6.37,25.94-10.61,40.59-8.93a147,147,0,0,0,20.88.45c10.91-.33,20.42-5,29.61-10.4,1.2-.7,2.45-1.35,3.61-2.09,19.54-13.09,40.94-13.54,62.68-8,12.08,3.06,21.07,11.43,28.66,21.17,3.57,4.56,7.24,9.07,10.9,13.52,1.8,2.22,3.07,1.73,4.89-.43,3.17-3.79,6.85-7.16,10.33-10.69s7.22-6.86,10.35-10.68a6.92,6.92,0,0,0,.73-5.79c-2.58-6.84-5.62-13.49-8.55-20.19-1.9-4.36-4-8.64-5.85-13-1.39-3.3-3.38-4-6.48-2-2.31,1.47-4.7,2.79-7.59,4.55,0,0,.16.83.35,1.84a9.63,9.63,0,0,1-1.2.05c-.27-1.39-.49-2.79-.7-4.19l1-.18a36.08,36.08,0,0,0-5.54-2.5c-.53-.15-2.26,1.46-2.15,2,.37,1.61,1.47,3,2.05,4.6a21.38,21.38,0,0,1,.69,3.72l-1.33.3L569,432.85l-2,2.61-.9-.24c.06-1,.13-2.09.19-3.14l-1.79-.14-.34-.7,3.43-2.28-.7-.36,5.24-9.13c1.09,2.46-.4,5.94,4.18,5.58,1-1.9-.41-5.29,3.91-6.1-.63,1.39-1.32,2.35-1.39,3.29a16.6,16.6,0,0,0,.63,3.78,16,16,0,0,0,2.89-.85c2.33-1,4.59-2.22,7.54-3.67-1.68-3.49-3.65-7.5-5.58-11.54s-3.7-8.26-5.89-12.21-4.19-8.18-7.27-11.32c-15.59-15.91-34.28-27.11-54.67-36-25-10.88-51.2-13.69-78-13.26-7.72.14-15.44.86-24.08,1.4l25.46,18.69-.46,1.53a23.37,23.37,0,0,1-4.75.39c-8.37-1-15.79-4.58-22.69-9.28l-2-1.33c.86,4.49,2.05,9,2.48,13.47s.09,9.17.09,14c-7.24-2.16-10.59-8.23-14.2-14.49-3,5.17-4.94,10.72-9.93,14.49-5.36-6.73-7.39-13.9-5.7-22.56-8.09,6.08-16.84,8.92-27.1,9.78,4.86-7.92,11.43-13.19,18.07-18.39-.12-.35-.23-.7-.33-1.07l-44.62,8.66c25.83-7.64,52.27-11.6,78.59-14,2.61-7.75,8.62-7.68,13.92-7.5a28.57,28.57,0,0,1,.54-5.42c.11-.36,2.5-.7,3-.19.95.92,1.29,2.47,2.29,4.62l6.19-4.55a10.68,10.68,0,0,1-6.55-9,9.25,9.25,0,0,0-5.73-7.88c-1.53,2.68-3.38,4.79-6.45,1.46-.18-.2-.79.06-1.2,0-1.32-.16-2.63-.35-4-.53.42-1.43.76-2.89,1.27-4.28.18-.47.8-.79,1.26-1.22-4.57-1.87-7.38-.61-9.43,3.49a167.27,167.27,0,0,1-8.72,15.79,15.85,15.85,0,0,1-6.19,4.89c-1.64.8-3.89.39-6-.13,7.28.55,10.68-4.58,13.76-9.52,2.48-4,4.07-8.55,6.28-13.26l-2.59.26c.11-.48.08-.76.21-.9,1.94-2,3.83-4.13,5.89-6.05a12,12,0,0,1,4.15-2.84c.79-.27,2.05.92,3.1,1.46-.46.7-.78,1.89-1.39,2.1-.83.25-1.9-.25-3.49-.55l-2.33,3h8.87a4.3,4.3,0,0,1,.12-1.13,13.63,13.63,0,0,1,1.2-3c.11-.19,1.68.07,1.75.34a11.9,11.9,0,0,1,.07,2.86V303l.86.13a12.21,12.21,0,0,1,.84-.92c.84-.78,1.7-1.52,2.55-2.29a13.75,13.75,0,0,0,0,3.27,10.66,10.66,0,0,0,2,4.34c2.86,3,6.14,5.63,9,8.65,1,1.1,1.31,2.9,2,4.35.59,1.21,1.23,3.33,1.92,3.36,1.81.08,4.1-.25,5.41-1.35,3-2.48,2.6-10-.44-12.41a5.08,5.08,0,0,0-4-.8c-.84.22-1.26,2-1.86,3l.7.55c.61-.21,1.35-.74,1.78-.55a7.81,7.81,0,0,1,1.91,1.67c-.59.56-1.11,1.49-1.79,1.63-2.79.56-4.82-2.51-3.7-5.4,1.31-3.4,5.58-4,8.37-1.21,3.24,3.25,4,9.74,1.62,13.67a6.51,6.51,0,0,1-6.86,3.14c-1.8-.21-2.9,0-4,1.72-1.85,2.83-4.54,4.63-8.22,4.19-3.85-.47-1.2,3.7-3.23,3.92,10.47,0,20.88-.36,31.29.06,34.51,1.4,66.56,10.63,95.34,30.29,8.89,6.06,17.5,12.34,24.7,20.36a32.65,32.65,0,0,1,5.26,7.74c5,10.47,9.69,21,14.49,31.61,3.26,7.16,6.85,14.21,9.64,21.55a248.08,248.08,0,0,1,7.95,24.83c.9,3.41.14,7.26.14,10.91h-1.13v-4.8c-1.88,3.35-7.26,4.3-6.4,9.44l-.93-2.57c-4.06,1.39-.07,5-2,6.86-.47-1.18-.95-2.4-1.45-3.62h-1.14c-.12,1.14-.3,2.28-.36,3.42a7.36,7.36,0,0,1-.7,3.59l-1-3.83h-1v8.62l-1.22.07c-.14-1.73-.27-3.49-.41-5.2l-.74-.37c-1.39,2-3.54,3.92-3.88,6.1-.31,2,1.33,4.34,2.09,6.52l-.95.37L588,503.79l-1.16.18c.45,3.33.9,6.66,1.48,11-.62-1.4-1-2.16-1.73-3.76l-3.79,10.62v-4.37l-2.57,2.09-.7-.7-1.33,3.74-.35-.05.28-3.54-.69-.09q-.39,2.91-.76,5.8h-.58l-2.93-13-.54-.06-.7,2.46c-1.4-4.8-2.86-10.35-4.76-15.76-.7-2-2.47-3.72-3.76-5.59ZM418.08,333.27c-5.24.07-7.86,1.51-8.38,4.71l9-1C418.49,335.65,418.3,334.55,418.08,333.27Zm13-10,2-1.1-5.22-8.23-1.31.76Z" style="fill:none;stroke:#fff;stroke-linecap:round;stroke-miterlimit:10;stroke-width:1.5px"/><path d="M82.74,103.69c-4.64-2.45-6.23-6.55-5.41-11.4.27-1.62,2-3.34,3.49-4.25.78-.46,2.74.53,3.83,1.32a3,3,0,0,1,.43,2.74c-.26.62-1.51.83-2,1.07l-1-3.46c-.94.85-2.36,1.53-2.75,2.58-1.39,3.75,1.2,7.89,5,9.08a59.25,59.25,0,0,1,4.19-5.64c.52-.56,1.87-.34,2.85-.48.07,1.09.52,2.31.16,3.21a19.4,19.4,0,0,1-2.62,3.66c3.3-.16,7.78-3.75,7.73-6.42a4.56,4.56,0,0,0-2.27-3.4c-4-1.63-5.39-3.29-5.12-7.62.3-4.82,1.23-9.47,5.59-13.49-2.8-3.07-5.47-6.07-8.23-9s-5.75-5.67-8.46-8.66c-.76-.86-.89-2.3-1.49-4,8.87,1.27,17.07,2.8,24.69,6.76,15.15,7.93,27.52,19.21,39.31,31.41,11.12,11.51,18.76,25.37,27.47,38.52,4.75,7.19,4.75,9.28-.32,16.49-7,10-16.48,16.18-28.94,17.51,0,1.08.09,1.93.12,2.79l-.81.36c-7.89-14.72-15.87-29.38-23.63-44.17S104.17,87.42,95.1,73.1c-3.29,2.53-5.65,11.24-3.8,14.71.59,1.09,2.43,2.34,3.44,2.15s1.57-2.15,2.34-3.33l-.7-.51-1.94,1.17-.66-.85L97,84.24a11.54,11.54,0,0,1,1.19,3.12,33.66,33.66,0,0,1-.08,7.77A34.54,34.54,0,0,1,95.69,102c-.7,1.68-1.57,3.27-2.35,4.89,7.53,3.89,8.31,5.1,6.94,12l6-2.67c1.33,2-.22,5-3.41,4.3-5.34-1.16-7,2.94-9.69,5.59-3.38,3.3-6,7.21-6,12.2,0,4.11,1.84,7.67,5.53,9.43,1.77.84,4.49.48,6.48-.2a4.67,4.67,0,0,0,3.28-5.49l-1.69,2.65c-.53-.48-1-.7-1.13-1.06-.55-2,.29-3.3,2.36-3.23,2.79.1,2.84-1.17,2.54-3.49a10.68,10.68,0,0,1,.74-6c.75-1.45,2.84-2.2,4.34-3.26l1.55,4.19.39-.21a64.17,64.17,0,0,1,3.39,7.67c.24.76-1,2.4-2,2.93-.64.35-2.09-.35-3-.9a25.54,25.54,0,0,1-3-2.79c-.76,1.6-1.77,2.79-1.88,4.13-.33,4.19-3,6.47-6.43,7.93s-6.37.4-9.07-1.84a13.42,13.42,0,0,1-3.63-16.41,41.4,41.4,0,0,1,6-8.44c1.39-1.62,3.44-2.71,5.17-4-5.71-5.85-6.33-8.18-4.7-16l-7,1.49.08.09-2.84-1.7Zm53.39,43,1.17-.62a56.89,56.89,0,0,0-3.2-5.83,164.07,164.07,0,0,1-19.46-36.88c-3.3-8.79-7.35-17.31-11.17-25.89a45.58,45.58,0,0,0-3.35-5.19c3.21,7.24,6.44,14,9.14,20.82,2.63,6.7,4.73,13.6,7,20.43C120.49,126.05,128.22,136.42,136.13,146.69Zm30.2-12.25-1.23-.9c-.7,1-1.46,2-2.21,3a41.74,41.74,0,0,1-22.22,15.23,15.86,15.86,0,0,0-3,1.61c1.2.34,2.76,1.34,3.54.91,5.67-3,11.53-5.9,16.62-9.77,3.42-2.55,5.7-6.64,8.48-10.06ZM97,117.06l1.85-.59c-.26-1.51-.1-3.3-.9-4.45s-2.58-1.82-3.92-2.7l-1,1.11Z" style="fill:none;stroke:#fff;stroke-linecap:round;stroke-miterlimit:10;stroke-width:1.5px"/><path d="M196.71,85.14l-3.18-2.88,3.26-2.09c-1.43-9,9.19-18.07,21.17-13.8,6.28-23.58,1.67-44.74-14.19-64.13,1.4-.32,2.39-.9,3.19-.7,22.51,5.74,39,24.4,42.69,47.51,3.88,24.64,2.45,48.86-5.29,72.59-.81,2.46-1.31,5-2.2,8.54-3.82-9.07-9.35-15.66-17.07-19.54-7.45-3.76-15.62-6.07-23.34-9l12.72-22.51-3.36-3.72c-3.17,2.43-2.29,5-.44,7.68l-1,.6c-.81-1.07-2.36-2.2-2.27-3.2.16-2.14.69-4.61,2-6.17.73-.87,3.33-.15,5.08-.15l.46,1.18,2.17-5.9c-4-2.86-9.07-2.49-13.17.9-8.83,7.22-3.22,14.23.5,21.25l-.7.64c-1.19-1.16-2.33-2.36-3.57-3.49-.88-.78-2-2.09-2.79-2-1,.13-1.9,1.5-2.94,2.42a11.56,11.56,0,0,0,1.06.78l3.68,1.62c-.42.85-1,2.48-1.24,2.43-1.47-.35-3.27-.7-4.19-1.7C191.74,90.11,193.22,87,196.71,85.14Zm18.68,6,1.79.5c1.08-3.2,2-6.45,3.27-9.61,8.87-22.88,7.16-45.31-3.06-67.31-1.39-3.08-3.78-5.72-5.7-8.56l-.9.62a90,90,0,0,1,13.6,41.5C225.62,63.34,220.29,77.27,215.39,91.19Zm2.1,3.78a27.78,27.78,0,0,0-2.73-1.72,32.94,32.94,0,0,0-3.38,4.66c-.11.18,1.14,1.15,1.76,1.76Z" style="fill:none;stroke:#fff;stroke-linecap:round;stroke-miterlimit:10;stroke-width:1.5px"/><path d="M441.32,551.75c-1.84,4.31-3.59,8.66-5.59,12.89A3.67,3.67,0,0,1,433.1,566c-9.4.62-17.33,5.08-25.13,9.67-15.84,9.31-31.48,18.93-47.34,28.2A78.84,78.84,0,0,1,347,610.07c-6.66,2.36-12.91-.35-18.11-3.91-9-6.17-16.75-13.81-19.31-25.09-.51-2.26-.15-4.77.07-7.14.2-2,.77-4,1.34-6.88l-15.83,7.58c-8.1,3.9-16.27,6.83-25.62,6.59-12.18-.31-20.94-6-28-15.17l-1.1-1.47a47.83,47.83,0,0,1-1.54,5.25c-5.59,13.07-14.42,16.69-27.78,14.78a44.48,44.48,0,0,1-12.81-4.38c-6.64-3.25-9.77-9-9.81-16.4V547.31c-.69,1.61-1.93,4.22-3,6.88-3,7.19-8.11,12-15.82,13.26-7.17,1.19-14.44,1.74-21.75,2.59l5.48,11.75c14.44-1.4,22.57-12.57,32.44-21.64a28.33,28.33,0,0,1-1.39,2.75c-5.17,8.2-13,13.64-20.84,18.73-2.71,1.75-6.64,1.61-10.47,2.43,0,2.05.1,4.35,0,6.65-.55,10.55-8.14,16.6-15.11,22.85-11.17,10-24.57,9.2-38,6.75A109.91,109.91,0,0,1,79.12,614c-10.35-4.12-21.42-4.62-32.56-2.09-5.37,1.21-11,1.23-16.54,1.72a9.37,9.37,0,0,1-2.29-.44c.14-.39.18-.7.28-.7,8.78-1.53,17.52-3.49,26.37-4.44a55.94,55.94,0,0,1,29.85,4.84c8.46,3.88,17.7,5.14,27,6.1,12.78,1.3,22-4.35,30.62-12.74,7.33-7.13,10-15.36,7.21-25-1.85-6.41-4.67-12.56-7.41-18.69-.65-1.46-2.62-2.62-4.24-3.29-6.21-2.58-12.41-5.37-18.84-7.14-4.38-1.19-9.18-1-13.8-1.08-6.39,0-12.8.7-19.16.38-14.27-.75-28.51-1.94-42.75-3-2.87-.22-5.73-.7-8.59-1,0-.43,0-.85,0-1.29a19.86,19.86,0,0,1,3.07-.25c9.73.7,19.46,1.8,29.2,2.1,13,.41,26,.35,39,.25,7.07-.06,13.86.7,20.31,3.88a54.12,54.12,0,0,0,7.88,2.79c8.57,2.67,9.33,3.32,13.19,12.32,7.24-.7,14.84-1.21,22.34-2.32,6.63-1,11-5.2,13.43-11.41,3.49-9.07,7.26-18.15,10.12-27.39.94-3-.09-7-1.06-10.21-1.21-4.09-1.19-7.91.94-11.43,3.2-5.28,2.79-10.79,2.09-16.51-.27-2.22.31-4.55.51-6.83a24,24,0,0,0,.34-4.07c-1.43-14.54,1-28.61,4.23-42.75a66.66,66.66,0,0,1,9.22-21.63c1.75-2.73,3.91-5.18,6.24-8.25C207.59,408,200,407.9,192,406.13c6.46-.45,12.76-.18,18.72-1.49,6.47-1.4,9.37-7.5,12.47-12.88l.95.61c-1.34,2.43-2.56,4.93-4,7.26C212.17,412.11,203,424,201.24,439.41c-1.39,11.61-3,23.18-4,34.9,5.41-4.92,10.2-9.95,10.47-17.69.11-2.89,1.18-5.77,1.11-8.63-.22-8.31,3.71-14.6,8.89-20.56,2.59-3,5.34-6.14,3.35-10.83a5.18,5.18,0,0,1,.46-4.36c3.4-4.7,4-9.95,3.3-16,2.56,3.22,2.52,11.05.31,14.47-2.66,4.11-2.42,5.38.21,9.43a66.07,66.07,0,0,1,5,9.77c1.24,2.83.14,5.3-2.24,7.05-4.89,3.56-7.1,8.6-8.84,14.19-1.84,5.94-4.33,11.68-6.6,17.68,5.76,8,11.6,16.75,18.15,24.93,9,11.25,18.45,22.14,27.92,33,4.35,5,5.4,5.13,15.72,7.62a9.78,9.78,0,0,1-9.63.21c-3.05-1.55-6.24-3.43-8.44-6-10.47-12.16-20.75-24.43-30.71-37-5.24-6.6-9.7-13.82-14.65-20.94-5.49,9.07-9.67,18.37-6.61,29.22,1.4,5,.23,9.4-2,13.74-7.6,14.73-11,30.5-11.66,47-.41,10.19,2.93,15.18,12.39,19a35,35,0,0,0,17.37,2.64c8.76-1,17.36-10.52,16.89-19.33-.09-1.65-1.12-3.25-1.69-4.89q-2.42-6.88-4.82-13.78l1.24-.55c.8,1.58,1.69,3.11,2.37,4.74,3.77,9.07,8.7,17.31,16.32,23.89,7.19,6.2,15.67,6.4,24.31,6.36,8.22,0,15-4.39,22.21-7.53,2.79-1.21,5.29-3,8.11-4,4.66-1.67,6.69-5.4,8.57-9.47,6-13,12.51-25.7,21.4-37a27.78,27.78,0,0,1,3-2.88l.69.61c-.65,1-1.33,2-1.93,3.07-6.25,10.88-13.06,21.47-18.49,32.74-3.49,7.21-5.05,15.36-7.15,23.18-.43,1.6.23,3.7.93,5.34,5.19,12.25,13.54,21.34,26.68,25a13.22,13.22,0,0,0,8.7-.7c11.27-5.76,22.34-11.87,33.34-18.15,9.68-5.53,19.06-11.61,28.76-17.13,6.77-3.84,13.8-7.2,21.79-7.93,1.07-.09,2.31-1.53,2.93-2.65,1.4-2.52,2.31-5.31,3.68-7.85.49-.91,1.72-1.4,2.61-2.09A3.72,3.72,0,0,1,441.32,551.75ZM223.68,422c-2.32,3.37-4.19,6.56-6.53,9.42A26.47,26.47,0,0,0,211,448c-.27,9.89-2.43,19.12-10.08,26.59-3.49,3.4-4.73,8.49-4.15,13.84.45,4.06,1.32,9-.44,12.19-4.37,8-2.27,15.47-.59,23.51,2.19-4.63,4.68-8.89,6.21-13.46a22.11,22.11,0,0,0,1-10.08c-1.23-8-1.32-15.36,2.53-23,4.93-9.77,10.54-19.3,13.06-30.27a20,20,0,0,1,6.53-10c4.19-3.55,4.38-5.22,1.53-11.52A20.17,20.17,0,0,0,223.68,422Z" style="fill:none;stroke:#fff;stroke-linecap:round;stroke-miterlimit:10;stroke-width:1.5px"/><path d="M331.42,176.89c-7.48-2.1-14.94-4.23-22.43-6.23a6.83,6.83,0,0,0-3,.42c-3.49.81-6.64-.11-8.14-3.17-1.87-3.8-5-6-8.15-8.29a37.45,37.45,0,0,1-4.3-3.54,7.64,7.64,0,0,0-5.8-2.47,8.79,8.79,0,0,1-8.42-8.54,12.6,12.6,0,0,0-2.25-7.8,12.5,12.5,0,0,1-2-11.17c-2-1.8-6.49-.81-5.78-5.18.26-1.59,2.09-1.85,4.52-.76a15.83,15.83,0,0,1-1.44.69,17.89,17.89,0,0,1-1.85.39c.87.8,1.35,1.63,1.91,1.69,1.11.12,3.17,0,3.25-.37.37-1.69.75-3.76.09-5.21-1.26-2.74-6.46-4.19-9.25-3.07-3.49,1.4-6,5.77-5.35,9.23,1,5,4.61,8,8.26,10.84a21.15,21.15,0,0,1,8.32,15.5c.21,2.63-.37,5.33-.58,8l-1.4.11a13.53,13.53,0,0,1-.66-3.54c.7-7.94-2-14.32-8.43-19.16a29.86,29.86,0,0,1-5-4.89c-3.74-4.54-4.18-9.23-1.48-13.49,2.92-4.6,6.54-5.92,12.63-4.6,2.09-3.65,4.89-4.25,7.45-1.6,1.4,1.44,1.21,2.8-.58,3.57-.48.2-1.4-.7-2.16-1.09.5-.47,1-.93,2.1-1.9-1.63-.19-3.63-1-4.31-.39-1.65,1.53,0,2.74,1.21,3.93,1.92,1.89,3.66,4,5.38,5.84l2.45-1.93,1.13,2.32c-1,.42-2,1.3-2.92,1.16-1.28-.19-2.46-1.11-3.73-1.75-.44,1.13-.9,2.3-1.35,3.48-.86,2.29-1.68,4.28.83,6.47,1.4,1.2,1.92,3.71,2.25,5.73,1.07,6.61,6.61,9.85,10.54,14.28.5.56,2.17.35,3.22.13,6.21-1.24,9,.52,10.31,6.58.38,1.76.49,4.19,1.65,5a43.42,43.42,0,0,0,8.9,4.7c.59.25,1.86-.54,2.56-1.14,2.71-2.28,4.07-2.31,5.2.89,1.33,3.75,3.92,5.17,7.44,5.75,10.08,1.68,20.11,3.95,30.38,1.35,2.57-.65,4.26-1.76,3.06-4.28-1.11-1.52-3-3-3.1-4.59-.07-1.35,1.69-3.42,3.14-4.05,2-.88,4.56-1.18,5.92,1.77.26.57,1.76.76,2.68.78,8.25.12,12.57,4.63,11.87,12.82-.37,4.25-1.4,8.44-1.84,12.7-.12,1.18.64,2.47,1,3.71,1.57-1,3.35-1.89,4.6-3.23.83-.9.61-2.74,1.4-3.74,1.2-1.57,2.74-2.3,3.93.31.27.59,1.21,1,1.93,1.26,1.09.44,2.26.7,3.49,1.1-4.06,6.52-4.15,6.55-8.62,3.84a1.91,1.91,0,0,0-.62.22c-2.53,2-5.28,4.06-8.46,1.84-3-2.1-1-5.08-.65-7.72.52-4.13,1.39-8.24,1.55-12.38.2-6.35-4.64-9.87-11.09-8.37-.14,5.72-3.39,9.13-8.8,9.87-6,.83-12.18.88-18.28,1.22-1.49.09-3,0-4.5-.07Zm-36.67-16.36c-.92-8.38-3.34-10.15-9-7.16Zm-14.17-9c-2.56-2.79-4.66-5-7.15-7.75C273.59,148.43,275.61,150.62,280.58,151.57Zm74.14,13.67.69.56,5.41-1.58c-1.6-.85-2.79-1.94-3.35-1.68-1.09.49-1.88,1.75-2.75,2.7Z" style="fill:none;stroke:#fff;stroke-linecap:round;stroke-miterlimit:10;stroke-width:1.5px"/><path d="M104.26,438.31c-3.12-5-6.05-10.13-9.42-14.95-3.65-5.2-7.14-10.71-11.71-15a232.6,232.6,0,0,1-27.35-31.14c-5.06-6.83-10.38-13.46-17.46-18.35a3.27,3.27,0,0,1-1.27-2.18c21.2,13.85,42.28,27.76,61.42,44.48-.88-1.16-1.77-2.32-2.64-3.49-12-16-23.85-32.1-36-48-11.34-14.79-23.73-28.62-38.07-40.65-3.88-3.25-8.24-5.93-13.1-9.38,2.21.7,4,.88,5.27,1.78,5.32,3.72,10.79,7.31,15.66,11.58,17.24,15.09,31.5,32.84,45.08,51.21q17,23,34.69,45.47c5.58,7.09,12,13.55,17.93,20.37a17.51,17.51,0,0,1,1.87,3.54l-1.19.84c-7.73-7.86-15.22-16-23.28-23.5s-16.57-14.65-25.13-21.54-17.69-13.54-27.16-19.75c.45.7.85,1.4,1.34,2.05,3.41,4.56,6.64,9.28,10.3,13.63,5.37,6.38,10.76,12.81,16.68,18.67C87,410.3,93,416.62,97,424.7c2.26,4.55,5.27,8.72,7.95,13.06Z" style="fill:none;stroke:#fff;stroke-linecap:round;stroke-miterlimit:10;stroke-width:1.5px"/><path d="M301.08,498.81a12.35,12.35,0,0,0,13.36-11.26,12,12,0,0,0,0-2.4,64.93,64.93,0,0,0-2.93-12.84c-2.1-6.8-1.78-13.2.33-20.08,3.54-11.52,6-23.38,8.9-35.08a22,22,0,0,1,2.91-7.1c-2,9.17-3.78,18.38-6,27.48-1.49,6.21-3.49,12.28-5.3,18.41-1.87,6.38-.07,12.37,1.72,18.42a86.63,86.63,0,0,1,2.1,9.82c1.35,7.84-6,15.9-13,16.55-10,.92-19.91,2.79-28.42,4,3.14,1.2,18.11,0,30.8-3.3A20.49,20.49,0,0,1,292,511.61a137.14,137.14,0,0,1-20.49,2.89c-2,.16-4.48-1.29-6.19-2.68-2.52-2.05-4.56-4.71-6.86-7.18l6.62-.45c-3.7-1.15-8.27-1.77-11.95-3.9-6.6-3.84-9.81-13.69-7.19-22,2.9-9.19,1.54-17.31-3.88-25.13-6.34-9.1-10.69-18.93-10.83-30.36,0-2.79-1.07-5.65-1.65-8.48l.92-.2c.82,4,2.1,7.9,2.37,11.87a47.79,47.79,0,0,0,7.87,22.79c1.4,2.16,2.6,4.41,4.07,6.49,4.78,6.72,5.24,14,2.93,21.64a26.42,26.42,0,0,0,.1,15.08c1.32,4.89,4.53,8.18,9.25,9,14.21,2.34,28.43,2.38,42.48-1.36a8.3,8.3,0,0,0,1.54-.79Zm-1.13,5-18.78,2.79c-6.24.93-12.44-3-18.81-.36,3.28,5.71,8.08,7.9,14.75,6.91,2.75-.41,5.53-.66,8.26-1.15C291,511,296.42,509.44,300,503.77Z" style="fill:none;stroke:#fff;stroke-linecap:round;stroke-miterlimit:10;stroke-width:1.5px"/><path d="M386.65,265.49c-6.38-3.76-12.82-7.41-19.13-11.28-8.91-5.46-17.61-11.29-26.62-16.58-18.92-11.08-34.57-25.83-48.5-42.52-2.57-3.08-4.41-6.83-6.22-10.47-4-7.94-9.74-14.37-16.44-20.1-6.93-6-13.87-11.92-20.72-18a17.75,17.75,0,0,1-3.49-4.28c-3.08-5.33-5.58-11-9.07-16-7.3-10.61-17.45-17.3-30.3-19.16-5.59-.8-11.39-1.39-16.94-.76-3.62.41-7,3.12-10.41,4.94a35.59,35.59,0,0,0-3.62,2.68c-2.4,1.71-4.82,3.38-7.06,4.94.27-2.33,2.41-3.72,4.59-5.17a46.07,46.07,0,0,0,5.82-4.31,19.44,19.44,0,0,1,13.76-5.07c12.46.2,24.42,2.24,34.85,10.07,7.53,5.64,12.75,13,16.49,21.23,3.49,7.68,9.58,12.19,15.56,17.36,10.59,9.15,21.7,18,28.24,30.86,5.9,11.63,15.14,20.39,24.15,29.5,14.94,15.1,33.5,24.85,51.1,36.13,7.21,4.63,14.42,9.27,21.81,13.62,3.26,1.92,6.94,3.14,10.47,4.58a5,5,0,0,1,3.28,4.83,9.2,9.2,0,0,0,1,3.56c3.49,6.62,2.41,13-3.41,17.7a88.34,88.34,0,0,1-8.3,5.43l-.61-.92a19,19,0,0,0,3.79-2.37,65.29,65.29,0,0,0,7.86-8.54c1.86-2.67,1.51-5.9.21-9-.91-2.18-1.19-4.63-2.05-6.84a5.79,5.79,0,0,0-2.4-3,77.09,77.09,0,0,0-7.76-3.05Z" style="fill:none;stroke:#fff;stroke-linecap:round;stroke-miterlimit:10;stroke-width:1.5px"/><path d="M438.76,549.13c-1.76-3.32-2.09-7.22-6.45-7.56-3.31-.25-6.59-1.05-9.81-1.58-.08-.46-.22-.7-.15-.89.49-1.47,1-2.94,1.55-4.4-1.8-.59-3.63-1.74-5.38-1.63-2.56.15-5.07,1.21-7.72,1.9,1.64-3.34,5.5-4.41,11.17-3.86,4.77.48,4.48,4.19,5.31,7.42,1.61.16,3.22.28,4.82.53,3.41.53,6.53,1.23,7,5.71.18,1.59.79,4.48,4.76,1.87-3.49,3.61-7,5.09-10.6,3.62-5.64-2.33-11-5.39-16.44-8.17A59.34,59.34,0,0,0,411,539c-4.11-1.52-8.28-2.27-12.39.26Q382,549.51,365.36,559.7c-5,3.08-9.87,6.28-14.8,9.47l-.69-.85a20.39,20.39,0,0,1,2.88-3.05c8.58-6.1,17.24-12.17,25.87-18.24,6.18-4.34,12.56-8.38,18.47-13.11,7.16-5.74,13.76-12.09,12.88-22.78,4.6,4.65,1,12.83-10.56,24.78,6.94-1.79,12.88-.07,18.55,3.56,4.88,3.12,9.89,6.06,15,8.75C434.63,549.08,436.83,548.86,438.76,549.13Z" style="fill:none;stroke:#fff;stroke-linecap:round;stroke-miterlimit:10;stroke-width:1.5px"/><path d="M184.43,226.08c-1.53-1.06-3.07-2.09-4.58-3.18-8.6-6.17-19.5-5.82-26.12,1.24-4.62,4.93-7,14.46-1.93,21.59,4.25,5.91,14.11,8.26,20.8,4.89,5.47-2.8,7.68-7.65,7.73-13.47,0-4.44-4.34-10-8.67-11.24-5.47-1.59-10.43-.61-14.3,3.78-4.19,4.71-3.15,8.82,1.09,13.62,2.7,3,9.83,2.27,12.47-1.55a7.88,7.88,0,0,0,.63-6.63c-.9-2-3.63-2.58-6.05-1.4a2.76,2.76,0,0,0,.08.86c.61,1.17,1.26,2.33,1.9,3.49-1.09.43-2.95,1.4-3.12,1.17-.87-1.18-1.91-2.79-1.74-4.07a4.68,4.68,0,0,1,5-4.32c3.56,0,6.68,2.09,7.14,5a9.85,9.85,0,0,1-.11,4.15c-1.39,4.68-5.39,6.17-9.55,7.09a8.41,8.41,0,0,1-9.23-3.42c-2.92-4.08-4.75-8.42-1.63-13.21,3.56-5.5,8.82-7.82,15.23-7.16a14.54,14.54,0,0,1,13.18,13.58,16.5,16.5,0,0,1-13.56,17.32c-7.41,1.44-13.8-1.22-18.55-6.54-4.55-5.11-4.52-11.29-2.65-18,3.13-11.38,19.67-17.24,32-8.93,1.88,1.27,3.55,2.85,5.32,4.3Z" style="fill:none;stroke:#fff;stroke-linecap:round;stroke-miterlimit:10;stroke-width:1.5px"/><path d="M13.59,224.86c4.84,1.73,9.5.2,14-1.14a204.3,204.3,0,0,1,70-7.83c8,.44,16,1.34,24,1.74,10.65.55,21.31.76,31.55-3.28l.34,1c-2.24.9-4.44,2.46-6.72,2.58-10.3.54-20.69,1.6-30.91.76-29.65-2.46-59-1.79-87.81,6.28a61.28,61.28,0,0,0-8.29,2.44c3,1.13,6,2.38,9.11,3.35,7.58,2.42,15.24,3.92,23.3,2.66,5.38-.85,10.88-1,16.29-1.69,10.84-1.39,21.26,1.1,31.77,3,6.4,1.17,12.81,2.26,19.25,3.15,7,1,13.87.7,20.55-2.13l.27,1.4c-3.49.87-7.07,2.55-10.55,2.44a137.81,137.81,0,0,1-23.51-2.29c-18.26-3.85-36.43-5-55-2.2-12.06,1.84-23.43-1.81-34-7.61a25.58,25.58,0,0,1-3.49-2.75Z" style="fill:none;stroke:#fff;stroke-linecap:round;stroke-miterlimit:10;stroke-width:1.5px"/><path d="M124.2,42.2a1.39,1.39,0,0,1,.94-.44,36.74,36.74,0,0,1,3.76.59,20.36,20.36,0,0,1-1,3.76c-.29.65-1.6.91-1.77,1.54-.34,1.18-.62,3.44-.2,3.62,4.93,2.16,4.36,7.32,6.43,11a26.64,26.64,0,0,0,5,5.8,3.21,3.21,0,0,0,3,.44,7,7,0,0,0,3.21-3c.25-.54-1.47-1.95-2.6-3.34-.74,1.6-1.09,2.35-1.49,3.18-.51-.22-1.07-.36-1.07-.48,0-1.08-.31-2.63.26-3.11a4,4,0,0,1,3.43-.7c2.09,1,3.28.3,4.83-1a26,26,0,0,1,6.33-4.19c1.4-.59,3.31-.26,4.89.16,1.39.39,2.55,1.64,3.93,2.16,2.8,1,4.41-.41,4.35-3.07a22.57,22.57,0,0,1-4.18-.46c-.24-.07-.28-2.45.06-2.59,1.27-.52,3-1.11,4.08-.65,2.59,1.05,2.9,3.49,2,5.9-.9,2.57-4.39,3.89-7.07,2.62-1.94-.92-3.72-2.23-5.92-3.22,5,5.31,3.89,10.7,1.46,16.66-1.55,3.83-2,8.27-2.13,12.46-.1,3,2.37,4.33,5.11,3.49a4.16,4.16,0,0,0,2-2c.14-.25-.64-1-1-1.57-.61.69-1.23,1.34-1.85,2-.14.16-.34.27-1.48,1.17.27-2,0-3.56.69-4.19s2.76-1.35,3.49-.89a5.21,5.21,0,0,1,2.45,3.69,5.16,5.16,0,0,1-2.37,3.77c-4,2.15-8.77,0-9.21-4.59-.37-3.7.35-7.57,1.08-11.26a27,27,0,0,1,2.83-6.72c1.57-3,1.06-5.9-.69-8.57-.47-.76-1.69-1.16-2.57-1.74a26.5,26.5,0,0,0-.51,2.8,2.74,2.74,0,0,1-.32,1.92c-.6-1.18-1.21-2.36-1.92-3.74-2.71,1.27-5.34,2.14-4.6,6.34.48,2.73-2.73,5-5.94,5.1a9.87,9.87,0,0,1-9-6.55c-.84-2.54-1.35-5.17-2.21-7.68a43,43,0,0,0-2.4-4.64c-1.34,1.92-1.94,3.43-3.07,4.19s-3.23,1.39-3.87.83c-1-.87-1.27-2.73-1.62-4.23-.07-.28.85-1.08,1.39-1.13s1.73.48,1.74.78a12.48,12.48,0,0,1-1,3.18c3-1.24,3.72-3.1,3.6-5.48-.13-2.57-2.63-5.29-4.94-5-2.52.34-5.32.69-7.35,2.09-2.4,1.59-4.12,4.19-6.28,6.56-.7-2,.51-4,2.27-5.7s4.44-2.88,3.92-6.28c-.09-.65,1.8-2.34,2.54-2.21,1.23.22,2.27,1.52,3,2.09.87-.79,2.12-2.79,3.12-2.63C121.18,39.28,122.47,40.92,124.2,42.2Zm3.8,1.64-1.32-1.35c-1,1-1.94,2-2.8,3-.08.1.7.88,1.08,1.35C126,45.87,127,44.85,128,43.84Zm-6.08.81,1-1-3.06-3.41-1.53,1.61Z" style="fill:none;stroke:#fff;stroke-linecap:round;stroke-miterlimit:10;stroke-width:1.5px"/><path d="M129.57,150.42c-1.52,1.34-3.58,2.4-4.44,4.08a40,40,0,0,0-4,10.58c-.94,4.83-3.11,7.68-7.89,9.45-10.65,4-21.05,8.64-31.57,13-8.16,3.36-12,2.14-18.09-4.25-8-8.43-16.28-16.55-24.6-24.65-2-2-4.73-3.35-7-5.11a46.2,46.2,0,0,1-3.55-3.31l.7-1a27.14,27.14,0,0,1,2.62,1.07c12.05,6.37,21.06,16.29,30.4,25.87A99.89,99.89,0,0,0,73,185.6c1,.76,3.2.69,4.55.19,5.33-2,10.53-4.28,15.81-6.4,6.68-2.67,13.34-5.42,20.11-7.84,3-1.08,4.18-3,5.06-5.94a60,60,0,0,1,4.84-12.11c1-1.84,3.6-2.79,5.48-4.14Z" style="fill:none;stroke:#fff;stroke-linecap:round;stroke-miterlimit:10;stroke-width:1.5px"/><path d="M472.62,414.84c.29,1.57,1.08,3.24.76,4.67-1.12,5.08-2.6,10.07-4,15.09a22.87,22.87,0,0,0-.9,2.84c7.33-8.11,10.14-17.86,9.63-28.8l1.57.22c0,3.82.54,7.73-.1,11.43-2,11.28-8.47,19.48-17,27-11.25,10-24.08,15.62-38.54,18-8.58,1.4-17.35,1.67-25.93,3.08-6.67,1.09-13.19,3.17-19.22,4.68.22-.14,1.08-.79,2-1.31,7.73-4.32,16.3-5.06,24.85-6.09,10.58-1.26,21.33-1.72,31.48-5.55a63.38,63.38,0,0,0,23-15.2c6.68-6.88,9.7-16.53,10.55-26.42.1-1.1.13-2.21.18-3.32Z" style="fill:none;stroke:#fff;stroke-linecap:round;stroke-miterlimit:10;stroke-width:1.5px"/><path d="M43.34,600.25c3.39-.36,6.76-1,10.15-1,14.82-.35,29.45.77,43.61,5.76,12.32,4.34,24.05,1.63,35.27-4.09,5.65-2.89,8.2-8.32,10.42-13.9l1.28-3.26,1.13.27a37.56,37.56,0,0,1-.7,5.17,24.89,24.89,0,0,1-16.75,17.7c-11.1,3.8-22.12,5.27-33.7,1.13a118.18,118.18,0,0,0-45.92-6.65c-1.56.07-3.14,0-4.71,0Z" style="fill:none;stroke:#fff;stroke-linecap:round;stroke-miterlimit:10;stroke-width:1.5px"/><path d="M402.49,399.34c2-3.12,1.1-5.95-1-8.6-7.56-9.7-17.41-16.29-28.71-20.8a61,61,0,0,0-24.91-4.19,102.34,102.34,0,0,1-13.56-.6,26.5,26.5,0,0,1-8.2-2.49c9.91,3.18,20.15,1,30.15,2,14.4,1.4,26.92,7.53,38.1,16.64a8.44,8.44,0,0,0,5.92,1.8c6.75-1.09,13.46-2.51,20.07-4.19a35.64,35.64,0,0,0,21.27-15.36,1,1,0,0,1,1.15-.38c-8.83,18.22-25.92,20.29-43.27,21.92,2.33,5.06,3.38,6,8.5,5.22,10.86-1.69,21.09-5.15,29.09-13.06,3-3,5.18-6.8,7.73-10.23l-.08-.1c-.19,1.3-.07,2.79-.65,3.89-7.25,14.07-20.13,18.91-34.68,20.93a39.45,39.45,0,0,1-5.1,0c0,2.8,2.24,6.12-1.88,7.68Z" style="fill:none;stroke:#fff;stroke-linecap:round;stroke-miterlimit:10;stroke-width:1.5px"/><path d="M510.42,353.57a19.06,19.06,0,0,1,2.87.7c16.14,6.43,28.62,16.92,36.67,32.57,1.34,2.61,4.41,4.55,7.08,6.16,1.13.7,3.27-.32,5-.55l.18-1.25-3.29-2.45c1.34-2.9,1.72-3,4.53-1.23l1.9-2.79c.54,2.57.93,4.39,1.25,6-4.38,3-8.44,7.06-14.31.81l2.16,11c1.93.25,3.35,0,4,.63s.56,2,.79,3.11l-5,.85c-1.35,4.44-5.39,9-3.14,15.14a14.56,14.56,0,0,1-3.74-.7,18.93,18.93,0,0,1-3.15-2.65l3.59-1.59a30.31,30.31,0,0,1-3.14-3.83c-.58-1-1.12-2.79-.63-3.43,1.13-1.43,2.89-2.35,4.4-3.49l2,4.23c2.22-1,3.17-3.19,2.31-6a64.34,64.34,0,0,1-1.68-6.7c-2.09-10.77-7.75-19.54-15.24-27.26-6.73-7-15-11.61-23.77-15.53l-1.77-.83Z" style="fill:none;stroke:#fff;stroke-linecap:round;stroke-miterlimit:10;stroke-width:1.5px"/><path d="M444.87,367c-.45-1.88-.91-3.77-1.17-4.84-3.75.26-7.34.57-10.93.63-.3,0-.62-1.65-.69-2.63a7.3,7.3,0,0,0,9.91-.89c2.45-2.59,2.73-8.08-.19-10.07s-6.56-3.11-10-4.18c-1.56-.51-3.43-.1-6.07-.1,6.34-2.89,15.95-.49,18.63,4.56a12.22,12.22,0,0,1,.86,7.63c-1.14,5.58,2,12.22,7.26,14.08,4.38,1.53,8.17-1.3,7.68-5.88a2.88,2.88,0,0,0-1.4-2c-.48-.24-1.39.41-2.25.69l3.14,2.06c-.8.5-1.86,1.61-2.36,1.39-1.2-.51-2.79-1.49-3-2.55a3.74,3.74,0,0,1,1.8-3.3,7.67,7.67,0,0,1,4.58.18c.82.23,1.39,1.4,2.19,2.23,2.31-3.59,4.26-7.35,9.4-6.67a8.4,8.4,0,0,1,7,6.43c.81,3.62-.5,7.3-3.18,9s-5.73.47-6.33-2.4a3.62,3.62,0,0,1,.46-2.59,3.53,3.53,0,0,1,2.34-1.08c.48-.05,1,.69,1.56,1.08l-1.66,1.85.14.94c1.05-.34,2.42-.38,3.08-1.08,2.26-2.38,1.65-6.48-1.07-8.67-2.45-2-5.54-1.65-7.6,1.15a46.61,46.61,0,0,0-4.07,6.88c-2.25,4.57-4.82,5.77-9.81,4.59-3.81-.9-6.13-3.55-8.31-6.48Z" style="fill:none;stroke:#fff;stroke-linecap:round;stroke-miterlimit:10;stroke-width:1.5px"/><path d="M227.9,375.7a33.59,33.59,0,0,1,1.12-6.11c3.7-9.77,7.48-19.47,11.41-29.13,3.43-8.38,10.75-11.24,18.93-12.15a38.38,38.38,0,0,1,11.76.57c4.95,1,9.82.9,14.8,1A67.64,67.64,0,0,1,303,332.1c9.54,2.64,14.66,9.64,16.45,19.27,2.13,11.39,4.44,22.76,6.54,34.19a10.78,10.78,0,0,1-.79,6.09c-1.7-9.07-3.36-18.18-5.12-27.25-1.14-5.93-2-12-3.8-17.69a19.52,19.52,0,0,0-10.86-12.12,45.85,45.85,0,0,0-18.67-3.67,147.68,147.68,0,0,1-15.57-1.18,45.08,45.08,0,0,0-19.27,1.75c-7.19,2.3-10.1,8.38-12.56,14.49-3.67,9.13-6.7,18.51-10,27.79-.27.75-.57,1.48-.86,2.22Z" style="fill:none;stroke:#fff;stroke-linecap:round;stroke-miterlimit:10;stroke-width:1.5px"/><path d="M492.11,562.84c-.41,8.78-4.44,15.62-11.78,20a152.87,152.87,0,0,1-17.45,8.51c-1.33.59-3.26-.21-5.59-.45-1.07,1.91-3,1.53-5.68,0-11.28-6.53-11.28-14.8-8-27.22a1.45,1.45,0,0,1,1.07-1.16c-.85,11-3.12,22.08,10.62,27.18q.69-8.54,1.33-17.05l1.18.08c.16,3.07.31,6.13.42,8.38,3.74,2.48.15,6.41,3.25,8.8,6.46-1.91,12.56-5.74,18.62-9.71C486.47,576.06,489.25,569.49,492.11,562.84Z" style="fill:none;stroke:#fff;stroke-linecap:round;stroke-miterlimit:10;stroke-width:1.5px"/><path d="M76.46,249c6.1,5.09,12.88,9.57,18.14,15.42,8.75,9.73,16.76,20.16,24.64,30.61,9.24,12.22,18,24.81,27.09,37.14,2.25,3.07,5,5.77,7,9.28-1.74-1.51-3.76-2.79-5.17-4.55-7.52-9.44-15.08-18.85-22.27-28.55-6.43-8.67-12.32-17.75-18.62-26.52-8.8-12.26-19.84-22.37-31.61-31.74Z" style="fill:none;stroke:#fff;stroke-linecap:round;stroke-miterlimit:10;stroke-width:1.5px"/><path d="M284.36,549.25c1.66-3.49,3.28-6.78,4.72-10.11a2.84,2.84,0,0,0-.28-2.41,2.11,2.11,0,0,0-2.09-.27,3,3,0,0,0-.53,2.33c.45,2.56-1.83,7.63-4.26,8.38a3.8,3.8,0,0,1-3.09-1.29C275.58,542,277,536.43,282,533.1a11.94,11.94,0,0,1,2.47-1.25c4.46-1.68,4.6-2,2.42-6.35,2.73-.6,4.56.64,3.77,3.15-.9,2.88.49,4.5,1.8,6.51,2.1,3.26,2.68,6.73.3,10.1C290.68,548.12,288,550.1,284.36,549.25Z" style="fill:none;stroke:#fff;stroke-linecap:round;stroke-miterlimit:10;stroke-width:1.5px"/><path d="M115.28,340.58a49.71,49.71,0,0,1-3.09-5c-2.29-4.95-4.35-10-6.67-14.95-5.28-11.2-13.46-20.3-21.75-29.25C69.11,275.55,57.19,266.05,30,247.07c2.54,1.34,5.2,2.5,7.6,4.05a272.8,272.8,0,0,1,54.23,46.2c11,12.18,17.91,26.45,23.74,41.46C115.63,339,115.49,339.21,115.28,340.58Z" style="fill:none;stroke:#fff;stroke-linecap:round;stroke-miterlimit:10;stroke-width:1.5px"/><path d="M319.63,307.39l8.66,10.25c-.78.35-1.09.56-1.14.51-3.12-3.13-6.32-1.77-10-1a70.5,70.5,0,0,1-17.93,1.4,128.62,128.62,0,0,1-48.32-12.15,5.22,5.22,0,0,1-2.35-1.88c5.26,2,10.46,4.1,15.8,6,13,4.64,26.22,7.05,40,4.66a22.48,22.48,0,0,0,13.35-6.94c.44-.47,1.39-.5,2.09-.74Z" style="fill:none;stroke:#fff;stroke-linecap:round;stroke-miterlimit:10;stroke-width:1.5px"/><path d="M283.58,325.76c-2.91.28-5.82.77-8.74.8-30.34.36-56.49-11.28-80.64-28.46-4.12-2.93-7.93-6.28-11.87-9.41l.63-1a31.57,31.57,0,0,1,3.49,2.09,189.62,189.62,0,0,0,35.82,22.68,124.52,124.52,0,0,0,60.09,12.26,9.24,9.24,0,0,1,1.18.11Z" style="fill:none;stroke:#fff;stroke-linecap:round;stroke-miterlimit:10;stroke-width:1.5px"/><path d="M419.93,426.15c-.44.47-.79,1.11-1.34,1.4-7.92,3.87-15.83,7.81-24.83,8.56a4.69,4.69,0,0,1-1.4,0c-5.85-1.31-10.91.94-15.92,3.49-.61.31-1.24.6-1.87.88a.44.44,0,0,1-.32-.06c1.4-4,45.63-26.23,57.79-29l.46.94c-7.14,3.18-14.35,6.21-21.4,9.59-7.21,3.45-14.25,7.25-22.18,11.31,6.28,1.26,11.23-.56,16.15-2.25s9.71-3.49,14.57-5.28C419.74,425.86,419.83,426,419.93,426.15Z" style="fill:none;stroke:#fff;stroke-linecap:round;stroke-miterlimit:10;stroke-width:1.5px"/><path d="M513.67,497.24c-6.19-4-13-8.43-19.87-12.88-.16-.11-.07-.61-.12-1.19a4.61,4.61,0,0,1,1.37.3c7.53,4.32,14.91,8.93,22.64,12.85,2.73,1.4,6.29,1.24,9.5,1.54,2.37.23,4.78.05,7.22.6-9.41,2.21-19.47-.5-28.56,3.59-8.87,4-17.67,8.16-26.7,11.87,4.71-4.85,10.87-7.21,16.83-9.77S508.17,499.36,513.67,497.24Z" style="fill:none;stroke:#fff;stroke-linecap:round;stroke-miterlimit:10;stroke-width:1.5px"/><path d="M319.73,307.49l-9-3.28c5.2-.54,9.51.17,13,3.18a53.67,53.67,0,0,1,9.11,9.53c9.72,14,25,17.88,42.23,9.29,9.55-4.74,16.68-11.68,19.7-22.28a23.48,23.48,0,0,1,2.74-5.49c-4.59,18.65-14,29.36-35.88,33.5-11.08,2.1-20.55-2-27.8-10.87-3-3.67-6.13-7.3-9.43-10.72-1.27-1.31-3.2-2-4.83-2.94Z" style="fill:none;stroke:#fff;stroke-linecap:round;stroke-miterlimit:10;stroke-width:1.5px"/><path d="M119.58,380.73c-4.36-6.53-9-12.9-13-19.62-11.62-19.23-23.41-38.31-40.28-53.55-5.24-4.74-10.82-9.08-16-14.09,2.33,1.48,4.76,2.83,7,4.47A140.22,140.22,0,0,1,92,335.19c5.87,9.2,11.38,18.63,17.17,27.88,3.63,5.79,7.5,11.42,11.25,17.12Z" style="fill:none;stroke:#fff;stroke-linecap:round;stroke-miterlimit:10;stroke-width:1.5px"/><path d="M331.29,176.77c3.13,2.23,4.33,5.36,5,9.08a67.68,67.68,0,0,0,10.74,25.88c2.41,3.54,5.66,6.29,10,7a13.33,13.33,0,0,0,5.48-.24c2.23-.57,4.93-1.54,4-4.59-.86-2.8-3.28-3.33-5.94-2.32-.1.25-.24.43-.23.6,0,1.14.05,2.27.09,3.41-.83-.13-2.28-.08-2.37-.42-.35-1.22-.73-3.43-.22-3.72,1.78-1,4.1-2.16,5.9-1.78a7.23,7.23,0,0,1,4.48,4c.44,1.25-.83,3.85-2.1,4.88-4,3.13-8.75,3.67-13,.87a32.33,32.33,0,0,1-8.83-8.18,58.62,58.62,0,0,1-9.94-25.78c-.5-3.87-1.65-7-5.58-8.93l2.67.3Z" style="fill:none;stroke:#fff;stroke-linecap:round;stroke-miterlimit:10;stroke-width:1.5px"/><path d="M443.38,415.09c-4.19,7.92-11.65,12.88-17.77,19.07-9.4,9.54-22.37,9-33.88,12.57l-.48-.83a22.75,22.75,0,0,1,4.43-2.51c3.66-1.13,7.4-2,11.12-2.88A36.08,36.08,0,0,0,423.35,432c5.59-5.23,11.3-10.36,17-15.54.75-.69,1.52-1.36,2.28-2Z" style="fill:none;stroke:#fff;stroke-linecap:round;stroke-miterlimit:10;stroke-width:1.5px"/><path d="M269.44,199.47c2.93,4,5.93,7.92,8.79,11.95,4,5.67,7.4,11.86,11.95,17.06,10.06,11.5,23.88,17.38,37.45,23.47,3.91,1.76,8,3.22,11.91,4.89a6.64,6.64,0,0,1,2.72,2.14c-18.92-7.18-38.32-13.44-52.89-28.54a58.55,58.55,0,0,1-7-9.07c-4.55-7.09-8.84-14.34-13.23-21.52Z" style="fill:none;stroke:#fff;stroke-linecap:round;stroke-miterlimit:10;stroke-width:1.5px"/><path d="M187.86,587c2.25-2.17,3.81-1.21,5.11.48,1.85,2.4,1.12,5.85-1.56,8-3,2.42-4.93,1.78-9.6-3.24-.58.52-1.12,1.1-1.75,1.57-1.83,1.4-4.19,3.64-6,1.36-1.62-2-2-5.16-2.43-7.87-.09-.58,1.67-1.91,2.73-2.09.75-.15,1.74,1,2.63,1.62l-.42.83h-2.64c-.11.51-.47,1.16-.29,1.57.7,1.55,1.63,3,2.46,4.55,1.61-1.55,4-2.84,4.63-4.71.89-2.52.63-5.5.5-8.26-.05-1-1.12-2-1.4-2.47l7.68-6.12.48.39a15.46,15.46,0,0,1-1.08,1.72c-2.06,2.51-3.54,5.09-2.5,8.59.37,1.25-.32,2.8-.13,4.13a14.1,14.1,0,0,0,1.49,5.3,3.72,3.72,0,0,0,3.4,1.29,4.15,4.15,0,0,0,2.26-3.11c.06-.86-1.48-1.84-2.34-2.75A10,10,0,0,0,187.86,587Z" style="fill:none;stroke:#fff;stroke-linecap:round;stroke-miterlimit:10;stroke-width:1.5px"/><path d="M301.09,498.81c-3.21.37-4.89-1.89-5.55-4.25-.45-1.62.52-3.85,1.37-5.58.95-1.94,2.74-3.49,3.69-5.43,2.79-5.78-1.08-11.35-7.47-10.9a11,11,0,0,0-4.06.93c-6.05,3-12,2.49-18.21.35-4.28-1.48-8,.08-11,3.23-2.14,2.23-2.32,4.75-.35,7.23,1.08,1.39,2.27,2.64,3.43,3.93,2.71,3,2.71,6.49-.33,10.28a18,18,0,0,0,.56-4.13,25.9,25.9,0,0,0-1.4-5.05c-.17-.5-.79-.83-1.16-1.28-2.25-2.74-5.33-5.25-3.44-9.44,2-4.5,5.89-6.58,10.58-6.67a26.9,26.9,0,0,1,7.81,1.48,14.75,14.75,0,0,0,9.51-.28,29.32,29.32,0,0,1,8.76-2c7.17-.25,11.33,6.49,8.25,13a23.21,23.21,0,0,1-2.79,4.4c-3.7,4.67-3.41,6.43,1.85,10.13Z" style="fill:none;stroke:#fff;stroke-linecap:round;stroke-miterlimit:10;stroke-width:1.5px"/><path d="M295.63,529.91c1.16-.83,2.28-1.72,3.49-2.47,12.56-7.73,25.19-15.35,37.69-23.2,3-1.86,5.55-4.35,8.92-6.28-1.46,2-2.57,4.49-4.44,6a105.45,105.45,0,0,1-12.22,8.56c-9.87,5.92-19.87,11.58-29.85,17.32a25.32,25.32,0,0,1-2.94,1.23Z" style="fill:none;stroke:#fff;stroke-linecap:round;stroke-miterlimit:10;stroke-width:1.5px"/><path d="M139.52,208.52c1.08,4.44-.24,6.89-3.68,6.59a4.91,4.91,0,0,1-2.6-1.39c-.26-.23.18-1.21.31-1.85.82.24,1.63.53,2.47.7.5.1,1.4.18,1.48,0,.34-.65.78-1.73.48-2.14a6.94,6.94,0,0,0-2.8-2.35c-1.39-.52-3-.41-4.43-.7-3.55-.74-7.09-1.56-10.4-2.28l-4.63,7.86,2.72,1.1c-.06.38,0,.87-.18,1-1.91,1.34-4.08.41-4-1.94a6.51,6.51,0,0,1,1.72-4.28c3-2.5,2.1-5.27,1.46-8.31-.7-3.38-.86-6.86-1.26-10.29l1.45-.16c.16,2.17.27,4.34.48,6.5.45,4.65,3.93,7.68,7.87,6.73.86-.2,1.55-1.07,2.34-1.59.61-.39,1.27-.69,1.89-1.07-.05.84.21,2.09-.23,2.44a30.13,30.13,0,0,1-4.44,2.62c8.85-.22,17.11.1,22.2,8.7a19.7,19.7,0,0,1-3.8-2.42,35.72,35.72,0,0,1-3.28-4.45Z" style="fill:none;stroke:#fff;stroke-linecap:round;stroke-miterlimit:10;stroke-width:1.5px"/><path d="M513.6,542.08c-1.69,1.07-3.3,2.28-5.07,3.18-2.85,1.45-5.84,2.64-8.72,4.06-.55.27-.9,1-1.26,1.6-1,1.57-1.85,3.23-2.88,4.77-2,2.94-3.83,5.2-8.32,4.32-6.44-1.26-13.11-1.31-19.66-2-1.27-.14-2.47-1-3.7-1.55l.38-1c.7.05,1.4.07,2.14.14,6.93.76,13.86,1.43,20.76,2.36,3,.4,4.89-.9,6.28-3.27,2.31-3.87,4.59-7.74,7.35-12.4.09,1.76.15,2.86.22,4.19L513,541C513.21,541.37,513.4,541.72,513.6,542.08Z" style="fill:none;stroke:#fff;stroke-linecap:round;stroke-miterlimit:10;stroke-width:1.5px"/><path d="M522.77,536.71a36,36,0,0,1,5.54-1.91c6.06-1,11.4-3.56,16.68-6.66,3.43-2,7.48-3.07,11.35-4.24,7.68-2.32,11.48-7.37,11.61-15.36a2.47,2.47,0,0,1,.36-.93c0-.08.18-.11,1.09-.65.21,2.09.9,3.94.49,5.53-1.51,5.8-4.19,10.56-10.52,12.8-7.06,2.5-13.73,6.06-20.75,8.67-4.89,1.85-10.14,2.89-15.23,4.29C523.18,537.76,523,537.24,522.77,536.71Z" style="fill:none;stroke:#fff;stroke-linecap:round;stroke-miterlimit:10;stroke-width:1.5px"/><path d="M525.59,556.21c1.75-1.28,3-3,4.37-3a4.83,4.83,0,0,1,5.12,4.31c.38,2.62-.31,5.42-3.06,5.88a17.09,17.09,0,0,1-8.23-.93c-2.31-.83-4-3.18-6.33-4.23-4.11-1.91-8.43-3.35-13.23-5.2,2.06-.14,4.14-.75,5.94-.29,4.19,1.06,8,3.53,12.67,2.49C523.84,555,525.15,556,525.59,556.21Zm4.52-1.06c.23,1.2.43,2.2.61,3.2a10.37,10.37,0,0,1-3,.3c-2.26-.43-4.48-1.1-6.71-1.68l-.45,1c2.61,1.27,5.12,3,7.88,3.63,1.2.3,3.59-1.07,4.23-2.3C533.76,557.25,532.28,555.72,530.11,555.15Z" style="fill:none;stroke:#fff;stroke-linecap:round;stroke-miterlimit:10;stroke-width:1.5px"/><path d="M293.47,490.68c-9-4.23-17.57-6-25.91.58,0-2.2.54-4.6-.15-6.58s-2.6-3.33-3.49-5.58a39.39,39.39,0,0,0,3.89,2.79c1.71.93,3.54,2.09,5.39,2.25a107.61,107.61,0,0,0,13.91,0c1.8-.12,3.58-1.24,5.27-2.1a27.25,27.25,0,0,1,3.44-1.9C293.67,483.41,290,486.08,293.47,490.68Z" style="fill:none;stroke:#fff;stroke-linecap:round;stroke-miterlimit:10;stroke-width:1.5px"/><path d="M228.56,361.49c-4.65,3.1-10,3.11-15.28,3.49-7.85.54-15.92.16-23.52,1.83a63.42,63.42,0,0,0-36.87,23.46c-1.82,2.32-2.62,4.88-.45,8.49-3.27-2-3.28-4.31-2.23-6.28a28.85,28.85,0,0,1,5.51-7.94c14.65-13.39,31.31-21.88,51.85-20.9C214.6,364,221.72,364,228.56,361.49Z" style="fill:none;stroke:#fff;stroke-linecap:round;stroke-miterlimit:10;stroke-width:1.5px"/><path d="M220.19,231c2.39.31,5,.17,7.14,1,7.81,3.05,15,1.15,22.23-1.95,2.68-1.14,5.78-1.4,8.73-1.69,2.14-.19,4.49,1.4,6.22-1.33.24-.38,2.29-.05,3.09.52a2.82,2.82,0,0,1,.75,2.66c-.42.83-1.65,1.31-2.59,1.79-.35.17-.9-.11-1.37-.17-6.28-.86-12.29-1.51-18.41,1.92-5.44,3.05-11.6,2.66-17.54.11-2.59-1.12-5.48-1.52-8.25-2.25Z" style="fill:none;stroke:#fff;stroke-linecap:round;stroke-miterlimit:10;stroke-width:1.5px"/><path d="M93.24,188.81c9.71-3.61,22-3.55,33.72-4.32,3-7.63.74-16,5.18-23.48-.83,7.33-1.58,14-2.34,20.68l.8.58a62.66,62.66,0,0,0,4.74-6.59c1.28-2.36,2.09-5.18,3.49-8.68.42,6-1.94,10-4.78,13.74a13.3,13.3,0,0,1-10.54,5.66C112.81,186.94,102.12,188.07,93.24,188.81Z" style="fill:none;stroke:#fff;stroke-linecap:round;stroke-miterlimit:10;stroke-width:1.5px"/><path d="M471.89,517c11.67-3.8,39.5,8.66,48.16,22.25C506.14,527.15,490.61,518.61,471.89,517Z" style="fill:none;stroke:#fff;stroke-linecap:round;stroke-miterlimit:10;stroke-width:1.5px"/><path d="M376.79,286.78c.83,5-3,10.27-8.38,12.22a13.26,13.26,0,0,1-15.69-4.94,14.79,14.79,0,0,1,1.58-18c3.79-4.13,9.51-5.51,13.67-3.29-10.66,1.29-14.9,4.12-15.9,10.57-1,6.23,1.62,11.86,7,13.75C368.63,300.46,373.39,294.79,376.79,286.78Z" style="fill:none;stroke:#fff;stroke-linecap:round;stroke-miterlimit:10;stroke-width:1.5px"/><path d="M491.4,487.39c-8.09,6.06-14.1,13.7-20.25,21.3-5.14,6.41-10.67,12.51-16,18.8a49.1,49.1,0,0,1-5.64,6.28c1-2,1.59-4.34,3.09-5.78,6.83-6.54,12.44-14,18.08-21.57,4.33-5.81,9.9-10.72,15.13-15.81C487.33,489.13,489.53,488.43,491.4,487.39Z" style="fill:none;stroke:#fff;stroke-linecap:round;stroke-miterlimit:10;stroke-width:1.5px"/><path d="M545,565.12l-1.32,3.28c-.69-.45-2-.88-2-1.33,0-1.25.1-2.91.88-3.68,1.92-1.89,5.37-.1,5.92,2.88.7,3.69-2.61,8.69-6.38,9.63-6.14,1.54-13.88-4.69-13.42-11.71,1.1,1.4,1.89,2.19,2.49,3.13,1.94,3,4.26,5.49,8,6.15,2.7.47,4.41-1,5.73-3.05C545.88,568.73,546.9,567,545,565.12Z" style="fill:none;stroke:#fff;stroke-linecap:round;stroke-miterlimit:10;stroke-width:1.5px"/><path d="M563.27,536.52c-6.69-1.32-12.21,1.35-17.88,4.3a26.45,26.45,0,0,1-10.33,2.44,117.76,117.76,0,0,1-18.78-.53c2-.62,4-1.6,6-1.75,3.67-.29,7.4.21,11.05-.16s7.68-.83,11-2.29c4.94-2.1,9.66-4.62,15.25-3.92,1.28.17,2.53.56,3.79.84Z" style="fill:none;stroke:#fff;stroke-linecap:round;stroke-miterlimit:10;stroke-width:1.5px"/><path d="M402.48,399.34c-2.58,1.59-5,4-7.78,4.57-4.35.95-9,.64-13.47.95s-9.19.69-13.78,1.12c-6.43.59-12.87,1.89-19.28,1.72-8.44-.23-15.78-7.05-16.44-14.66l2.53,4.19c3.78,6.28,9.28,9.77,16.65,9.57,4.61-.12,9.2-.9,13.81-1.4,5.73-.59,11.45-1.24,17.2-1.72,3.9-.33,7.92,0,11.73-.7,3.06-.59,5.9-2.35,8.84-3.6Z" style="fill:none;stroke:#fff;stroke-linecap:round;stroke-miterlimit:10;stroke-width:1.5px"/><path d="M446,559.74,438,563.18l-.49-.62A16.48,16.48,0,0,1,440,560.3c5.58-3.24,6.93-9.07,8.91-14.47.15-.43.83-.64,1.15-1.06.48-.65.82-1.4,1.29-2.06,3.55-4.88,7-9.77,10.73-14.56a16.44,16.44,0,0,1,4.8-3.81c-8.82,10.79-17.16,21.76-20.87,35.47Z" style="fill:none;stroke:#fff;stroke-linecap:round;stroke-miterlimit:10;stroke-width:1.5px"/><path d="M465.07,522.18a6.71,6.71,0,0,1,7.19-3.28,83.39,83.39,0,0,1,11.47,2.58,102.92,102.92,0,0,1,30.47,15.71,7.33,7.33,0,0,1,2.55,2.94c-1-.62-2-1.21-3-1.87-9.16-6.2-18.78-11.5-29.44-14.71C478.06,521.69,471.83,519.05,465.07,522.18Z" style="fill:none;stroke:#fff;stroke-linecap:round;stroke-miterlimit:10;stroke-width:1.5px"/><path d="M223.37,358.79c-.15-4.07,0-8.2-.55-12.22a90.37,90.37,0,0,0-2.88-12.14c-1.15-4.07-2.59-8.07-4.07-12.64,6.28,4.71,11.81,30.16,8.54,36.93Z" style="fill:none;stroke:#fff;stroke-linecap:round;stroke-miterlimit:10;stroke-width:1.5px"/><path d="M290.87,334.65c1.86,5.35-.63,10.78-5.83,14.18-5.7,3.73-12.32,2.74-18-2.67-3.95-3.75-5.2-9.25-2.54-13.42-.32,8.8,3.28,15.32,11.94,16.41C285.83,350.34,289.1,343.15,290.87,334.65Z" style="fill:none;stroke:#fff;stroke-linecap:round;stroke-miterlimit:10;stroke-width:1.5px"/><path d="M233.41,168.87l-4.85-1.6c1.26,2.41-3.42,4.37-.51,7.26,2-.86,4.89-3.07,3.39,2-.15.49,1.15,1.39,1.61,2.79a10.15,10.15,0,0,1-2.65-1c-2.69-2.1-5.36-4.19-7.86-6.5-.57-.52-.46-1.77-.66-2.69a8.34,8.34,0,0,1,2.49-.16,10.08,10.08,0,0,1,2.4,1.61V165.3c-4.51,1.8-6.43,1.14-6.72-1.93l4.76,1.25c.24-.55.49-1.1.69-1.65l-9.81-6.58c5.29,1.31,9,3.18,11.56,7.44,1.29,2.15,4.05,3.42,6.15,5.08Z" style="fill:none;stroke:#fff;stroke-linecap:round;stroke-miterlimit:10;stroke-width:1.5px"/><path d="M208.26,227.13c.66-.79,1.28-1.62,1.86-2.47a14.49,14.49,0,0,0,.76-1.88,13.61,13.61,0,0,1,1.53,1.84c-1,1.21-2.09,2.73-3.45,3.17-.62.21-2.66-1.66-2.84-2.79-.65-3.72,3.38-7.16,8-7.23a22.93,22.93,0,0,1,2.74.29,46.16,46.16,0,0,1,1.4-5.68c1-2.64,3.23-3.25,5.71-2.5a3.12,3.12,0,0,1,1.87,2.14,3,3,0,0,1-1.46,2.37c-.69.34-1.85-.16-2.79-.3l.06-1,3-.32c-2.06-2.24-4.23-2.2-4.7.21-.53,2.66,0,5.59.38,8.34.16,1.12,1.21,2.1,1.26,3.71a47.2,47.2,0,0,1-3.15-3.62c-1.9-2.67-4.25-2.79-7.06-1.7S207.09,222.76,208.26,227.13Z" style="fill:none;stroke:#fff;stroke-linecap:round;stroke-miterlimit:10;stroke-width:1.5px"/><path d="M103.92,199.41c3.32,3.87,3.57,8.3,2.47,12.57-.79,3.06-3.79,2.09-5.92,1.39S97.84,211,99,208.94C100.63,206,102.14,202.86,103.92,199.41Z" style="fill:none;stroke:#fff;stroke-linecap:round;stroke-miterlimit:10;stroke-width:1.5px"/><path d="M413.68,542.48c2.61,1.34,5,2.16,6.86,3.64s1.27,3.43-1,4.15c-2.51.79-5.37,2.31-7.16-1.32-.1-.2-.35-.31-.51-.48l-2.69-2.91Z" style="fill:none;stroke:#fff;stroke-linecap:round;stroke-miterlimit:10;stroke-width:1.5px"/><path d="M388.25,381.79c-1.9-.76-3.82-1.47-5.69-2.28-10.7-4.58-21.54-3.49-32.42-.81-3.82.93-7.63,1.89-11.46,2.83-4.07,1-6.16.18-8.09-3.49,3.38,3.65,7.09,2.27,11.05,1.4a238.08,238.08,0,0,1,24.95-4.38C374.43,374.29,381.47,377.85,388.25,381.79Z" style="fill:none;stroke:#fff;stroke-linecap:round;stroke-miterlimit:10;stroke-width:1.5px"/><path d="M223.93,377.33c-2,3.79-4,4.35-8.8,3.18q-8.79-2.13-17.63-4.05c-9.65-2.1-18.91-.7-27.88,3.21a4.93,4.93,0,0,1-2.26.49c7-3.65,14.19-7,22.33-5.79s16.44,2.92,24.59,4.67C217.8,379.8,221.11,380.64,223.93,377.33Z" style="fill:none;stroke:#fff;stroke-linecap:round;stroke-miterlimit:10;stroke-width:1.5px"/><path d="M351.5,308.88l8.23-.7-.09-1.25-3.76.18c.79-1,1.36-2,1.63-1.94a25.15,25.15,0,0,1,3.64,1.51c-.7,1.22-1.32,2.45-2,3.71a28.21,28.21,0,0,1,4,3.88c1.64,2.27,1.21,4.63-.88,6.55s-6.39,2.79-8,1.13a4.6,4.6,0,0,1-1.07-3.63c.17-.78,1.79-1.31,2.85-1.76.16-.07.76.91,1.17,1.39L354.46,319c1.11,3,3.25,2.23,5.27,1.35,2.59-1.12,3.7-3.73,1.94-5.58s-4.25-3-6.54-4.15a16.31,16.31,0,0,0-3.74-1Z" style="fill:none;stroke:#fff;stroke-linecap:round;stroke-miterlimit:10;stroke-width:1.5px"/><path d="M450.24,541.17c-6.86-7.1-15.44-9.65-25-10,2-2.35,6.61-2.79,11.51-.82C442.25,532.61,448.88,533.56,450.24,541.17Z" style="fill:none;stroke:#fff;stroke-linecap:round;stroke-miterlimit:10;stroke-width:1.5px"/><path d="M317,495.23c-5.91,12-10.64,24.91-23.83,31.41,4.38-4.88,9.21-9.42,13-14.71s6.75-11.53,10.07-17.35Z" style="fill:none;stroke:#fff;stroke-linecap:round;stroke-miterlimit:10;stroke-width:1.5px"/><path d="M285.47,528.67c-5.43,3.55-10.88,1.77-15-1.55a32.54,32.54,0,0,1-12.17-19.55C264.52,518.27,269.45,530.56,285.47,528.67Z" style="fill:none;stroke:#fff;stroke-linecap:round;stroke-miterlimit:10;stroke-width:1.5px"/><path d="M422.65,470c5.59-.36,11.17-.25,16.64-1.22s10.81-3.05,15.73-4.49c-2.38,5.25-18.41,8.89-32.27,6.71C422.72,470.69,422.69,470.36,422.65,470Z" style="fill:none;stroke:#fff;stroke-linecap:round;stroke-miterlimit:10;stroke-width:1.5px"/><path d="M338.53,322l4.09-2.26-.09-.5-5.65.9-.25-1.15a52.19,52.19,0,0,1,6.93-1.4c3.49-.26,5.27-2.61,4.06-6.93l-4.48,5.59c-1.39-2.3-.88-3.49,3.27-6.38l-2.4-1.16c.44-.39.7-.76.89-.76,4,.05,6.17,3.06,5,6.82S343.65,322,338.53,322Z" style="fill:none;stroke:#fff;stroke-linecap:round;stroke-miterlimit:10;stroke-width:1.5px"/><path d="M147.76,174c12.05-.14,24.39,1,34.76-8.45C179.6,174.86,158.34,178,147.76,174Z" style="fill:none;stroke:#fff;stroke-linecap:round;stroke-miterlimit:10;stroke-width:1.5px"/><path d="M244.48,217.52,237.67,211c1.79-.26,4,.69,5.86,2.92,2.2,2.67,4.29,5.58,7,7.68a6.08,6.08,0,0,0,8.58-.65,6.21,6.21,0,0,0,1.25-2.35,4.71,4.71,0,0,0-.14-3c-.3-.7-1.32-1.09-2-1.62l-1.67,2.41c-.27-1.25-.81-2.26-.52-2.65a3.26,3.26,0,0,1,2.28-1.16c2.5-.07,4.18,2.68,3.67,5.63a7.57,7.57,0,0,1-11.6,5.09c-2.27-1.47-4-3.83-5.9-5.8Z" style="fill:none;stroke:#fff;stroke-linecap:round;stroke-miterlimit:10;stroke-width:1.5px"/><path d="M500.11,437.57c-3.49,2.22-6.93,4.58-10.53,6.62s-7.22,3.66-11.62,5.87c1.12-1.67,1.74-3.36,3-4.19a80,80,0,0,1,11-6.88c2.48-1.21,5.48-1.39,8.25-2Z" style="fill:none;stroke:#fff;stroke-linecap:round;stroke-miterlimit:10;stroke-width:1.5px"/><path d="M269.78,332.63c.77,4.85.26,10.8,7.11,11.24,4.94.32,8.28-4,9.4-10.58,1.49,2.29.55,6.36-2.09,9.11-3.05,3.16-8.18,4.37-11.11,2.62C269.21,342.69,267.89,338.29,269.78,332.63Z" style="fill:none;stroke:#fff;stroke-linecap:round;stroke-miterlimit:10;stroke-width:1.5px"/><path d="M320.74,520.32c-.87,9.22.59,18.72-4,28.45,0-2-.07-3.15,0-4.28s.42-2.28.49-3.44c.3-4.94.42-9.91.85-14.86A42,42,0,0,1,319.5,520Z" style="fill:none;stroke:#fff;stroke-linecap:round;stroke-miterlimit:10;stroke-width:1.5px"/><path d="M410.8,471.15a19.35,19.35,0,0,1-4.09,1.2c-9.53.7-18.84,2.34-27.82,6.67C380.86,474.59,394.85,471.1,410.8,471.15Z" style="fill:none;stroke:#fff;stroke-linecap:round;stroke-miterlimit:10;stroke-width:1.5px"/><path d="M318.36,427.9c-1.81,1.39-3.55,2.88-5.46,4.1-1.75,1.11-3.79,1.76-5.52,2.89s-2.73,2.52-1.12,5.18c.12-.89,0-1.43.25-1.6.79-.61,1.68-1.1,2.53-1.63.33,1.08,1.14,3,.91,3.11-1.32.78-3.16,1.92-4.31,1.5a3.27,3.27,0,0,1-2.17-4.08,3.21,3.21,0,0,1,.57-1.08,16.93,16.93,0,0,1,5-4.07c2.79-1.74,5.8-3.19,8.72-4.76Z" style="fill:none;stroke:#fff;stroke-linecap:round;stroke-miterlimit:10;stroke-width:1.5px"/><path d="M248.8,184.63l4.1,1.28.24-.42-3.49-2.57c8.49,3.36,12.67,4.07,14-.18a15.4,15.4,0,0,1,.67,2.09c-1.95.91-4,1.67-5,2.1l9.93,3.65c-.08.49-.15,1-.22,1.49l-2.3.69c-.75-1.2-1.07-2.43-1.73-2.65-2.74-.89-5.58-1.39-8.37-2.2s-5.33-1.64-8-2.47C248.64,185.14,248.73,184.89,248.8,184.63Z" style="fill:none;stroke:#fff;stroke-linecap:round;stroke-miterlimit:10;stroke-width:1.5px"/><path d="M112.86,215.44c-2.93-1.67-3.42-4-1-6.07,3.2-2.74,3.31-5.29,1.92-9.12-1.1-3-.53-6.67-.7-10l.94-.13a15.49,15.49,0,0,1,.69,2.09,92.25,92.25,0,0,1,1.9,10.72,8.21,8.21,0,0,1-1.58,5.59C113.16,210.57,111.38,212.25,112.86,215.44Z" style="fill:none;stroke:#fff;stroke-linecap:round;stroke-miterlimit:10;stroke-width:1.5px"/><path d="M386.65,265.48l1.46,4c-4.62,1.29-9.45,1.92-13.54,4s-7.47,5.58-11.63,8.82c1.62-2.24,2.8-4.43,4.51-6.12,4.37-4.37,10.1-6,16-7.05,2.29-.4,3.21-1.46,3.22-3.62Z" style="fill:none;stroke:#fff;stroke-linecap:round;stroke-miterlimit:10;stroke-width:1.5px"/><path d="M275.25,391.48c-1.45,1.2-2.73,3-4.37,3.49a24.86,24.86,0,0,1-8.51.52c-5.79-.61-11.26-.37-16.48,3a27.27,27.27,0,0,1,4.4-3.18c4.25-1.95,8.72-1.82,13.26-1.07,4.11.69,8.15.61,10.72-3.61Z" style="fill:none;stroke:#fff;stroke-linecap:round;stroke-miterlimit:10;stroke-width:1.5px"/><path d="M246.71,440.79c3.17-.79,3.54-2.79,1.83-4.88a14.49,14.49,0,0,0-5-3.44,60.66,60.66,0,0,0-6.82-2.29c.11-.35.24-.7.36-1,3.83,1.5,7.86,2.66,11.4,4.67,1.39.8,2.19,3.44,2.37,5.33.09.93-1.71,2.69-2.88,2.91s-2.57-1-3.74-1.77c-.19-.12.19-1.52.65-2,.3-.31,1.68-.24,1.77,0A7.6,7.6,0,0,1,246.71,440.79Z" style="fill:none;stroke:#fff;stroke-linecap:round;stroke-miterlimit:10;stroke-width:1.5px"/><path d="M243.51,177.89c-2.9,2.23-5.19,2.29-7.87-.52-1.72-1.8-2.79-4.19-4.13-6.35l1.07-.7a23,23,0,0,0,1.46,2.43c1.2,1.52,2.28,3.28,3.83,4.35.92.64,3.35.66,3.81,0,.7-1,.35-2.79.44-4.23l-1.39-.1-.48,2.48-1,.15c-.09-1-.53-2.79-.23-3,1.07-.47,2.8-.94,3.56-.41,2.22,1.49,1.71,3.78.81,5.93Z" style="fill:none;stroke:#fff;stroke-linecap:round;stroke-miterlimit:10;stroke-width:1.5px"/><path d="M322.29,395.15c-8.38,3.19-14.42,9-19,16.51-.37.59-1.48.7-2.49.64C306.82,405,312,396.63,322.29,395.15Z" style="fill:none;stroke:#fff;stroke-linecap:round;stroke-miterlimit:10;stroke-width:1.5px"/><path d="M13.7,224.81c-.13-.36-.43-1-.35-1a111.48,111.48,0,0,1,10-6.4c6.87-3.57,13.92-6.82,20.94-10L13.59,224.86Z" style="fill:none;stroke:#fff;stroke-linecap:round;stroke-miterlimit:10;stroke-width:1.5px"/><path d="M229.26,346.14c.31-6.83,8.52-14.41,17.3-16.26C239.45,333.83,232.93,338.45,229.26,346.14Z" style="fill:none;stroke:#fff;stroke-linecap:round;stroke-miterlimit:10;stroke-width:1.5px"/><path d="M276.48,367.93c-3.08-2.24-4.37-5.44-2.67-6.7,1-.69,3.55-1,4.14-.3C280.25,363.53,278.12,365.67,276.48,367.93Z" style="fill:none;stroke:#fff;stroke-linecap:round;stroke-miterlimit:10;stroke-width:1.5px"/><path d="M82.74,103.69l.09.17c-4,.65-5.94,4-4.69,8.37l7.53-6.68-.08-.09c-2.09,2.73-4,5.59-6.32,8.11-.32.37-2.73-.22-3.06-.91C74.2,108.57,78.2,103.22,82.74,103.69Z" style="fill:none;stroke:#fff;stroke-linecap:round;stroke-miterlimit:10;stroke-width:1.5px"/><path d="M120.2,188.68c.3,9.85,1.72,11.87,6.42,9.83-.12-1.24-.22-2.3-.31-3.37a10.62,10.62,0,0,1,2.09.34c.06,1.23.33,2.79-.31,3.64-1.71,2.26-4.88,2.19-7,.2C118.36,196.84,118,192.05,120.2,188.68Z" style="fill:none;stroke:#fff;stroke-linecap:round;stroke-miterlimit:10;stroke-width:1.5px"/><path d="M92.23,219.51,54.9,222.38c0-.25,0-.51-.06-.76l37.5-2.84Z" style="fill:none;stroke:#fff;stroke-linecap:round;stroke-miterlimit:10;stroke-width:1.5px"/><path d="M102.06,220.16a31.1,31.1,0,0,1-2,5.39c-.58.95-2,1.39-3,2.09a21.91,21.91,0,0,1-.56-3.22c0-1.32.16-2.65.27-4.28Z" style="fill:none;stroke:#fff;stroke-linecap:round;stroke-miterlimit:10;stroke-width:1.5px"/><path d="M308.57,327.39a66.7,66.7,0,0,0,7.73-1.47c3.3-1,6.46-2.43,9.73-3.49a9.75,9.75,0,0,1,3-.05l.17,1.63-20.3,4.77C308.83,328.3,308.68,327.84,308.57,327.39Z" style="fill:none;stroke:#fff;stroke-linecap:round;stroke-miterlimit:10;stroke-width:1.5px"/><path d="M344.3,381.75c10.67-3.12,21.42-5.88,32.58-2.25C365.8,377.05,355.07,379.49,344.3,381.75Z" style="fill:none;stroke:#fff;stroke-linecap:round;stroke-miterlimit:10;stroke-width:1.5px"/><path d="M481.26,454.16c3.86-5.44,10-6.33,16.12-7.45Z" style="fill:none;stroke:#fff;stroke-linecap:round;stroke-miterlimit:10;stroke-width:1.5px"/><path d="M446,559.81l11.63-4.19c1.32-.48,2.62-1,4.47-1.8-2.39,4.38-9.84,6.85-16.05,5.91Z" style="fill:none;stroke:#fff;stroke-linecap:round;stroke-miterlimit:10;stroke-width:1.5px"/><path d="M158.77,402.66h23.09C174.12,403.56,166.36,405.41,158.77,402.66Z" style="fill:none;stroke:#fff;stroke-linecap:round;stroke-miterlimit:10;stroke-width:1.5px"/><path d="M314.3,425.86a38.6,38.6,0,0,1-1.59-6c0-.38,1.51-1.09,2.42-1.36.25-.07.81.9,1.22,1.4l-2.88,1.76,3.36,2c-1.39,3.77-5,6.45-8.67,5.64a26.78,26.78,0,0,0,3.8-1.55A15.32,15.32,0,0,0,314.3,425.86Z" style="fill:none;stroke:#fff;stroke-linecap:round;stroke-miterlimit:10;stroke-width:1.5px"/><path d="M183.67,385.86l2.5-1.54-2.58-.81,18.1-1.15.06.64Z" style="fill:none;stroke:#fff;stroke-linecap:round;stroke-miterlimit:10;stroke-width:1.5px"/><path d="M334.51,326.94c-2,4.47-8.64,7.86-14,7.31Z" style="fill:none;stroke:#fff;stroke-linecap:round;stroke-miterlimit:10;stroke-width:1.5px"/><path d="M139.64,221.28c-9.87,2.4-19.72,1.4-29.53-.61,3.17.27,6.34.57,9.52.79,3.35.23,6.71.54,10.06.51S136.32,221.53,139.64,221.28Z" style="fill:none;stroke:#fff;stroke-linecap:round;stroke-miterlimit:10;stroke-width:1.5px"/><path d="M341,300.61l4.55,4.37c-1,.78-2.22,2.41-2.88,2.21-2.86-.91-2.27-3.59-2.79-5.67Z" style="fill:none;stroke:#fff;stroke-linecap:round;stroke-miterlimit:10;stroke-width:1.5px"/><path d="M352.88,383.17l16.63,1.06c.06.24.11.48.17.7-1.1.3-2.24,1-3.29.84-4.55-.5-9.08-1.22-13.59-1.87Z" style="fill:none;stroke:#fff;stroke-linecap:round;stroke-miterlimit:10;stroke-width:1.5px"/><path d="M243.45,404.32a76.36,76.36,0,0,0-6.89-6c-2.24-1.56-4.33-4.45-8.06-1.81.75-3.15,2.39-3,4.29-2.18C237.52,396.35,240.77,400,243.45,404.32Z" style="fill:none;stroke:#fff;stroke-linecap:round;stroke-miterlimit:10;stroke-width:1.5px"/><path d="M203.85,379.1,181,377.66C184.88,376.07,197,376.64,203.85,379.1Z" style="fill:none;stroke:#fff;stroke-linecap:round;stroke-miterlimit:10;stroke-width:1.5px"/><path d="M322.91,339,338,330.67C336.37,333.83,329.93,337.57,322.91,339Z" style="fill:none;stroke:#fff;stroke-linecap:round;stroke-miterlimit:10;stroke-width:1.5px"/><path d="M179.82,198.88c1.63,5.76,2.29,11.56,0,17.31Z" style="fill:none;stroke:#fff;stroke-linecap:round;stroke-miterlimit:10;stroke-width:1.5px"/><path d="M305.34,409.27c3.19-1,6.34-2.33,9.61-2.79,2.95-.4,4.19,1.67,3,3.77-4.05-5.63-8.23,0-12.31-.12Z" style="fill:none;stroke:#fff;stroke-linecap:round;stroke-miterlimit:10;stroke-width:1.5px"/><path d="M227.48,212.05c1.75-.1,2.6.58,1.29,2.09a9.14,9.14,0,0,1-3.16,2c-3.56,1.63-3.73,2.25-1.23,5.46.25.32.45.65,1,1.4-3.23-.51-4.18-2.68-4.09-4.77,0-1,2-2,3.13-2.91s3.85-.53,3.11-3.31Z" style="fill:none;stroke:#fff;stroke-linecap:round;stroke-miterlimit:10;stroke-width:1.5px"/><path d="M151.39,167.84l18.43-7.57C164.59,164.83,158.62,166.78,151.39,167.84Z" style="fill:none;stroke:#fff;stroke-linecap:round;stroke-miterlimit:10;stroke-width:1.5px"/><path d="M233.45,168.88c-.25-1.2-.48-2.39-.74-3.66l-2.46.5c0-.6-.07-1.13.08-1.22,1.48-.86,7.88,1.6,8,3.17,0,.79-.76,1.73-1.39,2.38-.2.19-1.15-.37-1.76-.58l1.17-1.75c-.08-.23-.16-.47-.25-.7-.88.61-1.77,1.22-2.65,1.85Z" style="fill:none;stroke:#fff;stroke-linecap:round;stroke-miterlimit:10;stroke-width:1.5px"/><path d="M193.31,408.34l-2.79,2.09c-.66-1-1.87-1.92-1.87-2.89a35.91,35.91,0,0,1,1-6.21l.87.13c-.09,2.18-.2,4.37-.31,6.93l2.49-1Z" style="fill:none;stroke:#fff;stroke-linecap:round;stroke-miterlimit:10;stroke-width:1.5px"/><path d="M243.42,178a9.74,9.74,0,0,1,3.08.21,4.23,4.23,0,0,1,2.34,2,2.75,2.75,0,0,1-1.22,2.44,7.91,7.91,0,0,1-3.59,0c-.25,0-.64-1.11-.46-1.4.28-.49,1-1.09,1.49-1,.77.07,1.48.64,2.63.33-.7-.4-1.36-.79-2-1.21s-1.45-.94-2.17-1.39Z" style="fill:none;stroke:#fff;stroke-linecap:round;stroke-miterlimit:10;stroke-width:1.5px"/><path d="M147.34,579.41c-1.53,1.13-2.54,2.35-3.08,2.17a5.16,5.16,0,0,1-2.72-2.38c-.21-.42,1.36-2.4,1.69-2.3C144.47,577.28,145.51,578.23,147.34,579.41Z" style="fill:none;stroke:#fff;stroke-linecap:round;stroke-miterlimit:10;stroke-width:1.5px"/><path d="M227.49,212c-.18-2.87,2.38-2.82,3.6-2.35s2.53,2.31,3,3.81c.21.6-1.52,1.87-2.37,2.84l-2.14-2.09.81-.78,2.56,2c-.33-2-.13-3.54-.79-4.19-1.61-1.53-3.35-1-4.71.7Z" style="fill:none;stroke:#fff;stroke-linecap:round;stroke-miterlimit:10;stroke-width:1.5px"/><path d="M274.69,382.59l.54,5.16-2.53.12v-5.18Z" style="fill:none;stroke:#fff;stroke-linecap:round;stroke-miterlimit:10;stroke-width:1.5px"/><path d="M253.05,413l-6.56-10C250.37,405.62,252.77,408.06,253.05,413Z" style="fill:none;stroke:#fff;stroke-linecap:round;stroke-miterlimit:10;stroke-width:1.5px"/><path d="M233.26,199.65c5,3.25,5.16,5,.12,8a18.89,18.89,0,0,0,1.64-2.31c.73-1.4,1.52-2.87-1.27-3-.56,0-1.06-1.31-1.59-2Z" style="fill:none;stroke:#fff;stroke-linecap:round;stroke-miterlimit:10;stroke-width:1.5px"/><path d="M211.06,384.52,198.75,389l-.35-1,12.33-4.43Z" style="fill:none;stroke:#fff;stroke-linecap:round;stroke-miterlimit:10;stroke-width:1.5px"/><path d="M224.37,226.48c4.25-2.84,9.52-3.49,14.47-2.87Z" style="fill:none;stroke:#fff;stroke-linecap:round;stroke-miterlimit:10;stroke-width:1.5px"/><path d="M355.59,389.72l-11.53-4.19.33-.92,11.53,4.1Z" style="fill:none;stroke:#fff;stroke-linecap:round;stroke-miterlimit:10;stroke-width:1.5px"/><path d="M545.33,474.62l2.89,10.57-.91.33Q545.68,480.3,544,475Z" style="fill:none;stroke:#fff;stroke-linecap:round;stroke-miterlimit:10;stroke-width:1.5px"/><path d="M318.79,405.93l5.29-5.83C324.79,403.92,322,406.85,318.79,405.93Z" style="fill:none;stroke:#fff;stroke-linecap:round;stroke-miterlimit:10;stroke-width:1.5px"/><path d="M368.59,282.09c4-2.19,8.58-2.6,11.45-1Z" style="fill:none;stroke:#fff;stroke-linecap:round;stroke-miterlimit:10;stroke-width:1.5px"/><path d="M278.81,355.9c-1.33.92-2.33,2-2.79,1.85a4.13,4.13,0,0,1-1.9-2.29c-.11-.33,1.2-1.67,1.64-1.58C276.66,354.09,277.42,355,278.81,355.9Z" style="fill:none;stroke:#fff;stroke-linecap:round;stroke-miterlimit:10;stroke-width:1.5px"/><path d="M379.93,293.16l9.43-4.23C388.51,291.86,384.11,294,379.93,293.16Z" style="fill:none;stroke:#fff;stroke-linecap:round;stroke-miterlimit:10;stroke-width:1.5px"/><path d="M563.28,492.65l.2.13q1.14,4.74,2.27,9.5l-1.23.25c-.6-3.26-1.21-6.52-1.79-9.77a.34.34,0,0,1,.22-.14A1.23,1.23,0,0,1,563.28,492.65Z" style="fill:none;stroke:#fff;stroke-linecap:round;stroke-miterlimit:10;stroke-width:1.5px"/><path d="M294.33,347.88c-1.34.94-2.09,1.91-2.88,1.89s-1.36-1.1-2-1.71c.64-.65,1.23-1.75,1.93-1.82S292.93,347.06,294.33,347.88Z" style="fill:none;stroke:#fff;stroke-linecap:round;stroke-miterlimit:10;stroke-width:1.5px"/><path d="M248.1,217.07c.63-1.45,1.3-2.88,1.81-4.36.05-.14-.81-.59-1.25-.9L247,214.64c-.21-1.48-.6-2.66-.37-2.79a4.7,4.7,0,0,1,3-.93c.7.16,1.75,1.71,1.55,2.22a27.27,27.27,0,0,1-2.68,4.42Z" style="fill:none;stroke:#fff;stroke-linecap:round;stroke-miterlimit:10;stroke-width:1.5px"/><path d="M357.49,300.6l-2.73,2.51c-.46-.62-1.4-1.4-1.28-1.82a10.54,10.54,0,0,1,1.85-2.55Z" style="fill:none;stroke:#fff;stroke-linecap:round;stroke-miterlimit:10;stroke-width:1.5px"/><path d="M263.16,345c.84,1.28,1.69,2,1.65,2.65a2.38,2.38,0,0,1-1.48,1.8c-.58.05-1.85-.91-1.84-1.39C261.51,347.2,262.32,346.4,263.16,345Z" style="fill:none;stroke:#fff;stroke-linecap:round;stroke-miterlimit:10;stroke-width:1.5px"/><path d="M438.43,352.9H435.5v-1.18c1.4.08,3.1-.3,4.07.38.75.53.59,2.36.83,3.62l-1.39.21C438.78,355,438.64,354,438.43,352.9Z" style="fill:none;stroke:#fff;stroke-linecap:round;stroke-miterlimit:10;stroke-width:1.5px"/><path d="M238.11,424.68c.12-.86.23-1.72.31-2.27l-2.68-.85c.24-.46.51-1.34.7-1.31.94.09,2.49.19,2.67.69.41,1.14.13,2.52.13,3.8Z" style="fill:none;stroke:#fff;stroke-linecap:round;stroke-miterlimit:10;stroke-width:1.5px"/><path d="M244.41,217.48a20.68,20.68,0,0,1-4.19-.64,29.55,29.55,0,0,1-4.35-2.45l.44-.93,8.15,4Z" style="fill:none;stroke:#fff;stroke-linecap:round;stroke-miterlimit:10;stroke-width:1.5px"/></g></g></svg>