<svg xmlns="http://www.w3.org/2000/svg" viewBox="0 0 132.25 253.11"><g id="Layer_2" data-name="Layer 2"><g id="Layer_1-2" data-name="Layer 1"><path d="M44.28,210.56c-4.49-3.25-8.81-1.48-12.94-.7-5.78,1.09-7.79.38-10.19-5a6,6,0,0,0-2-2.08c-1.37-1-2.83-1.92-4-2.71-1.92,1.21-3.64,3.08-5.62,3.41-6.34,1.06-9.65-2.91-8.89-8.75C1.27,189.6,4,184.92,9.22,183a38.25,38.25,0,0,0,8.88-4.23c3.22-2.16,6.94-.69,10.18,1.46A12,12,0,0,0,32.86,182c2.28.38,3,1.24,2.28,3.47-.44,1.29-1.08,2.51-1.48,3.8-.84,2.72-.22,3.63,2.63,4.06,2.42.36,4.84.68,7.27,1,4.42.64,6.55,1.69,10.91,5.44,3.6-2,7.93-2.84,10.46-6.73.26-.41,1.88-.4,2.53,0a80.22,80.22,0,0,1,6.76,4.51c1.31.94,2.24.75,3.28-.41,2.92-3.3,6.62-4.7,11-5.07s8.88-1.48,13.87-2.37c-.9-1.29-1.58-1.87-1.72-2.57-.24-1.15-.54-2.61,0-3.49a3.33,3.33,0,0,1,3-1c1.61.44,2.22-.23,3.11-1.3a8.71,8.71,0,0,1,13.17-.25,4,4,0,0,0,2.42,1.18c3.8.27,6.7,1.93,8.08,5.47,1.6,4.09,2.25,8.32-1,12-2.16,2.47-5.2,2.81-8,1.89-1.26-.41-2-2.41-3.11-3.83-2.28.48-3.76,2-3.54,4,.49,4.46-1.74,7.31-6.35,7.37a35.77,35.77,0,0,1-9.09-1.13,26,26,0,0,0-13.15.48c.59,2.08,1.16,4.11,1.77,6.28a5.45,5.45,0,0,1,6.35,1.28.8.8,0,0,0,.45.29c5.37.49,10.74,1.13,16.13,1.31,1.22,0,2.91-1.24,3.66-2.38,1.17-1.79,2.45-2.67,4.47-2.16s3,2.27,3.19,4.27c.48,4-1,7-4.79,8.51-4.87,1.88-9.84,3.52-14.87,4.91-5.31,1.46-10.73,2.55-15.38,5.76A8.87,8.87,0,0,1,85,237.75a9.76,9.76,0,0,0-5.23,4.34c-2.1,3.17-5.52,5.51-8.52,8A11.59,11.59,0,0,1,67,252.41a5.57,5.57,0,0,1-3.8-.31,43.18,43.18,0,0,1-7.52-4.83A7.59,7.59,0,0,1,53.33,243a7.33,7.33,0,0,0-6.11-6.32c-4.31-.6-5.84-2-6.43-6.37-.22-1.65-.89-2.1-2.42-2.17-5-.21-9.94-.53-14.91-.83C17.38,227,12,220.61,12.67,214.56a5.43,5.43,0,0,1,8.21-4.37c1.59.83,2.37,2,2,3.74-.54,2.65.94,2.5,2.63,2s3.54-1.4,5.36-1.94c1.37-.4,2.84-.45,4.24-.79s2.6-.86,3.92-1.24c.84-.24,1.72-.32,2.57-.54S43.4,210.84,44.28,210.56Zm35.23,25.18c2.68,0,5.25-.05,6.4-3.24.19-.54,1.33-.87,2.1-1.05s1.74,0,2.56-.16c4.22-1,8.47-1.93,12.6-3.2a131.64,131.64,0,0,0,13.22-4.74c3.12-1.34,3.62-4.47,1.59-7.12-.92,1-1.67,2.26-2.79,2.84-5.29,2.78-10.72,3.79-16.3.65a3.56,3.56,0,0,0-2.49-.57c-1.81.67-2.92-.1-4.1-1.24-1.67-1.62-5-1.58-7-.76a8,8,0,0,1-4.81.14c-.66-.16-1.52-2-1.3-2.75.39-1.39,1.7-1.65,3.1-.83a1.81,1.81,0,0,0,1.59,0,1.48,1.48,0,0,0,.3-1.43c-.24-.48-1-1.18-1.32-1.08-2.14.69-3.26-.45-4.29-2.76-.53,1.15-.82,1.73-1.07,2.33s-.51,1.33-1,2.49c-.59-2.12-.93-3.62-1.45-5a8.89,8.89,0,0,0-1.24-1.82c-.47-.69-1.22-1.35-1.34-2.1-.36-2.31-3.72-5.74-5.46-5.14a63.7,63.7,0,0,0-9.27,3.69c-1.28.68-2,2.55-2.77,4-.32.58,0,1.48-.29,2.12-.2.47-.85.76-1.29,1.12a4.32,4.32,0,0,1-.92-1.2,14.51,14.51,0,0,1-.44-2.31l-.92.12a14.89,14.89,0,0,0,0,2.5c.57,3.26.63,3.12-2.57,2.42a3.13,3.13,0,0,0-2.57,1.49c-.66,1.31.25,1.92,1.68,1.84,1.59-.1,2.68.9,2.11,2.28a3.76,3.76,0,0,1-3,1.93,4.57,4.57,0,0,1-4-4.49c-.19-1.95-1.37-2.4-2.38-1-1.57,2.13-3.59,2-5.76,2.27a53.8,53.8,0,0,0-6.46,1.76,23.38,23.38,0,0,1-5.73,1.26c-2.72,0-3.56-1.6-2.9-4.23.16-.66,0-2-.21-2-.89-.2-2.49-.3-2.68.1-.64,1.36-1.49,3.26-1,4.38,1.33,3,3.1,5.93,6.66,6.69a42.22,42.22,0,0,0,7.53.82c5.35.16,10.69,2.07,16.07,0a2.45,2.45,0,0,1,2.24.44c.49.85.89,2.25.5,3-.62,1.21-1.83,1.34-2.75-.1-1-1.67-1.91-1-2.5.36A3.15,3.15,0,0,0,45,232.76c1.67.83,3.61,2,5.15-.66a54.29,54.29,0,0,1,4.08-5.31l1.1.73c-1.3,2.33-2.61,4.65-4,7.15,1.88.86,2.37,3.85,5.39,2.83-.19-.57-.47-.95-.39-1.21.33-1,.53-2.28,1.26-2.87a2.66,2.66,0,0,1,2.58.34,4.22,4.22,0,0,1,0,3.2,6.09,6.09,0,0,1-2.35,2.16c-2.59,1.72-2.61,4.13,0,5.92,2.16,1.46,4.3,2.94,6.48,4.36a2,2,0,0,0,1.5.4c2.56-1,5.29-1.82,6.42-4.92.4-1.09,1.67-1.88,2.59-2.76a22.38,22.38,0,0,0,2.85-2.63,23.51,23.51,0,0,0,1.89-3.83Zm2.68-26.92c2.14-3.8,5.68-4,8.78-4a92.84,92.84,0,0,1,14.75,1.62c3.64.63,6.24-1,6.07-4.64a5.43,5.43,0,0,1,2.69-5c2.91-2,3.55-4.78,3-8.27-3,.3-5.5-.26-6-4.39a13.76,13.76,0,0,1-8.58,9,57.33,57.33,0,0,1-11.82,2.88,23.66,23.66,0,0,0-11,4.46c-.58.46-.65,1.57-1,2.38a7.61,7.61,0,0,0,2.32-.29c2.23-1,4.33-2.3,6.61-3.14a44.29,44.29,0,0,1,6-1.31c.09.32.19.64.28,1-5,1.83-10.46,2.76-14.47,7Zm-34.87-7.61a6.87,6.87,0,0,0-1.12-.48c-4.48-1.16-9-2.2-13.41-3.49-3.88-1.14-5-3.56-3.67-7.35.32-.91.66-1.82,1-2.75l-7.39-3.7c.8,4.55-.8,6.95-4.71,7.71a1.42,1.42,0,0,0-.77.69c-2.11,3.55-1.22,6.36,2.43,8.53,1.44.85,3.32,1.91,3.76,3.28,1.1,3.43,3.24,3.42,6.14,3.14,6.28-.62,12.75-3,18.79,1.8l1.16-2.87L35.93,202l.07-.76C39.7,200,43.48,201.29,47.32,201.21ZM6,199.67c0-4.39,2.43-6.11,6.15-4.79.64.22,1.92.26,2.07,0,.67-1.31,1.65-2.92,1.35-4.14-.52-2.2-1.87-4.21-3-6.6-4.15,1-7,4.11-8.27,8.49C3.65,194.85,3.12,197.59,6,199.67Zm112.72-12.53c.74,2.51,1.26,4.27,1.77,6a3.12,3.12,0,0,1,.51.07c1.29.32,3.19.26,3.72,1.08,1,1.47-.86,1.67-1.85,2.19a1.4,1.4,0,0,0-.41,1.35c.28.44,1.19,1,1.42.86,1.37-.88,3.4-1.72,3.75-3a13.75,13.75,0,0,0-.13-6.65,4.84,4.84,0,0,0-5.17-3.63C121,185.51,119.72,186.65,118.74,187.14Z" style="fill:#fff;stroke:#fff;stroke-miterlimit:10"/><path d="M9.78,54.87a13.58,13.58,0,0,1-.45-2.66,13,13,0,0,1,.55-2.63c.85.28,2,.3,2.51.88,1.83,2.11,3.41,4.46,5.18,6.63a17.59,17.59,0,0,0,3.22,3.23c1.45,1,2.69,1.06,4.05-.76,2.13-2.86,5.59-3.57,9-4a19.86,19.86,0,0,1,5.71,0c8.28,1.56,13.54-3.33,18.37-8.71,3-3.31,5.29-7.23,8.06-10.76a2.52,2.52,0,0,1,2.36.25c2.3,3.18,4,6.91,6.7,9.68a50.88,50.88,0,0,0,10.66,8.09c1.23.73,3.66-.36,5.48-.86a16.29,16.29,0,0,1,14.68,2.72,5.78,5.78,0,0,1,2,2.45c.24.65-.35,1.62-.56,2.44-.7-.23-1.6-.25-2.06-.72a13,13,0,0,0-10.71-3.7,7.82,7.82,0,0,0-6,3.39c-4.73,5.93-9.79,11.73-17,14.94a6.12,6.12,0,0,1-6.68-.59,3.23,3.23,0,0,0-1.68-.75c-4.48-.14-8.1-2.32-11.66-4.72-1.12-.76-2.37-1.33-3.46-2.13-.86-.63-2.15-1.44-2.2-2.24-.21-3.16-2.56-3.5-4.71-3.85-5.49-.89-10.95-1.57-16.1,1.7-2.61,1.65-7.11.12-9.48-2.75l-2.18-2.68-.95.19C12.9,64,13.11,71,13.82,77.88c.52,5.1,1.73,10.13,2.54,15.2s2.05,10,6.31,13.71c1.14,1,1.62,2.76,2.3,4.22,3.1,6.66,8.31,11.41,14.38,15.16a26.59,26.59,0,0,1,9.06,8.41c.54.86.43,2.12.61,3.2-1.15-.09-2.72.28-3.41-.33-6-5.37-13.66-8.65-18.63-15.32-2.81-3.77-5.67-7.3-5.2-12.4,0-.47-.68-1.17-1.21-1.51a16.73,16.73,0,0,1-7.12-10.8,22.19,22.19,0,0,0-3-6.92c-3.62-5.52-5.33-11.63-6.3-18C3.34,67.12,2.48,61.76,2,56.37c-.18-1.9.08-4.94,1.22-5.6,2-1.19,3.16,1.58,4.51,2.93.49.48,1,.94,1.52,1.41Zm-4.42.24C4,60,8.23,82.7,11.54,87c0-1.63.29-3,0-4.19a46.55,46.55,0,0,1-1.35-19.33C10.78,59,8.91,56.77,5.36,55.11Zm64.89-3c-3,2.46-.62,6.23-3.19,8.89q-.86-4.25-1.7-8.49l-1.49.14c0,3.19-.47,6.48.16,9.54.48,2.38,4.11,2.62,5.85.76C72,60.65,72.27,55.12,70.25,52.06ZM67.86,70.41c2.35-1.59,4.65-3,6.81-4.69.48-.36.45-1.4.65-2.12-.8,0-1.83-.24-2.37.15-2.9,2.11-6,1.48-9.09.85A5.12,5.12,0,0,0,62,64.24a3.33,3.33,0,0,0-2,1.05c-.2.27.33,1.48.81,1.75C63,68.18,65.17,69.13,67.86,70.41Z" style="fill:#fff;stroke:#fff;stroke-miterlimit:10"/><path d="M56.27,21.37c.27-3.56.35-6.72.81-9.82A8.45,8.45,0,0,1,59,8c2-2.48,4-4.91,6.14-7.22a2.13,2.13,0,0,1,2.1-.05c2,1.87,3.76,3.89,5.59,5.89,3.62,4,5.24,8.39,3,13.66a2.7,2.7,0,0,0,0,.92c2.34,1.08,4.25.11,6.3-1,1.24-.68,2.82-.73,4.92-1.22-1.51,3.5-2.91,5.95-3.61,8.58s-.49,5.2-.91,7.78c-.17,1-.73,2.53-1.48,2.81A4.84,4.84,0,0,1,77.13,38a88.8,88.8,0,0,1-8.79-7.66c-1.43-1.39-2.22-1.52-3.7-.05a83,83,0,0,1-8.78,7.67c-1,.71-2.9.59-4.18.18-.67-.21-1.28-1.87-1.25-2.85.14-5-.76-9.73-3.72-13.92a5,5,0,0,1-.44-1.25c1.58-1.55,3-.91,4.49,0C54,22,54,21.94,56.27,21.37ZM66.06,6.8c-1.65,3.47-3.41,6.46-4.48,9.67a3.78,3.78,0,0,0,2.49,4.82,8.36,8.36,0,0,0,5.49-.92c2.07-1.15,2.22-3.67,1.37-5.58C69.79,12.22,68,9.94,66.06,6.8ZM53.91,26.86c-.12,2.26-.27,4-.25,5.73a1.72,1.72,0,0,0,.9,1.18c.24.14.89-.12,1.13-.4C56.7,32.23,55.91,28.2,53.91,26.86ZM77.52,28.5c-2,2.14-1.93,4.44,0,6.28ZM59.8,25.43l-1.42-.13-.3,5.42,1.48.07Z" style="fill:#fff;stroke:#fff;stroke-miterlimit:10"/><path d="M54.1,113c-.34,3.09-.84,5.94-.87,8.8a6.34,6.34,0,0,0,1.54,3.57c3.27,4.11,6.76,8.06,10,12.18a27.35,27.35,0,0,1,2.37,4.33c2.83-3.56,5.71-7,8.34-10.57a85.34,85.34,0,0,0,6.18-9.5,8.85,8.85,0,0,0,0-8.61c-.31-.6.09-1.57.17-2.36.77.3,1.83.39,2.27,1a9.42,9.42,0,0,1,1.54,9.77A77.42,77.42,0,0,1,79.08,133a58.08,58.08,0,0,1-5.2,5.93c-3.41,3.86-2.58,8.89-3.62,13.4-.1.43.74,1.08,1.14,1.62.51-.43,1.27-.77,1.49-1.32,1-2.7,2-5.45,2.92-8.18a4.1,4.1,0,0,1,.79-1.71,10.49,10.49,0,0,1,2.19-1.2c.33.76,1.08,1.62.92,2.26-1,4-2.15,7.86-3.24,11.78a16.08,16.08,0,0,0-.53,2.36c-.2,1.45.24,3.48-.57,4.26-2.3,2.21-4.85,4.54-7.76,5.64-3.21,1.23-7.39-3.33-6.92-6.66a5.76,5.76,0,0,0-.78-3.27c-2-3.75-4.19-7.42-6.29-11.13a6.91,6.91,0,0,1-1.07-2.18,8.71,8.71,0,0,1,.29-2.5c.85.28,2.11.29,2.5.88,1.93,2.95,3.62,6.07,5.44,9.1.62,1,1.37,2,2.29,3.32.43-.84.81-1.22.78-1.57-.45-5.06-.91-10.09-4.15-14.37C56.85,135.7,53.93,132,51.42,128c-2.43-3.82-2.41-8.11-.93-12.32C51.11,113.92,52.27,112.56,54.1,113Zm12.74,50.25c1.14-.36,2.12-.44,2.18-.72a21.25,21.25,0,0,0,.27-3.49l-.78,0Z" style="fill:#fff;stroke:#fff;stroke-miterlimit:10"/><path d="M110,59.85a24.39,24.39,0,0,0,4.08-3.37c1.11-1.38,1.63-3.22,2.52-4.8.76-1.36,1.67-2.63,2.51-3.93.7.46,1.71.78,2,1.43a27.63,27.63,0,0,1,1.15,4.73c1.54-2.08,2.53-3.52,3.64-4.86a11.66,11.66,0,0,1,1.93-1.52c.32.67,1,1.38.92,2-.76,7.73-1.48,15.47-2.53,23.16-.95,7-3.72,13.36-6.88,19.6a17.14,17.14,0,0,0-1.27,5c-.9,5.28-4.41,8.58-8.59,11.34a5.79,5.79,0,0,0-2.85,4.39A16.73,16.73,0,0,1,103,120.8c-5.12,6-10.66,11.58-16.08,17.3a3.27,3.27,0,0,1-1.85,1.07,16.94,16.94,0,0,1-3.28-.42c.24-1.06.13-2.47.78-3.12,2.75-2.76,5.89-5.13,8.58-7.94,4.06-4.23,8.81-8.2,11.47-13.23,2.35-4.42,5.54-7.76,8.52-11.5a16.66,16.66,0,0,0,3.3-7.27c1.59-9.45,2.87-19,4-28.46a49.06,49.06,0,0,0-.12-8.39c-.09-1.93-1-2.36-2.64-1.17s-3.43,2.11-5.15,3.15Zm16-6c-2.66,2.09-4.27,3.64-4,7,.36,3.9-.37,7.89-.53,11.85-.1,2.32,0,4.65,0,7C124,71.4,126.13,63.12,126,53.88Z" style="fill:#fff;stroke:#fff;stroke-miterlimit:10"/><path d="M86.62,94.35a35.24,35.24,0,0,1-2.37,2.77c-3.14,3-6.48,5.84-9.45,9a25.34,25.34,0,0,0-4.07,6.21c-1.31,2.66-3,3.06-4.9.8-3.74-4.52-7.56-9-11.21-13.59-.95-1.2-1.36-2.83-2.19-4.65,1.54-1.19,3.26-2.45,4.9-3.82,3.27-2.73,6.52-5.48,9.71-8.31,1.31-1.17,2.44-1.68,4-.43C76.1,86.3,81.2,90.17,86.62,94.35ZM77.16,95c-.22-.74-.22-1.51-.6-1.89a64.34,64.34,0,0,0-6.24-5.57,3.17,3.17,0,0,0-3,.42,60.6,60.6,0,0,0-6,6.64c-.36.47,0,1.9.45,2.51,1.45,1.84,3.25,3.39,4.7,5.23,1.31,1.65,2.35,1.58,3.72.14,1.8-1.9,3.75-3.67,5.58-5.54A13.64,13.64,0,0,0,77.16,95Z" style="fill:#fff;stroke:#fff;stroke-miterlimit:10"/><path d="M96.55,138.86c1.62.23,3.45.06,4.81.78a35,35,0,0,1,6.13,4.48c3.56,3,7.46,5.09,12.26,5.21.75,0,1.48.78,2.21,1.19-.45.8-.84,2.22-1.38,2.28-2.24.24-4.66.55-6.78,0-5.14-1.42-10.14-3.35-15.22-5a19.85,19.85,0,0,0-3.59-.38c2.33,3.32,5.16,4.53,8.14,5.46,1,.3,2,.32,2.92.67a11.85,11.85,0,0,1,2.08,1.37c-.67.64-1.29,1.76-2,1.84-3,.33-6.21.88-9.16.35-3.86-.68-7.56-2.3-11.31-3.85,3.13-1.59,6.27-.16,9.7.2a7.44,7.44,0,0,0-5.51-3.76,6.82,6.82,0,0,1-2.11-1.17c.59-.6,1.09-1.59,1.78-1.75,4.41-1.06,8.85-2,13.43-.84a24.74,24.74,0,0,0,3.43.37c-2.92-3.73-5.84-6-10.1-6.33Z" style="fill:#fff;stroke:#fff;stroke-miterlimit:10"/><path d="M97.31,107.74c-4.85-.1-8.81-2.85-9.68-6.8-.46-2.1-.18-4,2-5.07,1.36-.64,2.53-.58,3.27,1.17,1.48,3.5,5.13,4,7.38.9a11.15,11.15,0,0,0,1.85-4.16c.39-1.78,1.16-2.91,3-2.75A3.92,3.92,0,0,1,109,94.59C110,101.14,104,107.88,97.31,107.74Z" style="fill:#fff;stroke:#fff;stroke-miterlimit:10"/><path d="M35.53,92.88A10.51,10.51,0,0,1,35,95.06c-1.5,2.23-1.1,4.32,1.16,5.73.23.14.52.18.74.33,5.11,3.41,7.75,3.07,11.9-1.52.46-.52,1-1,1.52-1.61,1.95,1.76,1.19,3.67.55,5.36-1.75,4.62-9.12,8.84-14,8a5.1,5.1,0,0,1-3.18-1.76,79.68,79.68,0,0,1-5.3-9.46c-1.25-2.67-.75-3.27,2.1-4.22.55-.18.92-.83,1.45-1.14C32.85,94.21,33.88,93.73,35.53,92.88Z" style="fill:#fff;stroke:#fff;stroke-miterlimit:10"/><path d="M82.8,86.36c-2.15-1.22-4.38-2.35-6.44-3.75a2.35,2.35,0,0,1-.22-2.28,21.15,21.15,0,0,1,4.19-4.5C85.54,72.07,91,68.58,96.2,64.89c2.11-1.48,4.1-1.08,6.07,0,.46.25.59,1.12.87,1.71-.6.19-1.34.7-1.78.52-2.35-1-3.53.12-4.93,1.92-3.7,4.79-7.69,9.35-11.52,14A38.72,38.72,0,0,0,82.8,86.36Z" style="fill:#fff;stroke:#fff;stroke-miterlimit:10"/><path d="M91.83,47.62c2.42-.47,4.83-1,7.27-1.38,3.76-.55,7.21-5.18,7.62-9.6.25-2.73-2.16-3.89-4.39-4.9s-3.74,0-5.13,1.27c-.48.45-.4,1.66-.27,2.46,0,.23,1.16.32,1.79.41.81.11,2-.13,2.34.3a2.66,2.66,0,0,1,.07,2.51c-.58.72-2.14,1.6-2.62,1.31-1.87-1.09-4.06-2.33-5-4.1-.62-1.21.28-3.71,1.26-5.1,2.08-3,6.5-3.56,10.07-1.78,4.59,2.28,6.22,5.24,5.3,9.45-1.11,5-3.31,9.38-8.6,10.86-2.52.7-5.37.36-8.06.3-.63,0-1.25-.8-1.88-1.23Z" style="fill:#fff;stroke:#fff;stroke-miterlimit:10"/><path d="M42.25,50.39a10.49,10.49,0,0,1-2.64,1.27C31.46,53,25.72,48.94,23.79,41,22.84,37,24,34.27,27.05,32c3.28-2.38,6.76-3,10.39-.85A5.88,5.88,0,0,1,40.7,37c-.32,2.66-2.37,4.26-4.9,4.84A3.54,3.54,0,0,1,33,40.93a2.94,2.94,0,0,1-.16-2.73c.22-.43,1.63-.24,2.5-.38.57-.08,1.51-.13,1.61-.42.23-.69.37-1.81,0-2.23-1.29-1.43-2.84-2.49-5-1.69-3.26,1.23-5.11,3.32-4.73,5.5a11.69,11.69,0,0,0,11.48,10c1.13.05,2.24.27,3.37.41Z" style="fill:#fff;stroke:#fff;stroke-miterlimit:10"/><path d="M36.63,67.62a6.19,6.19,0,0,1,2.16.72c6.23,5.25,13.78,7.89,21.12,11a32.68,32.68,0,0,1,3.66,2.11c-1,1.12-1.89,2.24-2.85,3.35a6.4,6.4,0,0,1-.85.69c-4.32,3.36-3.95,3-7.6-.91-4.48-4.83-9.6-9.06-14.56-13.42-.56-.5-1.84-.18-2.78-.27s-1.72-.22-2.58-.33a10.4,10.4,0,0,1,1.78-2.4C34.7,67.7,35.68,67.79,36.63,67.62Z" style="fill:#fff;stroke:#fff;stroke-miterlimit:10"/><path d="M40.76,142.86,37,150.26l.38.64,7.65-3c-.86,1-1.29,1.9-2,2.31a49.8,49.8,0,0,1-5.5,2.91,23.72,23.72,0,0,0-10.71,9.27c-.46.75-1.57,1.09-2.38,1.61-.1-1-.68-2.44-.21-3,2.6-3.33,5.49-6.44,8.22-9.67,2.13-2.52,4.18-5.11,6.27-7.66.33-.4.67-.79,1-1.18Z" style="fill:#fff;stroke:#fff;stroke-miterlimit:10"/><path d="M48.78,150.7c-1,3.43-4.38,4.2-7,6.66,2.09,0,3.61.12,5.1,0a42.76,42.76,0,0,0,4.44-.94c.11.27.21.54.31.81-1.91.75-3.77,1.85-5.75,2.19-4.61.78-8.51,2.45-11,6.65-.28.47-1.16.6-1.77.88-.18-.72-.67-1.53-.5-2.17a14.24,14.24,0,0,1,6.62-9C42.2,154,45.32,152.52,48.78,150.7Z" style="fill:#fff;stroke:#fff;stroke-miterlimit:10"/><path d="M39,97.12c1.43-1.16,2.43-2.47,3-2.31,1.07.33,1.9,1.48,2.82,2.29-.78.75-1.52,2.06-2.35,2.12S40.62,98.16,39,97.12Z" style="fill:#fff;stroke:#fff;stroke-miterlimit:10"/><path d="M100.27,94.37c-1.46.88-2.3,1.78-3.12,1.77s-1.32-1.11-2-1.73c.74-.66,1.4-1.69,2.23-1.84C98,92.45,98.88,93.44,100.27,94.37Z" style="fill:#fff;stroke:#fff;stroke-miterlimit:10"/><path d="M71.18,220.92c0-.5-.16-.8-.06-1,2-3.83,0-6-3.05-8-1.6-1-2.77-1.43-4.31-.16a4.77,4.77,0,0,1-2.21,1c-3.68.54-5.75,2.41-5.7,6.3,0,.36-.39.72-.61,1.11-2.14-1.85-2.37-3.82-.31-6.39a40.37,40.37,0,0,1,5.18-4.74c1.08-1,2.3-1.76,3.33-2.76,1.44-1.39,2.59-1.14,3.93.2s3.13,2.35,4.39,3.79c1.1,1.27,2.43,2.94,2.43,4.42C74.18,217,74.12,219.67,71.18,220.92Z" style="fill:#fff;stroke:#fff;stroke-miterlimit:10"/><path d="M61,214.86c2.1.39,4.32.49,6.25,1.29.73.3,1.08,2.2,1.09,3.38A5.63,5.63,0,0,1,62.41,225a5.39,5.39,0,0,1-5.2-5.78C57.32,216.52,58.49,215.28,61,214.86Z" style="fill:#fff;stroke:#fff;stroke-miterlimit:10"/><path d="M75.27,241.32c-2.09.36-3.72-.26-4.29-2.07a3.56,3.56,0,0,1,1.14-2.89,3.06,3.06,0,0,1,2.72-.22c.48.21.64,1.47.7,2.28A17.16,17.16,0,0,1,75.27,241.32Z" style="fill:#fff;stroke:#fff;stroke-miterlimit:10"/><path d="M79.59,235.66c-.81-.3-1.94-.36-2.39-.94a29.1,29.1,0,0,1-4.12-7.21c2.58,2.41,5.47,4.54,6.42,8.23Z" style="fill:#fff;stroke:#fff;stroke-miterlimit:10"/><path d="M64,235.35c-.3-1.86-.68-3.73-.85-5.6,0-.41.69-.89,1.07-1.34.4.38,1.12.73,1.15,1.13.12,1.9.05,3.8.05,5.7Z" style="fill:#fff;stroke:#fff;stroke-miterlimit:10"/><path d="M68.58,91.52c4.81,2.6,4.82,3.06.33,7.39C64.64,96.11,64.57,95,68.58,91.52Z" style="fill:#fff;stroke:#fff;stroke-miterlimit:10"/></g></g></svg>