<svg xmlns="http://www.w3.org/2000/svg" viewBox="0 0 573.33 480.63"><g id="Layer_2" data-name="Layer 2"><g id="Layer_1-2" data-name="Layer 1"><path d="M291.73,307.28c6.43-.18,10.23,4.08,14.67,7.08a17,17,0,0,0,11.93,2.58,1.93,1.93,0,0,0,1-.3c3.41-3.06,5.19-.64,7.63,1.73,6.68,6.47,5.79,6.25,14.44,2.29,7.4-3.39,15.06-6.21,22.49-9.54,5.78-2.58,11.39-5.56,17.07-8.35.29-.14.64-.14,1.35.35a21,21,0,0,1-3.41,2.68c-6.41,3.18-12.87,6.26-19.34,9.3-4.92,2.32-9.81,4.69-14.84,6.72-3.17,1.28-3.42,3.83-2.31,6.47a9.75,9.75,0,0,0,3.63,3.87,3.6,3.6,0,0,0,3.26,0c.83-.53,1.07-2,1.69-3.24l-3.55-.54c0-2,1.23-2.61,2.63-2.3,1.14.25,2.72,1,3.05,1.94,1.15,3.11-2.44,7.52-5.64,6.9-2.1-.41-3.41.17-3.7,1.95-.22,1.39.46,2.95.87,4.41.1.34.76.49,1,.84a17.69,17.69,0,0,1,1,1.73,6.32,6.32,0,0,1-1.78.89c-2.75.4-5.06,1.34-6.09,4.4,5.13,3.11,10.28,5.88,16.53,5.28,3-.28,5.7-1.34,7.37-4,1.24-2,2.22-1.91,3.76-.3,2.12,2.22,8.8,2.23,10.41-.3,1-1.57,1.5-4.45.7-5.93-1.16-2.14-3.84-1.63-6.76-.48l4.53,2.08a4.18,4.18,0,0,1-5.19,0c-.65-.54-1.4-2-1.15-2.38.86-1.15,2-2.54,3.31-2.81,3.18-.7,6.19-.4,8.56,2.58,2.13,2.67,5.63,2.53,8.59,2.52s5.87-1.06,8.78-1.77c4.23-1,6.85-4.25,9.47-7.39a78.16,78.16,0,0,1,6.14-7c-.47.84-.93,1.69-1.43,2.52-5.79,9.7-14.48,16.29-23.61,22.55-8.12,5.56-16.36,10.7-25.9,13.53-3.07.9-3.21,1.75-1.46,4.53,2.81,4.46,7.11,7.17,11.58,9.65a7.29,7.29,0,0,1,2.62,2,19.45,19.45,0,0,1-2.43-.54c-6.24-2.3-11.9-5.26-15.27-11.51-.58-1.06-3.17-1.91-4.46-1.54-5.81,1.65-11.13-.31-16.54-1.65-10.14-2.5-17-9.88-23.83-16.95-3.46-3.56-6-8-9.16-12.42-4.93,1.91-10.58,4.09-16.21,6.3-2,.78-1.09,1.93-.26,3A73.35,73.35,0,0,0,303,363.2a131.91,131.91,0,0,0,28.73,15.3,39.16,39.16,0,0,0,11.86,2.81c3.76.16,7.67-.95,11.36-2,1.92-.56,3-.45,4.18,1.09,1.83,2.37,3.74,4.68,5.76,6.9A20.63,20.63,0,0,0,380,393.52a11,11,0,0,1-3.14,1c-5.44,0-10.16-1.81-13.6-6.21-2.11-2.71-4.12-5.49-6.28-8.38-7,5.37-14.21,3.44-21.52,1.18-3.18-1-6.48-1.59-9.7-2.45a14.3,14.3,0,0,1-3.8-1.45c-8.4-5.19-17-10.16-25-15.86-4.23-3-7.62-7.22-11.17-11.09-1.49-1.62-3-2.47-5-1.64-6.83,2.85-13.62,5.83-20.41,8.78a9.59,9.59,0,0,0-1.57,1.12c1,.9,1.81,1.69,2.67,2.45,12.62,11.2,27,19.33,42.71,25.52,12.43,4.89,25.12,6.62,38.26,6.73,4.49,0,8.91.17,13-2,2.6-1.41,4.08-.19,5.57,1.93a52.56,52.56,0,0,0,5.25,6.11,6.66,6.66,0,0,0,7,1.66c2-.55,3,.14,4.07,2,5.72,10.32,14.26,16.18,26.43,15.68,1.9-.08,3,.37,3.9,2.09,2,3.93,5.72,5.71,9.54,7.22,7.13,2.83,14.1,6.43,22.13,5.82a11,11,0,0,0,4.91-1.26c1.72-1.09,2.93-.79,4.47.11A27.55,27.55,0,0,0,467,436.45c1.08-.15,2.13-.55,4-1-7.85-5.18-12.32-12.28-17.18-19-8.92-12.39-8.73-25.28-1.74-38.36,3.13-5.88,5.51-11.93,4.52-18.67-.58-4-2-7.79-3-11.54a14,14,0,0,1,1.52,1.89c5.2,8.61,4.71,17.33.62,26.21a104.88,104.88,0,0,0-5.11,12.51c-2.8,9-1,17.39,4.46,25,3.44,4.78,6.95,9.54,10.75,14,2,2.32,4.7,4,6.92,6.09a3.94,3.94,0,0,1,1.26,2.93c-.12.64-1.63,1.31-2.6,1.47-8,1.32-15.72,1.13-22.79-3.56a3.58,3.58,0,0,0-2.75-.64c-6.85,2.86-13.6,1.72-20.18-.65a106.77,106.77,0,0,1-13.84-6.25c-2.15-1.14-3.74-3.29-5.7-4.82a4.93,4.93,0,0,0-2.91-1.19c-11.07.62-19.33-4.36-25.92-12.76a21.9,21.9,0,0,1-1.49-2.58c-1.21-2.05-2.05-4.77-5.37-2.39-.53.37-2-.11-2.76-.57-3.32-2-6.29-4.39-7.9-8-.81-1.81-1.84-1.76-3.45-1.28-8.49,2.55-16.95,5.26-25.55,7.42a51.06,51.06,0,0,1-19.48,1.05c-5.29-.73-10.66-1.13-15.85-2.3-4.26-1-8.31-2.87-12.85-4.5,2.52-4.46,7.64-3.81,11.29-6.71a21.16,21.16,0,0,0-3.08-1.09c-6.76-1.23-13.6-2.13-20.28-3.66a93.87,93.87,0,0,1-30.61-12.95c-1.67-1.09-3.23-2.37-5-3.31-1-.55-2.33-.6-3.84-1.47L241.6,361c-17.66-2.28-34.06-5.63-46.77-18l.06-1,17.47-4.06c-17.3-4.8-31.36-15.41-46.88-25.4l28.29-7.6.27-.65c-22.23-.67-41.48-8-57.29-24.87l21.81-3.84v-1c-1.1-.51-2.23-1-3.3-1.54-12.87-6.69-25.84-13.22-36.79-23-6.53-5.81-10.47-13.37-14.42-20.94a6.93,6.93,0,0,1-.3-1.38c5.29,7,9.64,14.44,15.56,20.24s13.23,10.42,20.35,14.88,14.69,8.54,23.34,10.53c-9.23-15.13-15.9-30.88-14.14-49.32l-41,3-.1-1,39.28-4.29c-10.16-6.39-16.67-15.81-24.08-24.3-8.18-9.36-13.46-20.57-18.8-31.71-3.86-8.07-8-16-9.84-24.84-2.22-10.51-2.78-21,.74-31.34,1.7-5,3.24-10.09,5-15.48-24-5.69-48-11-71-20.19,16.68,2.79,32.63,8.63,49.38,12C40.05,69.31,13.65,42,1.1,2.08l.58-.88C5,2.38,8.26,3.47,11.49,4.74,29,11.6,46.43,18.89,64.14,25.31c23.72,8.61,47.34,17.61,71.78,24.08,13.91,3.68,27.88,7.12,41.82,10.66,11.83,3,23.65,6.09,35.51,9,10,2.44,20.09,4.67,30.14,7,9.17,2.11,18.33,4.26,27.51,6.29,7.86,1.75,15.76,3.31,23.63,5s15.52,3.54,23.29,5.25,15.75,3.38,23.62,5.08c9.72,2.09,19.46,4.1,29.17,6.3s19.39,4.41,29,6.91c25.38,6.6,51,12.61,74.18,25.53,8.77,4.89,17,10.81,25.35,16.36a22,22,0,0,1,3.32,3.42l-.6.68a13,13,0,0,1-1.46-.82A188.05,188.05,0,0,0,444,126.74c-12.07-3.78-24.21-7.36-36.32-11-.43-.13-.89-.17-1.33-.26-4.46-.88-5-.51-3.95,4.05,1.13,4.84,3.39,9,8.79,10.44a4.88,4.88,0,0,1,3.93,4.19c.39,1.82,2.53,3.35,4.09,4.79.28.26,1.89-.38,2.37-1,1.76-2.25,2.82-5.08,6-5.92,2.79-.72,7.17,1.15,8.62,3.89A5.39,5.39,0,0,1,434.8,143c-2.12,1.61-4.49.69-5.23-2,.13-.11.29-.32.41-.3,1.37.17,3.19,1,3.51-1.09.16-1-.69-2.94-1.55-3.27-1.46-.57-4-.94-4.83-.12-4.51,4.66-6,10.62-.39,16.31,2.67,2.71,5.45,5.32,8.12,8.05,5.26,5.36,7.63,12,9.33,19.23,1.58,6.67,4.2,13.2,9.21,18.19,1.7,1.7,4.28,2.67,6.63,3.53a3.34,3.34,0,0,0,3-1.36c1.15-2.42,2.18-1.53,3.46-.31a16.88,16.88,0,0,0,7.87,4.71c0-1.55,0-2.71,0-3.86.13-3.61,2.12-5.89,5.36-7.13,3-1.16,6-1.28,8.72.88a5.3,5.3,0,0,1,1.91,6.1,6.49,6.49,0,0,1-3.19,3.24c-.87.41-2.45-.18-3.46-.76-.56-.32-.59-1.55-.87-2.39a9.38,9.38,0,0,1,1-.27l3.49-.2c-.09-.76.11-1.87-.32-2.21-1-.86-2.42-1.95-3.61-1.89a6.2,6.2,0,0,0-6,6c.08,4.49,2.29,7.1,6.55,7a20.57,20.57,0,0,0,8-1.77c9.22-4.49,18.61-5.41,28.15-1.69,3,1.16,5.46,3.6,8.17,5.45l-.55.9a5.43,5.43,0,0,1-1.24-.49C516,203.65,505.11,204,494,209.54c-4.93,2.44-9.86,3.56-15.14,1.3-.66-.29-1.52-.59-1.82-1.14-2.5-4.64-8.35-4.44-11.58-8-.28-.32-1.19-.26-1.74-.12-4.9,1.22-11.53-1.18-14.39-5.26-1.9-2.72-6.84-4.21-10-3.05a14.72,14.72,0,0,1-2.1.55,41.37,41.37,0,0,0-10.7,3.45,24.23,24.23,0,0,1-16,1.9c-2.84-.57-5.61-2.94-7.76-5.14-4.07-4.16-8.34-7.67-14.08-9.3-4.48-1.27-4.42-1.48-.8-4.65a5.46,5.46,0,0,1,2-1.42c2.93-.68,2.71-2.65,2.18-4.81a23.38,23.38,0,0,1,2.73-18.56c2.94-4.78,3.38-10.08,3.29-15.48a18.05,18.05,0,0,0-.79-3.29,7.05,7.05,0,0,1,2.35.28,17.31,17.31,0,0,1,6.85,6c.91,1.48,3.42,2,5.2,3,2.05,1.11,4.35,1.94,6.07,3.44a10.05,10.05,0,0,1,2,12.83,20.5,20.5,0,0,1-3.36,4.24c-3.52,3.48-5.76,3.66-9.86.89-5.21-3.53-4.22-7.16-.54-11.35.67-.76,2.88-1,3.87-.46a5.59,5.59,0,0,1,2.47,3.49c.39,1.89-1.46,2.66-3.49,1.49a5.38,5.38,0,0,0,.41-.92c.17-.64.27-1.29.4-1.93-.81,0-1.86-.3-2.39.1a4.77,4.77,0,0,0-.83,6.75c2.6,2.75,5.25,3.07,7.53.73,2-2.08,4-4.25,4.17-7.41.23-4.13-2.14-7.54-6.34-9.11a23.72,23.72,0,0,1-4.54-1.74,15.57,15.57,0,0,1-3.25-3.33c-1.17-1.4-2.21-2.9-3.31-4.35l-.86.33c-.11,1.11-.34,2.22-.34,3.33a28.28,28.28,0,0,1-3.31,14.13c-3.37,6.09-3,12.57-1.76,19.08.43,2.3,2.18,2.9,4.25,1.68,3-1.79,5.68-1.41,8.16.9a52.13,52.13,0,0,0,4.86,3.73c1.25.91,2.89,1.55,2.36,3.69-5.07-2.62-5.07-2.62-7.92-1.29l3.71,3.29-.23.72c-1.26-.48-3.05-.61-3.67-1.53a6.29,6.29,0,0,1-.71-4.4c.51-2.42-.53-4.26-3-4a3,3,0,0,0-2.22,1.7c-.49,2.75-1.45,1.78-2.76.64-2.95-2.57-5.86-2.18-8.08,1.15a7.08,7.08,0,0,0,1.69,1.16,25.2,25.2,0,0,1,12.23,8.3c4.87,6.08,11.07,6.2,17.7,4.63,2.67-.64,5.16-2,7.76-3a21.11,21.11,0,0,1,3.88-1.16,41.33,41.33,0,0,1,7-.85,24.59,24.59,0,0,1,5.41,1.08,10.63,10.63,0,0,1,1.84.81c.17-.43.34-.63.3-.75-3.1-8-5.95-16.19-9.42-24.07a31.72,31.72,0,0,0-10.8-13.09,14.61,14.61,0,0,1-6.42-10.59c-.14-1.12-1.27-2.17-2.07-3.16q-2.75-3.42-5.63-6.75a9.41,9.41,0,0,0-2.57-2.51,15.25,15.25,0,0,1-9.06-13.2c-.41-4.67-1.26-5.51-5.86-6.47-4.94-1-9.82-2.33-14.77-3.51-3.88,8.68-3,17.2,0,25.55,1.51,4.1,3.93,7.87,5.87,11.82a11.8,11.8,0,0,1,.63,2.49,11.21,11.21,0,0,1-2.28.25c-4.95-.48-10,3.54-10.56,8.4-.82,7.48,1.54,14.35,4.38,21a118.16,118.16,0,0,0,6.5,11.87c.83,1.46.81,2.6-.75,3.4-7.71,4-6.47,10.88-5.83,17.6,1,10.66,8.4,16.35,16.65,21.39a3.14,3.14,0,0,1,1.39,1.46,16.42,16.42,0,0,1-2.65-.86c-9.42-4.83-16.64-11.41-17.52-22.76A82.6,82.6,0,0,1,376,201c.15-3.69,2.37-6.24,5.44-7.95,1.8-1,1.83-1.9.64-3.38-5.28-6.6-7.74-14.44-9.58-22.51a31.46,31.46,0,0,1-.9-6.17c-.17-7.46,1.93-10.48,8.86-13.22,1-.39,1.94-.85,2.32-1-2.1-5.78-4.53-11.16-6-16.79-1.6-6.28-1.7-12.79,1-19,.94-2.16.08-2.75-1.79-3.11-5.44-1-5.85-1.06-5.83,4.32a122.75,122.75,0,0,0,1.58,17.21c.56,3.83,1.93,7.52,2.8,11.31a2.34,2.34,0,0,1-.71,2c-9.16,6.67-10.37,18.3-6.72,27.42a59.62,59.62,0,0,0,5.8,10.63c2.43,3.67,2.64,4.86-.39,8.27a14.07,14.07,0,0,0-3.92,9.62,147.51,147.51,0,0,0,1.33,16.24c.72,5.64,3.88,10.13,8,13.86a105.84,105.84,0,0,0,9,7c3,2.19,3.4,3,2.33,6.46-4.2,13.4,4.26,27.44,17.09,31.92,2.08.72,2.75,1.32,2.44,4-1.14,9.48,3.12,21.93,11.86,27.31,5.7,3.5,11.48,6.2,18.36,5.48,1.46-.15,1.95.49,1.85,1.91-.43,6,1.44,11,7,14.27-2.84.31-5.81-1.62-7.18-5.07-1-2.41-1.25-5.07-2-7.56-.25-.79-1.13-2-1.68-2-13,.6-21.28-5.86-26.56-17.24a32.18,32.18,0,0,1-3.12-17.14,2.91,2.91,0,0,0-1.52-2.29c-10.83-4.27-17.69-12-19.62-23.44-.61-3.62.68-7.67,1.59-11.41.41-1.7.63-2.4-1.13-3.33-11.25-6-17.5-15.38-18.87-28-.38-3.42-.68-6.86-.84-10.29a15.58,15.58,0,0,1,6.14-13.5c-2.2-3.73-4.57-7.37-6.56-11.21-3.07-5.92-4.54-12.27-3.45-18.93.8-4.88,2.46-9.64,6.62-12.68,2.35-1.71,2.3-3.27,1.65-5.67-2.28-8.32-3.85-16.76-3.41-25.45a12.79,12.79,0,0,1,.13-1.63c.68-4.29.67-4.19-3.63-5.11-11.23-2.42-22.44-4.94-33.65-7.4q-11.28-2.48-22.55-4.87a16.13,16.13,0,0,0-2.59-.14c-2.21,10.24-2.73,20.3,1.1,29.89,2.29,5.73,5.86,11,9.15,16.28,1.25,2,1.82,2.82-.68,4.34-3.53,2.15-3.8,6.28-4.13,9.93-1.35,15.27,4.06,28.41,13.16,40.34a3.92,3.92,0,0,1,.81,3.08c-2,5-1.56,10-.47,15,1.16,5.29,2.85,10.46,4.33,15.67a8.8,8.8,0,0,0,.92,2.26c5.16,8,10.41,16,19.68,20a18.92,18.92,0,0,1,3.54,2c3.17,2.3,2.79,2.23,1.65,6.07a11.55,11.55,0,0,0,.17,7.4c5.49,12.46,12.41,24,25.28,30.2,4.51,2.17,6.77,4.95,8.77,9.67,4,9.41,10.79,16.76,21.72,18.71a2.4,2.4,0,0,0,1.07.13c4.11-1.27,5.33,1.25,6.39,4.49,1.35,4.14,4.44,7,8,9.39a25.42,25.42,0,0,1,3.31,2.53c-6.18-2.07-11-5.77-13.57-11.89a3.61,3.61,0,0,0-3.62-2.47c-6-.44-11.11-3.05-15.69-6.82l-1.78-1.47-6.54,4.67-.28-.42a47.19,47.19,0,0,0,4-4.72,3,3,0,0,0-.09-2.75c-3.07-4-5.88-8-6.46-13.27-.09-.8-1.24-1.73-2.11-2.17-7.08-3.57-13.9-7.48-19-13.79a2.57,2.57,0,0,0-3.46-1c-4.05,1.57-8.21,2.87-12.33,4.26a8.23,8.23,0,0,1-1.24.21l-.29-.75,14.2-6.27c-.91-3-2.69-1.93-4.48-1.27a20.17,20.17,0,0,1-5.49,1.28,44.65,44.65,0,0,1,4.83-2.33c2.68-.94,2.51-2.27,1.37-4.5a96.49,96.49,0,0,1-4.79-11.17c-.49-1.35-.09-3-.14-4.53a20.08,20.08,0,0,0-.25-2,8.22,8.22,0,0,0-2,.38c-8.32,3.79-16.57,7.76-25,11.39-4.8,2.08-9.81,3.71-14.77,5.39-3.52,1.2-4.9,2.9-4.89,6.58,0,4.27,1.54,6.51,5.25,7.53,1.31.36,2.66.57,4,.84a3.39,3.39,0,0,0,4.26-2.46,3.5,3.5,0,0,0-.67-3c-1.47-1.26-3.31-2-5-.11a3.17,3.17,0,0,1-.85.37c-1.6-1.82-.53-3,1-3.78,2.25-1.12,7,.54,8.27,2.71s.12,6.14-2.23,7.75c-2.51,1.72-5.08.31-7.63,0-1.27-.14-3.42-.69-3.65-.26a23.15,23.15,0,0,0-1.7,5.71,8.65,8.65,0,0,0,.09,2.26,12.51,12.51,0,0,1-2.22-.33c-2-.7-4-.77-5.59.78C296.25,301.14,293.44,303.42,291.73,307.28Zm-111-191.78-.15.78a3.12,3.12,0,0,0,.87.48c2.16.44,3.1.84,1.19,3.21-2.3,2.86-4.67,6.07-5.61,9.51-1.36,5-1.6,10.33-2.07,15.54a78.75,78.75,0,0,0-.34,11.69c.29,5,.44,10.21,1.78,15,4.24,15.15,13,27.19,25.71,36.66,5.69,4.22,11.14,5.56,17.89,4.27,7.9-1.51,15.92-2.4,23.86-3.73,5.89-1,11.73-2.2,17.57-3.39,3.35-.69,6.64-1.62,10-2.3,2.81-.58,5.7-.85,8.51-1.43,6.46-1.35,12.87-2.91,19.35-4.17,4.26-.82,8.6-1.2,12.89-1.91,2.8-.45,5.56-1.13,8.34-1.71l-10-19.57H290.82c6.13-1.95,12.52-2.25,19.27-2-.52-3.29-.92-6.3-1.55-9.27-.12-.53-1.12-1.09-1.81-1.26-3.25-.81-6.58-1.32-9.78-2.26-3.73-1.11-7.37-2.55-11.05-3.85l.25-.72,22,4.59c.21-6.33,0-12.36,4-17.59-4.5-1.4-8.59-2.86-12.78-3.93-6.74-1.71-13.52-3.35-20.35-4.66-4.56-.87-8.87-2.71-14-1-3.6,1.2-6.27,2.41-7.72,5.87-.54,1.28-1.37,2.07-2.73,1.24-2.65-1.63-5.36-1.22-8.14-.56-3.13.75-5.47,3.16-5.56,5.89a7.25,7.25,0,0,0,5.27,7.09,2.6,2.6,0,0,0,2.28-1.09c.24-.58-.42-1.7-1-2.35-.38-.45-1.23-.5-1.88-.73l-.15-.87c.95-.29,1.93-.92,2.83-.82,2.26.27,3.43,2.15,3.17,4.59a4.5,4.5,0,0,1-4,4.12c-2.8.09-7.35-3-8.55-5.9-1.67-3.93-1.05-7.19,1.91-9.91,3.69-3.39,8.11-3,12.6-2.44a3.13,3.13,0,0,0,2.29-.37c1.82-1.78,3.44-3.75,5.53-6.1C234.23,125.62,207.13,122.31,180.69,115.5ZM303.6,91.78C237.27,77.59,171.24,62.37,106,42.46a15.74,15.74,0,0,0,0,2.75c1.18,5.17,3,10,6.59,14.12,3.92,4.52,7.41,9.45,11.64,13.66,8.35,8.31,16.86,16.49,25.71,24.26,9.07,8,19.17,14.2,31.41,16.38,9.71,1.73,19.31,4,29,5.85,9.07,1.72,18.17,3.26,27.27,4.75,4.83.78,9.72,1.14,14.54,2,9.8,1.7,19.61,3.39,29.33,5.49s20,3.12,29.36,7.3c.24.1.63-.13,1.22-.27-.6-1.13-1.11-2.07-1.6-3-2.27-4.42-4.45-8.9-6.85-13.25a8.6,8.6,0,0,0-3.23-3.56,17.89,17.89,0,0,0-6.48-1.67c-3.8-.27-7.64.08-11.44-.15-4.35-.26-8.69-.86-13-1.32l.08-1c10.86.8,21.86-1.89,32.83,2.28a9.89,9.89,0,0,1-.54-2.29c.14-2.94-1.47-4.23-4.15-4.62-3.48-.5-6.95-1.26-10.45-1.52-9.5-.71-19-1-28.51-1.92-4.68-.48-9.24-2.16-13.86-3.29l.21-.93c1,.14,2,.27,3.07.44,5,.82,10,1.92,15,2.43,12.66,1.27,25.7-.8,37.86,4.61.65-2.73-.24-4.16-3.25-4.9-3.25-.8-6.57-1.28-9.83-2-2.68-.64-5.32-1.5-8-2.26.1-.38.21-.76.31-1.14l21.05,4C302,100.14,302.73,96.26,303.6,91.78ZM169.81,218.52l.43-1c-1-.75-2-1.44-3-2.27s-1.93-1.93-2.85-2.93c-9.95-10.83-16.94-23.5-22.46-37a151.32,151.32,0,0,1-6.83-20.23c-1.32-5.3-1.25-10.93-2-16.39-1-7.09-1.13-14.11,1.29-20.95,1.34-3.82,2.88-7.59,4.45-11.33.19-.47,1.08-.64,1.65-1a8.11,8.11,0,0,1,.42,1.9c0,.51-.39,1-.55,1.51-1.7,5.52-4.33,10.94-4.9,16.57A82.86,82.86,0,0,0,138.6,158c3.35,10.9,8.24,21.4,13.18,31.73A89.39,89.39,0,0,0,170,215c2,2,4.08,3.07,7,2.62,6.27-.94,12.57-1.7,18.86-2.47,2.75-.34,5.52-.53,9.13-.87-2.18-1.72-3.76-3-5.37-4.22-7.7-5.89-14.62-12.45-19.43-21s-8.35-17.5-8.95-27.33a131,131,0,0,1,.2-16.34c.3-4.78,1.13-9.52,1.76-14.28.6-4.5,3.88-7.48,6.33-10.91,1.12-1.57,1.18-2.48-.82-3.22-6.44-2.38-12.74-5.21-19.3-7.21-12.79-3.92-25.7-7.47-38.6-11-5.13-1.42-10.41-2.31-15.56-3.68-2.47-.65-3.39.61-4,2.47-.92,2.93-1.67,5.91-2.51,8.86-1.05,3.73-2.71,7.41-3.06,11.21-.91,10-.65,20,3.16,29.46,3.45,8.54,7.46,16.86,11.25,25.27,7.2,16,18.59,28.91,30.3,41.6,4.95,5.38,10.62,8.61,18.32,6.64C162.38,219.63,166.12,219.19,169.81,218.52Zm183.25,36.24a31.23,31.23,0,0,0-3.53-2.57c-5.47-2.81-10.57-6.12-14.21-11.16-1.86-2.57-3.82-4.2-7.13-3-.09,0-.26-.15-.68-.42L330.7,236c-2.81-7.65-8.56-2.49-12.94-3.08l9.15-3.22c-1.59-6-3.53-11.53-4.4-17.2s-.65-11.44-.89-16.6c-4.19.81-8.59,1.69-13,2.51s-8.58,1.4-12.82,2.32c-7.86,1.7-15.68,3.59-23.52,5.39-4.72,1.08-9.34,2.08-11,7.72-.89,2.93-.74,5,1.94,6.49a16.61,16.61,0,0,0,5,1.79c.66.13,2.14-.76,2.18-1.26a16.82,16.82,0,0,0-.68-4.08c-.84.23-1.69.45-2.53.69l-1.84.53c0-.75-.33-1.62-.05-2.22a3.33,3.33,0,0,1,4.26-2,6.07,6.07,0,0,1,3.44,2.93c1.82,5.18-.94,8.19-6.35,7.4-1.48-.21-3.22-.53-4.48,0a10.07,10.07,0,0,0-6,7c-.55,2.32-1.78,3.2-4,3-2.6-.21-4.91.42-6.41,2.74-2.43,3.79-4.8,7.62-7.48,11.89,1.94.1,3.69.27,5.45.25,2.44,0,4.93-.55,7.31-.23s5.45.39,6.88,3.07c3.05,5.72,7.88,9.39,13.61,12,1.11.5,3.29.89,3.67.37a7.94,7.94,0,0,0,1.61-4.82c-.14-2.08.32-3.6,1.93-4.71a16.35,16.35,0,0,1,3.85-2c5.75-2,11.68,1.61,11.44,7a4.43,4.43,0,0,1-1.77,3.31,6.63,6.63,0,0,1-4.36.06c-.63-.18-1-1.71-1.19-2.68-.06-.33.75-.83,1.17-1.25.51.64,1,1.28,1.55,1.92a2.25,2.25,0,0,0,.53.36c1.65-.46,2.33-1.3,1.55-3.15-1-2.34-2.78-4.11-5.1-3.8s-4.76,1.84-7.05,3c-.23.11-.1,1.6.3,2.1.82,1.05,2,1.81,2.91,2.82a5.59,5.59,0,0,1,.69,1.81,15,15,0,0,1-2,0c-.32,0-.59-.4-.9-.58-1.75-1-2.57-.42-2.52,1.5a12.72,12.72,0,0,0,.37,2.67c1,4.09,4.31,5.76,7.76,6.91,2.63.89,5,2.8,8.28,1.69,11.9-4.05,24-7.6,35.8-11.83C337.64,261.88,345,258.26,353.06,254.76ZM4.46,4.16l-.64.61c.42,1.05.77,2.14,1.27,3.15,1.5,3,3.06,6,4.59,9,5.69,11.14,11.53,22.18,20,31.59,12.62,14,27.72,24.76,44.41,33.27,11.22,5.72,22.4,12.09,36.16,10.6-2.16-2-4-3.91-6.16-5.53C91.82,77.44,81,66.93,75.16,52.19,72.64,45.8,69.54,39.55,67.85,33c-.93-3.65-2.33-5.32-5.63-6.52-10.72-3.92-21.35-8.06-32-12.18C21.62,10.93,13.05,7.53,4.46,4.16ZM177,222.51c-2,6.69.07,12.67,2.12,18.56a94.67,94.67,0,0,0,29.68,42.78c4.75,3.92,9.33,8.12,15.24,10.31a4.8,4.8,0,0,0,2.6.45Q239.82,291,253,287.2c.59-.17,1-.9,1.7-1.54-2.32-1.13-4.26-1.91-6-3-17.8-10.47-29.76-25.92-37.78-44.63-2.49-5.83-3.06-12.06-2.89-18.36,0-1.48,0-2.78-2.11-2.49-5.21.69-10.44,1.3-15.65,1.94a51.34,51.34,0,0,0-6.47.86A66.06,66.06,0,0,0,177,222.51Zm84.28-13.85c-3.49.55-6.41,1-9.32,1.49-6.94,1.25-13.85,2.61-20.8,3.81-6,1-12,2-18,2.81-2.11.29-2.41,1.43-2.28,3.17a62.61,62.61,0,0,0,6.33,23c8.21,16.89,20.55,29.62,36.32,39.36,1.12.69,2.78.85,3.5,1.78,1.13,1.47,2.2,1.18,3.57.83,6.74-1.71,13.5-3.36,20.25-5.08,2.74-.69,5.46-1.5,8.19-2.25l0-.74a18.32,18.32,0,0,1-4-1.23c-2.55-1.43-5.37-2.75-7.31-4.83-2.24-2.41-4.26-4.92-7.19-6.14-5.43-2.27-9.48-6.19-13.28-10.55a8.42,8.42,0,0,0-4.9-2.76c-3.75-.38-7.6.14-11.38-.09a22.85,22.85,0,0,1-6.23-1.59c-1.34-.49-1.86-2-.48-2.69,4.09-2.08,6.05-5.83,8.08-9.51s4.9-5.92,9.34-5.81c.84,0,2.24-.5,2.46-1.12a13,13,0,0,1,6.7-7.72c-.91-2.43-2.42-4.64-2.36-6.8S260,211.59,261.24,208.66ZM221.63,296.2a10.54,10.54,0,0,0-1.33-1.42c-17.77-10.91-31.6-25.38-40.12-44.57-3.78-8.52-7.7-17.08-6-26.86.37-2.14-1.12-2.22-2.55-2-5.19.65-10.36,1.42-15.55,2.09-4.31.56-6,2.39-5.54,6.74.86,7.83,2.14,15.6,5.11,23a80,80,0,0,0,14.51,24c8.18,9.12,17,17.13,28.35,21.84a20,20,0,0,0,7.81,1.29c2,0,3.87-1.26,5.84-1.78C215.08,297.68,218.08,297,221.63,296.2Zm82.85-20.3c-10.84,3.44-21.05,6.75-31.31,9.92-4.59,1.41-9.24,2.64-13.9,3.79-1.94.47-2.33,1.51-1.73,3.16,1.7,4.65,2.84,9.64,5.3,13.86,7.9,13.56,18.76,23.65,34.72,26.94,2.34.49,5,1,7.17.4,6.07-1.74,12-4.06,17.94-6.16,3-1.07,6-2.18,9.64-3.48-2.64-2.09-4.93-3.79-7.09-5.64-1.23-1.06-2.18-1.54-3.81-.55a8.74,8.74,0,0,1-4.15.94c-6,.2-11.1-2.14-15.56-6.08-3.06-2.7-6.26-4.85-10.8-3.38-2.26.73-3.23-.57-2.06-2.67,3.41-6.08,7.26-11.74,15-12,1.08-2.18,2.11-4.24,3.25-6.53C303.13,285.4,303.78,280.91,304.48,275.9ZM69.14,29.62a6.9,6.9,0,0,0,0,1.71C73,42.6,77.4,53.68,84.23,63.41c8.29,11.81,19,21.42,30.46,30.17a22.78,22.78,0,0,0,7.09,3.25c6.4,2,12.88,3.66,19.33,5.47l16.5,4.65a3,3,0,0,0-1.21-1.73c-5.48-4.33-11-8.58-16.43-13-10-8.12-18.06-18-26.37-27.8-5.24-6.15-9.17-12.5-9.76-20.69a3.63,3.63,0,0,0-1.8-2.65C91.24,37.23,80.39,33.52,69.14,29.62ZM253.91,291a6.72,6.72,0,0,0-1.26.1c-6.89,2-13.71,4.36-20.69,6-2.82.67-3,2.07-2.34,3.95a93.56,93.56,0,0,0,4.88,12.56c7.21,14.07,18,24.45,33,30,5.09,1.89,10.44,3.59,15.85,1.14s10.45-5.05,15.64-7.63c.43-.21.69-.75,1.43-1.61-2.53-.36-4.63-.68-6.73-.95s-4.57,0-6.57-.81c-10.28-4-17.63-11.73-24.12-20.13C258,307.14,255.31,299.35,253.91,291Zm-27.42,6.79c-5.67,1.45-11.31,3.1-17,4.27-2.43.5-3.24,1.53-2.61,3.63,1.2,4,2.5,7.9,4,11.76,3.71,9.69,9.93,17.79,17,25.15,4.51,4.67,10.38,7.49,16.35,10.06,5.49,2.35,10.83,3.48,16.26,0a4.26,4.26,0,0,1,1.05-.29L274,348.3a9,9,0,0,0-3.64-1.69c-3.81-1-7.68-1.19-11.4-3.33a66.58,66.58,0,0,1-29.45-34.43C228.13,305.37,227.51,301.6,226.49,297.78Zm169.92,48.14c-4.66,2.28-9.31,1.35-14,.22-.37-.09-1.15.95-1.55,1.59-.93,1.49-1.36,3.71-2.67,4.46-3.33,1.9-7.16,2.88-10.87,1-1.77-.88-2.74-.69-4.24.51a12.31,12.31,0,0,1-8.94,2.58,29.61,29.61,0,0,1-12.9-3.9c-1.43-.84-2.87-1.59-4.55-.36-.36.27-1.15,0-1.73-.08.1-.57,0-1.27.34-1.68,2.16-2.79,4.4-5.51,6.86-8.56-1.3-2-1.31-4.55.8-7.07a2,2,0,0,0,0-1.85c-1.42-2.49-3-4.9-4.51-7.41a15.86,15.86,0,0,1-2.12,1.18q-13.38,5.28-26.79,10.49c-1.6.62-1.87,1.77-1.1,3,1.6,2.61,3.06,5.4,5.14,7.59,3.68,3.87,7.69,7.46,11.72,11,10.7,9.34,23.4,10.78,36.44,7.48C375,362.78,386.07,354.9,396.41,345.92ZM219,336.84a13.73,13.73,0,0,0-.74-1.9c-6.27-8.45-11.16-17.54-13.22-28-.31-1.53-1.17-2.1-2.77-1.7-7.82,1.91-15.66,3.75-23.47,5.68-2,.5-4,1.26-5.93,1.89l-.27,1.15c3,2.29,5.77,4.87,8.94,6.83,9.26,5.73,18.69,11.17,29.21,14.32C213.26,335.89,215.88,336.21,219,336.84Zm-16.68-34c-7.36-3-14.76-6-20.77-11.41-5.13-4.59-10-9.42-14.91-14.28a4.14,4.14,0,0,0-4.8-1.19c-3.54,1.08-7.22,1.72-10.85,2.48-3.31.69-6.63,1.29-10.42,2C158.45,296.9,179.74,301.68,202.33,302.88Zm94.68,84c-.34-.77-.36-1-.48-1.08-1-.52-2.09-1.07-3.18-1.5-13.73-5.38-25.32-13.9-35.73-24.2a3,3,0,0,0-2.55-.59c-3,1-5.91,2.27-8.84,3.45s-6.11,2.49-9.49,3.86C255.65,377.69,275.71,383.43,297,386.87Zm-47-29.61-.18-1.13-3.85-.22c-.79-.05-1.75.15-2.35-.23-7.28-4.55-15.12-8.33-20.83-15.11a5.19,5.19,0,0,0-3.95-1.58c-5.11.6-10.19,1.54-15.27,2.48-1.69.31-3.31,1-5.76,1.71,2.91,2.17,4.87,4.29,7.28,5.31,7.4,3.13,14.83,6.33,22.52,8.55,6.48,1.87,13.33,3,20.16,1.12A20.38,20.38,0,0,0,250,357.26Zm91.3,38.93a11.34,11.34,0,0,0-1.89-.54c-4-.35-7.95-.51-11.89-1-6-.78-12-1.19-17.75-3.46-4.45-1.76-8.93-4.34-14-1.14-2.51,1.56-5.54,2.28-8.54,3.46C295.75,399.85,329,402.72,341.33,396.19Z" style="fill:#fff;stroke:#fff;stroke-miterlimit:10;stroke-width:2px"/><path d="M495.79,312.66l1.8-8,1-.57a8.63,8.63,0,0,0,.73,1.7,60.59,60.59,0,0,0,4.82,6.38,51.81,51.81,0,0,0,7.66,6.93,22.22,22.22,0,0,0,7.1,3c5.21,1.37,8.07,5.28,10.83,9.36.29.43.13,1.17.22,2.16-2.1-2.24-3.72-4.42-5.79-6a24.31,24.31,0,0,0-6.83-3.65c-2.78-.95-5.24-1.91-7.36-4.22-3.41-3.7-7.37-6.9-11.1-10.3l-1,.18c0,2.24-.37,4.56.09,6.7a28.35,28.35,0,0,0,2.79,7c.7,1.34,1,2.3-.33,3.25a4.37,4.37,0,0,0-1.78,5.47c.82,1.56,3,2.57,4.81,3.37.76.33,2.68-.24,2.94-.87a5.16,5.16,0,0,0-.19-3.74c-.25-.54-1.82-.48-3-.74-.51-2,.31-2.95,2.5-2.35a5.48,5.48,0,0,1,3.77,6.14c-.46,2.94-2.19,4.29-5.34,4.15l-2.17-.13c-1,3.65.79,6.28,2.85,8.81.56.7,1.55,1.1,2,1.85s.57,2,.19,2.34c-5.42,5.65-4.07,11.52-.65,17.41q5.79,10,11.78,19.8a37.84,37.84,0,0,1,5.61,18.5,34.78,34.78,0,0,1-.41,4.13c-1.65-5.64-2.69-10.61-4.57-15.25-1.64-4.06-4.21-7.75-6.37-11.61-3.62-6.46-7.55-12.77-10.74-19.44-2-4.17-1.14-8.75,1.29-12.74.89-1.47.8-2.39-.28-3.57a11.66,11.66,0,0,1-3-9.54,3.13,3.13,0,0,0-1.09-2.42,5.75,5.75,0,0,1-2.08-7.5c1.49-3.19.2-5.68-.87-8.19-3.3-7.8-5.86-15.73-6.21-24.28A66.82,66.82,0,0,1,501.15,255c6.33-9.27,14.11-17.46,25-21.54,5.4-2,11.07-3.49,17-2a19.94,19.94,0,0,0,4.17.25c-.74-2.88-2-5.56-2-8.25-.06-4.14,3.43-5.9,6.62-7.49,2.49-1.24,4.6.12,6.51,1.55,2.14,1.61,2,6.53-.32,7.92-1.41.87-2.57.45-2.85-.43.93-1.84,2.05-3.09,2-4.24-.07-.75-2.23-2.16-2.84-1.9a11.63,11.63,0,0,0-4.81,3.62c-.71,1-.56,3.26.08,4.5,1.4,2.72,3.56,3.24,6.47,2.19a22.08,22.08,0,0,1,3.31-1.23c8.66-1.55,11.71-14.31,8.65-20.87-3.93-8.41-10.63-14-18-18.81-7.6-4.93-15.88-8.78-23.55-13.6-5.82-3.65-11.19-8-16.67-12.19a25.69,25.69,0,0,1-3.36-3.8c-1.31,2.08-.3,3.65.62,5.07,1.06,1.63,2.21,3-.79,3.75a1.94,1.94,0,0,0-.85,1.68c.39,2,1,4.06,1.64,6.43,3.4-3.32,6.25-3.26,7.27-.15a6.27,6.27,0,0,1-.69,4.49c-.88,1.56-2.62,1.23-4.15.54-5.27-2.38-8.3-9.7-6.25-15.17.12-.34.42-.8.3-1-1.65-3,.48-5.69.59-8.54,0-.82.85-1.61,1.3-2.41.66.56,1.64,1,1.93,1.69,2.11,5.07,5.91,8.56,10.23,11.74,10,7.34,21.07,12.78,31.83,18.81,7.66,4.29,14.54,9.58,19.46,17.08,5,7.67,3.93,15.17-.18,22.82-2.67,5-6.74,7.11-12.13,7.95a45.59,45.59,0,0,1-13.75.12,31,31,0,0,0-22.27,5.27c-10.37,7.11-18.87,16.09-23.1,28.14-3.88,11-6.57,22.45-5.19,34.33.45,3.87,1.53,7.68,2.33,11.52Z" style="fill:#fff;stroke:#fff;stroke-miterlimit:10;stroke-width:2px"/><path d="M446.46,197.79a95.27,95.27,0,0,0-10.2,1.61c-5.38,1.41-8.6,8.77-5.86,14.57.66,1.39,3.6,1.78,5.56,2.41.29.09,1.38-1.06,1.36-1.61a3.29,3.29,0,0,0-1.23-2.15c-.47-.39-1.36-.26-2.07-.36.42-2.17,2-2.95,3.85-2A5.3,5.3,0,0,1,440,216c-.81,2.34-2.47,3.2-4.9,2.78-2.63-.46-5.09-1.08-6.93-3.34a2.88,2.88,0,0,0-2.8-.38c-1.53,1.06-3.44,2.38-3.9,4a18.09,18.09,0,0,0-.06,7.26c.91,6.84,1,6.83-1.34,12.75a2.77,2.77,0,0,0,.43.23c2.34-2.84,4.63-2.11,7.55-.58a6.19,6.19,0,0,0,8.49-2.56c.92-1.8,1.75-3.7,0-5.55s-3.31-1.2-5.07.51c.6-3.13,2.55-4.16,5.28-2.8,1.77.89,2.8.63,3.94-.79a9.49,9.49,0,0,1,8.26-3.92c1.53.09,2.06-.58,2.05-2.11a7.86,7.86,0,0,1,.74-3.38c1.41-2.84,2.78-2.92,4.57-.3,1.22,1.78,2.34,1.57,3.77.3,2.07-1.83,4.1-3.81,7.31-3.79-1.75,1.26-3.42,2.29-4.89,3.55-4.24,3.64-4.2,3.67-8.89.76-1,3.17-.07,5.9,1.4,8.54,1.18,2.12,3.44,3.59,3.34,6.53,0,.84,1.52,2.27,2.57,2.52,2.27.54,2.8,1.95,2.75,3.88,4.55.4,4.46.56,9.47,3.59s10.43,2.57,15.67.41a7,7,0,0,0,2.55-2.68c.74-1.12,1.05-2.54,1.82-3.63a41.33,41.33,0,0,0,6.1-11.05c1.44-4.37,6-6.92,10.92-7.41a6.32,6.32,0,0,1,6.26,2.9c-.3.2-.5.4-.58.36-5.61-2.8-9.52.46-13.21,3.91-.93.86-1.05,2.57-1.58,3.87a28.08,28.08,0,0,1-2.06,4.72c-1.37,2.1-3.51,3.8-4.5,6a9.87,9.87,0,0,1-8.82,6.22c-5.76.54-11.26-.15-15.79-4.28a4.68,4.68,0,0,0-5.3-.86c-.73.29-1.49.48-2.57.84a9.88,9.88,0,0,1,.21-2.13c.65-2-.08-3-1.9-3.83a7.56,7.56,0,0,1-2.85-2.39,38.92,38.92,0,0,1-4.79-7.46c-1.24-3-3.28-3-5.72-2.64-3.47.47-7.08,4.24-7.42,7.66-.63,6.43-5.13,9.58-11.4,7.77-2.27-.66-4.08-1.11-6.22.7-1,.86-3.27.42-4.93.27-.28,0-.87-2.09-.54-2.41,3.54-3.43,3.62-7.31,2.42-11.79a18.37,18.37,0,0,1-.1-7.57,7,7,0,0,1,6.05-5.89c2.12-.36,2.5-1.28,2.28-3.07-.71-6,3.76-10.8,7-12.18S442.7,196.58,446.46,197.79Z" style="fill:#fff;stroke:#fff;stroke-miterlimit:10;stroke-width:2px"/><path d="M510.45,394.77l-14.94-19.24c-.89-1.15-1.72-2.34-2.61-3.48-5-6.48-5.35-13.24-1.12-20.2.8-1.32,1.07-2.32.12-3.68-4.18-6-7.8-12.22-8.1-19.83,0-.49-1.14-1.28-1.8-1.35-2.17-.2-4.37,0-6.54-.2-7-.52-13.92-1-20.86-1.73a11.28,11.28,0,0,1-9.33-8.78c-.64-3.49-.69-7.1-1-11.12a10.55,10.55,0,0,0-3.35,0c-10.16,3-22.07-8.19-24.06-16.14-1.08-4.33-2.15-8.59-1-13.12.17-.7-.79-2.09-1.58-2.54a53.63,53.63,0,0,0-5.52-2.26c-5.94-2.51-10-6.67-11.74-13-1.56-5.73-2.76-11.49-.94-17.36a26.81,26.81,0,0,1,2.55-5c.19-.33.84-.39,1.28-.57.08.54.44,1.26.22,1.58-3,4.31-2.36,9.2-2.2,14a25.72,25.72,0,0,0,3.6,12.94c2.93,4.69,7.79,6.61,13,7.66,3.3.68,3.57.83,3.18,4.18-1.37,12,4.62,23.4,15,27.14,3.18,1.14,7.13.64,10.64.22,3.74-.44,3.62-.57,3.36,3.1-.66,9.16,1,15,9.23,16.95,5.76,1.38,11.79,1.72,17.73,2.18,3.23.25,6.51-.36,9.77-.29.81,0,2.24,1.11,2.29,1.79.59,8,4.29,14.65,8.75,21.05.63.91.49,2.69.13,3.89-.9,2.9-2.6,5.61-3.14,8.55-1.05,5.79,2.67,9.93,5.95,14,4.69,5.89,9.51,11.68,12.41,18.75C510.06,393.63,510.33,394.46,510.45,394.77Z" style="fill:#fff;stroke:#fff;stroke-miterlimit:10;stroke-width:2px"/><path d="M357.86,393.85c.25,2.24.31,4.17.7,6,1.66,7.82,5.74,14.43,10.77,20.46a101.93,101.93,0,0,0,20.81,19.07c5.78,4,12.54,5.53,19.18,7.3a8.09,8.09,0,0,1,5.56,4c3.39,5.84,8.68,8.69,15.63,8.36a7.44,7.44,0,0,1,4.73,1.32c14,11.72,30.31,14.8,47.92,13.67a5,5,0,0,1,3.12,1.2c2.7,2.19,5.86,2.23,9,2.08,2-.09,3.91-.74,5.89-.92.71-.06,1.49.5,2.23.77-.55.49-1,1.26-1.65,1.44-5.65,1.6-11.08,1.47-16.12-2.08a4.46,4.46,0,0,0-2.82-.5c-17.83,1.75-34-2.18-48-13.77a6.47,6.47,0,0,0-4.09-1.5c-7.68.46-13.26-2.67-17.32-9.11-.67-1.06-2.43-1.61-3.8-2-7.63-2.28-15.48-4.14-22.09-8.8C374.91,432,364,421.48,357.77,407a18.66,18.66,0,0,1-1.48-11.14,7.27,7.27,0,0,1,.42-1.27C356.77,394.41,357,394.36,357.86,393.85Z" style="fill:#fff;stroke:#fff;stroke-miterlimit:10;stroke-width:2px"/><path d="M448,269.82c7.33-5.29,15.67-5.44,23.61-6.92,3.72-.69,7.15-1.76,9.83-4.66a5.59,5.59,0,0,1,3.13-1.84c5-.46,7.4-4.17,9.06-7.93,1.3-2.95,2.77-5.23,5.65-6.51,2.69-1.2,3.79-3.13,4.63-6.06,2-6.8,4.14-8.83,10.69-8.05-3.07,1.05-5.73,2.6-7,5.7-.72,1.74-1.13,3.64-2,5.3a13.86,13.86,0,0,1-3,3.87c-1.13,1-2.77,1.4-3.95,2.35a6.74,6.74,0,0,0-2.41,3.11c-1.38,5.67-5.31,8.68-10.43,10.6-.58.22-1.34.31-1.69.73-3.71,4.5-8.73,5.54-14.22,6.08a113.26,113.26,0,0,0-15.46,2.84c-1.73.41-3.27,1.84-4.78,3-1.67,1.24-2.89,1.65-3.42-1-.32-1.61-1.35-1.84-3-2-2.25-.15-4.93-.52-6.55-1.85-2.77-2.28-5.76-2.77-9-3.07a23.7,23.7,0,0,1-4.49-.92,1.9,1.9,0,0,1-1.2-1.23c0-.39.61-1.05,1.1-1.25,4.77-2,7.62-5.41,7.77-10.71.17-6,7.59-9.85,12.82-8.69l1.87.39c5.13,1.08,6.67,4.69,3.85,9.11-1.17,1.82-3,1.9-4.85,1.47s-3.79-1.3-3.85-3.56a3.94,3.94,0,0,1,1.5-2.88c.68-.49,2-.1,3-.1l.43,1c-.36.12-.81.14-1,.38a17.33,17.33,0,0,0-1.31,1.75c.7.49,1.35,1.25,2.12,1.39a2.92,2.92,0,0,0,2.38-.63c1.42-1.7.33-4.8-1.77-5.53-6-2.06-11.68,1.15-12.45,7.35a14.16,14.16,0,0,1-6.73,10.87,25.84,25.84,0,0,0,3,.19,8.89,8.89,0,0,1,7.15,2.61c2,1.93,4.43,2.78,7.22,1.42,1.48-.72,2.39-.28,2.69,1.45A10.68,10.68,0,0,0,448,269.82Z" style="fill:#fff;stroke:#fff;stroke-miterlimit:10;stroke-width:2px"/><path d="M347.38,101.81c-.3,4.59-1,8.45-.71,12.25.53,7.66.8,15.45,5.35,22.2a2.75,2.75,0,0,1-.38,2.63c-4.14,3.78-5.51,8.9-6.66,14-2.65,11.65-.38,22.23,7.65,31.39a3.21,3.21,0,0,1,.3,2.52c-.7,2.75-2.13,5.42-2.31,8.19-1.26,18.8,7.64,32.6,22,43.56.73.55,1.38,1.22,2.07,1.83l-.44.84a10.42,10.42,0,0,1-2.94-1.11c-10.6-8.41-19.42-18.31-22.19-31.91-1.42-7-2.28-14.41,1.07-21.42a2.9,2.9,0,0,0-.55-2.57c-7.13-7.27-8.33-16.54-8.33-25.93a30.82,30.82,0,0,1,6.51-19.17,3.32,3.32,0,0,0,.25-2.81,54.68,54.68,0,0,1-4.76-25.38,22.8,22.8,0,0,1,1.47-6.31C345.17,103.63,346.3,102.94,347.38,101.81Z" style="fill:#fff;stroke:#fff;stroke-miterlimit:10;stroke-width:2px"/><path d="M443.62,333.73a10.45,10.45,0,0,1-2.18-.48c-5.92-2.66-10.47-6.68-12.91-12.88-.32-.8-1.32-1.93-2-1.92-14.9.24-22.49-9.66-29-20.89-2.31-4-3.81-8.39-3.35-13.25.08-.78-1.18-2-2.11-2.51-5.15-2.62-10-5.66-13.41-10.39A33.8,33.8,0,0,1,372.53,247a17,17,0,0,1,1.44-3.83l1,.16a17.11,17.11,0,0,1,0,2.68c-1.17,7.45.42,14.41,3.8,21,3.53,6.86,9.2,11.22,16.47,13.68.6.2,1.43,1.62,1.24,2-1.77,3.15-.38,6.15.59,8.94a43.38,43.38,0,0,0,16.13,21.05c2.39,1.73,5.86,2.08,8.91,2.79,2.54.59,5.19.68,7.75,1.21.52.1,1.35,1.4,1.19,1.76-1.06,2.3,0,4,1.53,5.34,3,2.73,6.2,5.27,9.32,7.87.64.53,1.34,1,2,1.48Z" style="fill:#fff;stroke:#fff;stroke-miterlimit:10;stroke-width:2px"/><path d="M32.49,84.75c3.5,8,6.72,16.15,10.56,24,9.26,19,24.77,31.3,43.6,39.92,2.78,1.28,5.66,2.36,8.42,3.71.77.38,1.25,1.37,1.86,2.08-.92.41-1.88,1.24-2.77,1.18-8.14-.59-16.27-1.32-24.4-2-3.6-.32-7.19-.69-10.78-1.13-.57-.07-1.09-.63-1.63-1,.54-.33,1.11-1,1.61-.92,4.59.4,9.17.95,13.75,1.4q8.52.86,17.06,1.59a4.26,4.26,0,0,0,2.38-.58c-14.38-6.87-28.92-13.47-39.37-25.88A92.57,92.57,0,0,1,32.49,84.75Z" style="fill:#fff;stroke:#fff;stroke-miterlimit:10;stroke-width:2px"/><path d="M451,291.36c2.48,1.13,4.43,2.41,4.47,5.51,0,1.16,1.24,2.55,2.26,3.4a33.91,33.91,0,0,0,4.86,2.89c2.37-2.19,5.53-2.57,8.85-2.59,1,0,2.68-.57,2.92-1.26.32-.93-.36-2.27-.78-3.37-.32-.83-1.22-1.52-1.29-2.32a3.34,3.34,0,0,1,.89-2.57c.6-.49,1.78-.29,2.7-.39l.11.83-3,1.08c1.05,1.05,1.72,2.29,2.55,2.4,1.08.15,2.95-.28,3.29-1a10.75,10.75,0,0,0,1.11-5.59,116,116,0,0,0-2.5-12.19,2.24,2.24,0,0,0-1.79-1.24c-4.5.46-9.1.66-13.44,1.81-3.12.83-6,2.84-8.73,4.66-.74.49-1,2.27-.84,3.38.08.65,1.34,1.55,2.12,1.6s1.89-.66,2.83-1.05l-.18-.72L455,283.54l-.25-.75c.81-.35,1.71-1.13,2.4-1a4.12,4.12,0,0,1,2.67,1.82,3.63,3.63,0,0,1-.62,3.15c-1.84,2.06-6.22,1.94-7.93,0-2.06-2.28-1.68-5.42,1.09-7.61a21.85,21.85,0,0,1,14-4.54c7.27.09,13.74-1.48,19-6.91l.41.67c-.93,1.06-1.67,2.4-2.81,3.13-4.7,3-4,7.22-2.86,11.6.57,2.19,1.37,4.33,1.73,6.55.54,3.33-.75,5.25-3.67,6.79a4.36,4.36,0,0,0-2.07,2.52c-.5,2.18-1.76,3-3.8,3.18-1.44.15-2.85.56-4.29.74-2.58.32-4.1,1.58-4.49,4.27-.12.82-.95,1.54-1.45,2.31a10,10,0,0,1-1.15-2.16,7.51,7.51,0,0,0-4.37-5.5,7.87,7.87,0,0,1-3.09-3.44c-.6-1.13-.37-2.67-.8-3.93A19.44,19.44,0,0,0,451,291.36Z" style="fill:#fff;stroke:#fff;stroke-miterlimit:10;stroke-width:2px"/><path d="M482.43,223.93c-.89.25-1.45.46-2,.56s-1.25.1-1.88.14c.09-.75,0-2,.29-2.16,1.43-.56,3.11-1.29,4.47-1,1,.23,2.15,2,2.23,3.14.33,4.65-4.14,8-8.83,6.77-3.06-.76-3.06-.76-5.64,1,1.64-3.35-.65-5.13-1.8-7.46-1.84-3.69,2.67-10.09,7-10.31,4.16-.22,8.39-.57,11.92,2.52.34.29,1.5,0,2.06-.35,7.64-5,15.9-7,24.84-4.81,2.79.68,5.33,2.42,8,3.67l-.33.7c-2.44-1-4.81-2.38-7.35-2.91-8.94-1.87-16.75,1.08-23.9,6.25-.81.58-1.37,1.68-2.22,1.95a3.83,3.83,0,0,1-2.5-.79c-.33-.2-.2-1-.45-1.51-1.29-2.3-8.25-2.85-11.71-.94-2.17,1.19-2.74,4.83-1.19,7.56a6.6,6.6,0,0,0,6.29,2.93C481.32,228.57,481.89,227.61,482.43,223.93Z" style="fill:#fff;stroke:#fff;stroke-miterlimit:10;stroke-width:2px"/><path d="M392.52,361.44c-2.42,1.21-4.84,3-5.24,7,5.82,0,11.47,0,17.11.05a7.17,7.17,0,0,1,3,1c2.11,1.07,5.54-.17,8.33-3.07,1.66-1.73,1.13-3.48.09-5.2a2.72,2.72,0,0,0-1.31-1.27,10.14,10.14,0,0,0-3.11-.26c-.19,0-.57,1.27-.47,1.33a19.48,19.48,0,0,0,2.47,1.21l.92.42-.09.88c-1.45-.15-3.18.13-4.26-.58a3.63,3.63,0,0,1-.93-3.49,5.19,5.19,0,0,1,3.51-2.2c3.54-.4,5.55,1,6.56,4.69.63,2.31,1.86,3.11,4.05,3,1.36-.07,2.73-.05,4.08-.16s2.63-.33,3.95-.5l.28.78c-1.21.43-2.46,1.33-3.61,1.22-5.53-.54-10.31.68-14.59,4.47a5.64,5.64,0,0,1-7.12.29,2.68,2.68,0,0,0-1.25-.48c-4.56-.21-9.13-.48-13.7-.51a37,37,0,0,0-5.25.84,3.77,3.77,0,0,1-2-.17c-.2-.1-.19-1.23.07-1.68,1.6-2.71,3.36-5.32,4.93-8a8.87,8.87,0,0,0,.64-2.73,6.68,6.68,0,0,1,1.1-3Z" style="fill:#fff;stroke:#fff;stroke-miterlimit:10;stroke-width:2px"/><path d="M482,168.69a27.86,27.86,0,0,1,12.14,2.37,32,32,0,0,1,14.75,12.79c1.35,2.23,4,3.8,6.33,5.28,5.63,3.59,11.53,6.77,17.09,10.47,3.56,2.37,5.58,6.14,6.89,10.18.22.66-.39,1.59-.61,2.4-.62-.36-1.63-.58-1.8-1.09-2.61-7.65-9-11.55-15.27-15.59-3.87-2.51-7.92-4.73-11.79-7.24a8.72,8.72,0,0,1-3.14-3.22c-3.77-7.84-10.48-11.72-18.39-14-2.09-.61-4.24-1-6.37-1.56Z" style="fill:#fff;stroke:#fff;stroke-miterlimit:10;stroke-width:2px"/><path d="M136.05,220.56C111.87,213.5,93,198.4,76.17,180.18c-7.06-7.65-16.26-22.62-16-26.32C77.78,185.44,103.09,207.35,136.05,220.56Z" style="fill:#fff;stroke:#fff;stroke-miterlimit:10;stroke-width:2px"/><path d="M393.64,221l9.6,2.23a39.49,39.49,0,0,1,2.31-5.63c.21-.36,1.83.09,3.11.2a14.79,14.79,0,0,0-2.26,2.8c-.13.31.73,1.49,1.16,1.5a6.07,6.07,0,0,0,3.48-.68,7.16,7.16,0,0,0,2-3.15c1.31-3.27,2.35-6.65,3.79-9.86.36-.8,1.86-1.09,3.11-1.21-3.68,3.24-4.09,7.72-5.15,11.83-1.1,4.3-4.34,6.2-8.69,5.26a126.37,126.37,0,0,0-13-1.8c-1.66-.19-2.35-.38-1.93-2.45.89-4.35,1.36-8.79,1.9-13.21.25-2.05,2.35-4.91,4.73-5a22.64,22.64,0,0,1,8.49.91c2.91,1,5.47,3,8,5.08-2.45-1-4.84-2.17-7.35-3a25,25,0,0,0-7-1.57c-1.39,0-3,1.13-4.16,2.09-.5.39-.27,1.69-.37,2.57.92-.09,1.85-.11,2.76-.29a21.8,21.8,0,0,0,2.3-.72c-.38,1-.5,2.28-1.2,2.92a3.48,3.48,0,0,1-2.8.4c-2.28-.63-2.76.47-2.75,2.35C393.65,215.34,393.64,218.11,393.64,221Z" style="fill:#fff;stroke:#fff;stroke-miterlimit:10;stroke-width:2px"/><path d="M446.66,280.11c-2.1,1.71-1.94,4.35-1.55,7.25.3,2.23-2.27,4.27-4.74,4.19-2.22-.06-3.64-1.17-3.69-3.47,0-.79.33-2,.88-2.29.85-.39,2-.1,3-.1l.06.94-2.76,1.47c1.06.81,1.9,1.93,2.53,1.82a4.22,4.22,0,0,0,2.76-1.83c2.12-4.12-.56-9.78-5-10.87a4,4,0,0,0-2.32.19,1.9,1.9,0,0,0-.94,1.46c0,.39.77.78,1.23,1.12.62.45,1.27.86,1.9,1.29-.72.44-1.52,1.34-2.13,1.22-3.25-.62-4.22,1-4.43,3.83a41.1,41.1,0,0,1-1.08,5.08l-3.6-1.16c2-3.33,3.82-6.23,5.56-9.16a2.64,2.64,0,0,0,.19-1.3c0-4.24,3.13-6.16,7-4.17.87.45,1.57,1.23,2.41,1.75C443.41,278.29,445,279.13,446.66,280.11Z" style="fill:#fff;stroke:#fff;stroke-miterlimit:10;stroke-width:2px"/><path d="M408.1,258.43a22.74,22.74,0,0,0,3.2-1.35c.56-.35.72-1.37,1.29-1.69a19.16,19.16,0,0,1,3.22-1.13,10.36,10.36,0,0,1-1.17,2.54c-2.83,3.37-5,3.88-8.32,2.3-1.52-.72-1.49-1.34-.49-2.63a25.94,25.94,0,0,0,3.45-5.64c1-2.33,2.14-4.09,4.94-4.31,2.6-.2,4.88,0,6.21,2.68a10.25,10.25,0,0,0,1.62,1.88c-1.82,1.25-2.93.47-4-.86-2.06-2.62-4.85-2.44-6.46.41-1.32,2.34-2.57,4.71-3.85,7.06Z" style="fill:#fff;stroke:#fff;stroke-miterlimit:10;stroke-width:2px"/><path d="M420.11,172.58c1.2.3,2.44.43,2.45.63.1,1.77.45,3.75-.18,5.29-.74,1.82-2.51,1.29-3.94.31-2.54-1.74-3.77-4.58-2.89-6.71,1-2.36,4.84-4.23,7.58-3.66a3.5,3.5,0,0,1,1.29.42c4,2.71,8,5.25,13.12,4.87.08,0,.18.27.27.41-3,1.19-7.54.33-9.67-1.83-2.95-3-6.07-3.43-9.21-1a3.66,3.66,0,0,0-1.32,2.9c.24,1.19,1.37,2.19,2.12,3.27.61-.63,1.59-1.2,1.71-1.92S420.79,174,420.11,172.58Z" style="fill:#fff;stroke:#fff;stroke-miterlimit:10;stroke-width:2px"/><path d="M529.23,206.23l-14.48-6.16.42-.84C520.46,200.09,525.24,202,529.23,206.23Z" style="fill:#fff;stroke:#fff;stroke-miterlimit:10;stroke-width:2px"/><path d="M500.63,171.49c-2.75-2.16-5.78-2.91-7.52-5.91C496.39,165.55,500.41,168.45,500.63,171.49Z" style="fill:#fff;stroke:#fff;stroke-miterlimit:10;stroke-width:2px"/><path d="M441.5,185.64h-9.28C434.4,182.77,438.27,182.84,441.5,185.64Z" style="fill:#fff;stroke:#fff;stroke-miterlimit:10;stroke-width:2px"/><path d="M502.76,184l-10.44-1.38C494.62,180.88,499.59,181.57,502.76,184Z" style="fill:#fff;stroke:#fff;stroke-miterlimit:10;stroke-width:2px"/><path d="M431.65,181.72c2.82-2.29,5.11-1.25,7.42,0Z" style="fill:#fff;stroke:#fff;stroke-miterlimit:10;stroke-width:2px"/><path d="M367.4,291.26l-6.16,1.82-.22-.7,6.1-2Z" style="fill:#fff;stroke:#fff;stroke-miterlimit:10;stroke-width:2px"/><path d="M260.91,199.19c-8,.74-15.27-3.38-18.34-10.31a6.2,6.2,0,0,0-3.56-3.35c-5.41-2.47-11-4.57-15-9.45-1.12-1.35-3.72-1.52-5.67-2.12-6.31-1.93-12.65-3.77-18.94-5.77-.67-.21-1.07-1.24-1.6-1.89.71-.24,1.46-.76,2.12-.67,5.72.75,10.34-1.47,14.91-4.64,3.54-2.46,7.4-5,11.47-5.94,3.77-.84,7.72-.39,10.45-3.87.18-.23.82-.11,1.25-.15-1.66,2.31-3.16,4.59-4.89,6.68-.39.47-2,.71-2.27.39-1.49-1.73-3.14-1.35-4.68-.49-3.24,1.81-6.35,3.85-9.55,5.73-2.48,1.46-5,2.82-7.54,4.25a23,23,0,0,0-2,1.57c4.21,1.17,7.78,2.46,11.46,3.11a18.12,18.12,0,0,1,9,4.31c3.86,3.24,8.83,5.13,13.24,7.76a8.23,8.23,0,0,1,3,3c3.32,6.45,8.64,10,15.59,11.52Z" style="fill:#fff;stroke:#fff;stroke-miterlimit:10;stroke-width:2px"/><path d="M267.11,201.07c-2.9-2.2-3-2.94-1.29-6,2.57-4.5,7.7-5.46,10.58-2,1.52,1.84,1.42,4.53-.38,5.5-.6.32-1.59-.08-2.4-.14.25-.61.54-1.2.74-1.82s.66-2.09.49-2.18c-1.2-.63-2.64-1.56-3.8-1.33C267.8,193.76,266.45,196.66,267.11,201.07Z" style="fill:#fff;stroke:#fff;stroke-miterlimit:10;stroke-width:2px"/><path d="M307,167.2l-7-.32,0-.76h7Z" style="fill:#fff;stroke:#fff;stroke-miterlimit:10;stroke-width:2px"/><path d="M324.08,223.2l-6.59,1.38-.21-.83,6.39-2C323.8,222.23,323.94,222.72,324.08,223.2Z" style="fill:#fff;stroke:#fff;stroke-miterlimit:10;stroke-width:2px"/></g></g></svg>