<svg xmlns="http://www.w3.org/2000/svg" viewBox="0 0 575.38 481.69"><g id="Layer_2" data-name="Layer 2"><g id="Layer_1-2" data-name="Layer 1"><g id="Layer_1-2-2" data-name="Layer 1-2"><path d="M292.78,307.89c6.44-.18,10.25,4.08,14.69,7.08a17.13,17.13,0,0,0,11.95,2.58,2,2,0,0,0,1-.3c3.41-3.06,5.19-.64,7.64,1.73,6.69,6.47,5.8,6.25,14.46,2.29,7.42-3.39,15.09-6.21,22.53-9.54,5.79-2.58,11.41-5.56,17.1-8.35.29-.14.64-.14,1.35.35a21.65,21.65,0,0,1-3.41,2.68c-6.42,3.18-12.89,6.26-19.37,9.3-4.93,2.32-9.83,4.69-14.87,6.72-3.18,1.28-3.43,3.83-2.31,6.47a9.73,9.73,0,0,0,3.63,3.87,3.62,3.62,0,0,0,3.27,0c.83-.53,1.07-2,1.69-3.24l-3.56-.54c0-2,1.24-2.61,2.64-2.3,1.14.25,2.72,1,3,1.94,1.16,3.11-2.44,7.52-5.65,6.9-2.1-.41-3.41.17-3.7,2-.22,1.39.46,2.95.87,4.41.1.34.76.49,1,.84a15.56,15.56,0,0,1,1,1.73,6.19,6.19,0,0,1-1.78.89c-2.76.4-5.07,1.34-6.1,4.4,5.14,3.11,10.3,5.88,16.56,5.28,3-.28,5.71-1.34,7.38-4,1.24-2,2.22-1.91,3.77-.3,2.12,2.22,8.81,2.23,10.43-.3,1-1.57,1.5-4.45.7-5.93-1.17-2.14-3.85-1.63-6.78-.48l4.54,2.08a4.21,4.21,0,0,1-5.2,0c-.65-.54-1.4-2-1.15-2.38.86-1.15,2-2.54,3.32-2.81,3.18-.7,6.2-.4,8.57,2.58,2.14,2.67,5.64,2.53,8.61,2.52s5.88-1.06,8.79-1.77c4.24-1,6.86-4.25,9.49-7.39a77.17,77.17,0,0,1,6.15-7c-.47.84-.93,1.69-1.43,2.52-5.8,9.7-14.51,16.29-23.65,22.55-8.14,5.56-16.39,10.7-25.95,13.53-3.07.9-3.21,1.75-1.46,4.53,2.81,4.46,7.12,7.17,11.6,9.65a7.23,7.23,0,0,1,2.62,2,20.28,20.28,0,0,1-2.43-.54c-6.25-2.3-11.92-5.26-15.3-11.51-.58-1.06-3.17-1.91-4.47-1.54-5.82,1.65-11.14-.31-16.56-1.65-10.16-2.5-17-9.88-23.88-16.95-3.46-3.56-6-8-9.17-12.42-4.94,1.91-10.6,4.09-16.24,6.3-2,.78-1.09,1.93-.26,3a73.35,73.35,0,0,0,15.56,14.49,132.64,132.64,0,0,0,28.78,15.3,39.48,39.48,0,0,0,11.88,2.81c3.76.16,7.68-.95,11.38-2,1.92-.56,3-.45,4.18,1.09,1.84,2.37,3.75,4.68,5.77,6.9a20.74,20.74,0,0,0,15.14,6.22,11.14,11.14,0,0,1-3.15,1c-5.44,0-10.17-1.81-13.62-6.21-2.11-2.71-4.13-5.49-6.29-8.38-7,5.37-14.23,3.44-21.56,1.18-3.18-1-6.49-1.59-9.71-2.45a14.41,14.41,0,0,1-3.81-1.45c-8.41-5.19-17-10.16-25-15.86-4.24-3-7.64-7.22-11.19-11.09-1.5-1.62-3-2.47-5-1.64-6.84,2.85-13.64,5.83-20.45,8.78a9.55,9.55,0,0,0-1.57,1.12c1,.9,1.81,1.69,2.68,2.45,12.64,11.2,27,19.33,42.78,25.52,12.45,4.89,25.16,6.62,38.33,6.73,4.49,0,8.92.17,13-2,2.6-1.41,4.09-.19,5.58,1.93a52.65,52.65,0,0,0,5.26,6.11,6.69,6.69,0,0,0,7,1.66c2-.55,3,.14,4.08,2,5.73,10.32,14.28,16.18,26.47,15.68,1.9-.08,3,.37,3.91,2.09,2,3.93,5.73,5.71,9.55,7.22,7.15,2.83,14.13,6.43,22.17,5.82a11.22,11.22,0,0,0,4.92-1.26c1.72-1.09,2.94-.79,4.48.11a27.63,27.63,0,0,0,18.31,3.87c1.08-.15,2.13-.55,4-1-7.87-5.18-12.34-12.28-17.21-19-8.94-12.39-8.75-25.28-1.74-38.36,3.13-5.88,5.51-11.93,4.52-18.67-.58-4-2-7.79-3-11.54a13.24,13.24,0,0,1,1.52,1.89c5.21,8.61,4.72,17.33.62,26.21A105.55,105.55,0,0,0,452,389.1c-2.8,9-1,17.39,4.47,25,3.45,4.78,7,9.54,10.77,14,2,2.32,4.71,4,6.93,6.09a3.92,3.92,0,0,1,1.26,2.93c-.12.64-1.63,1.31-2.6,1.47-8,1.32-15.75,1.13-22.83-3.56a3.57,3.57,0,0,0-2.76-.64c-6.86,2.86-13.62,1.72-20.21-.65a107.77,107.77,0,0,1-13.86-6.25c-2.16-1.14-3.75-3.29-5.71-4.82a4.87,4.87,0,0,0-2.92-1.19c-11.09.62-19.36-4.36-26-12.76a22.2,22.2,0,0,1-1.5-2.58c-1.21-2.05-2-4.77-5.38-2.39-.53.37-2-.11-2.76-.57-3.33-2-6.3-4.39-7.91-8-.82-1.81-1.85-1.76-3.46-1.28-8.51,2.55-17,5.26-25.59,7.42a51.55,51.55,0,0,1-19.52,1.05c-5.3-.73-10.68-1.13-15.88-2.3-4.26-1-8.32-2.87-12.87-4.5,2.53-4.46,7.66-3.81,11.31-6.71a20.14,20.14,0,0,0-3.08-1.09c-6.78-1.23-13.63-2.13-20.32-3.66a94.38,94.38,0,0,1-30.66-12.95c-1.67-1.09-3.24-2.37-5-3.31-1-.55-2.33-.6-3.85-1.47l10.51-4.77c-17.69-2.28-34.12-5.63-46.85-18l.06-1,17.5-4.06c-17.33-4.8-31.41-15.41-47-25.4l28.34-7.6.27-.65c-22.27-.67-41.55-8-57.39-24.87l21.85-3.84v-1c-1.1-.51-2.24-1-3.31-1.54-12.89-6.69-25.88-13.22-36.85-23-6.54-5.81-10.49-13.37-14.45-20.94a8.08,8.08,0,0,1-.3-1.38c5.3,7,9.66,14.44,15.59,20.24s13.25,10.42,20.38,14.88S155.16,272,163.83,274c-9.25-15.13-15.93-30.88-14.17-49.32l-41.07,3-.1-1,39.35-4.29c-10.18-6.39-16.7-15.81-24.12-24.3-8.2-9.36-13.49-20.57-18.84-31.71-3.86-8.07-8-16-9.85-24.84-2.23-10.51-2.79-21,.74-31.34,1.7-5,3.24-10.09,5-15.48-24-5.69-48.09-11-71.13-20.19,16.71,2.79,32.69,8.63,49.47,12C40.66,69.92,14.22,42.61,1.65,2.69l.58-.88C5.55,3,8.82,4.08,12.05,5.35c17.54,6.86,35,14.15,52.74,20.57C88.56,34.53,112.22,43.53,136.7,50c13.93,3.68,27.93,7.12,41.89,10.66,11.85,3,23.69,6.09,35.57,9,10,2.44,20.13,4.67,30.19,7,9.19,2.11,18.37,4.26,27.56,6.29,7.88,1.75,15.79,3.31,23.67,5s15.55,3.54,23.33,5.25,15.78,3.38,23.66,5.08c9.74,2.09,19.5,4.1,29.22,6.3s19.43,4.41,29,6.91c25.43,6.6,51.09,12.61,74.31,25.53,8.79,4.89,17,10.81,25.4,16.36a21.49,21.49,0,0,1,3.32,3.42l-.6.68a16,16,0,0,1-1.46-.82,188.54,188.54,0,0,0-56.5-29.31c-12.09-3.78-24.25-7.36-36.38-11-.43-.13-.89-.17-1.33-.26-4.47-.88-5-.51-4,4,1.13,4.84,3.4,9,8.8,10.44a4.86,4.86,0,0,1,3.94,4.19c.39,1.82,2.54,3.35,4.1,4.79.28.26,1.89-.38,2.37-1,1.77-2.25,2.83-5.08,6-5.92,2.8-.72,7.19,1.15,8.64,3.89a5.39,5.39,0,0,1-1.4,7.08c-2.13,1.61-4.5.69-5.24-2,.13-.11.29-.32.41-.3,1.37.17,3.19,1,3.51-1.09.16-1-.69-2.94-1.55-3.27-1.46-.57-4-.94-4.84-.12-4.52,4.66-6,10.62-.39,16.31,2.68,2.71,5.46,5.32,8.14,8.05,5.26,5.36,7.64,12,9.34,19.23,1.58,6.67,4.21,13.2,9.23,18.19,1.7,1.7,4.28,2.67,6.64,3.53a3.35,3.35,0,0,0,3-1.36c1.16-2.42,2.19-1.53,3.47-.31a17,17,0,0,0,7.88,4.71v-3.86c.13-3.61,2.13-5.89,5.37-7.13,3-1.16,6-1.28,8.74.88a5.29,5.29,0,0,1,1.91,6.1,6.49,6.49,0,0,1-3.19,3.24c-.88.41-2.46-.18-3.47-.76-.56-.32-.59-1.55-.87-2.39a8.68,8.68,0,0,1,1-.27l3.5-.2c-.09-.76.11-1.87-.32-2.21-1-.86-2.43-2-3.62-1.89a6.2,6.2,0,0,0-6,6c.08,4.49,2.29,7.1,6.56,7a20.66,20.66,0,0,0,8-1.77c9.24-4.49,18.65-5.41,28.2-1.69,3,1.16,5.47,3.6,8.19,5.45l-.55.9a6.13,6.13,0,0,1-1.25-.49c-10.46-7.83-21.37-7.48-32.5-1.94-4.94,2.44-9.88,3.56-15.17,1.3-.66-.29-1.52-.59-1.82-1.14-2.51-4.64-8.37-4.44-11.6-8-.28-.32-1.19-.26-1.74-.12-4.91,1.22-11.55-1.18-14.42-5.26-1.9-2.72-6.85-4.21-10-3.05a16.61,16.61,0,0,1-2.1.55,41,41,0,0,0-10.72,3.45,24.31,24.31,0,0,1-16,1.9c-2.84-.57-5.62-2.94-7.77-5.14-4.08-4.16-8.35-7.67-14.1-9.3-4.49-1.27-4.43-1.48-.81-4.65a5.46,5.46,0,0,1,2-1.42c2.93-.68,2.71-2.65,2.18-4.81A23.35,23.35,0,0,1,396,155.9c2.94-4.78,3.38-10.08,3.29-15.48a17.72,17.72,0,0,0-.79-3.29,6.89,6.89,0,0,1,2.35.28,17.25,17.25,0,0,1,6.87,6c.91,1.48,3.42,2,5.21,3,2.05,1.11,4.35,1.94,6.08,3.44a10,10,0,0,1,2,12.83,20.55,20.55,0,0,1-3.37,4.24c-3.52,3.48-5.77,3.66-9.87.89-5.22-3.53-4.23-7.16-.54-11.35a4.06,4.06,0,0,1,3.87-.46,5.57,5.57,0,0,1,2.48,3.49c.39,1.89-1.47,2.66-3.5,1.49a5.38,5.38,0,0,0,.41-.92c.17-.64.27-1.29.4-1.93-.81,0-1.86-.3-2.39.1a4.75,4.75,0,0,0-.88,6.68l.05.07c2.6,2.75,5.26,3.07,7.54.73,2-2.08,4-4.25,4.18-7.41.23-4.13-2.15-7.54-6.35-9.11a24.28,24.28,0,0,1-4.55-1.74,15.59,15.59,0,0,1-3.26-3.33c-1.17-1.4-2.21-2.9-3.31-4.35l-.87.33c-.11,1.11-.34,2.22-.34,3.33a28.19,28.19,0,0,1-3.31,14.13c-3.38,6.09-3,12.57-1.76,19.08.43,2.3,2.18,2.9,4.25,1.68,3-1.79,5.69-1.41,8.18.9A53.62,53.62,0,0,0,413,183c1.25.91,2.89,1.55,2.36,3.69-5.08-2.62-5.08-2.62-7.93-1.29l3.71,3.29-.23.72c-1.26-.48-3.05-.61-3.67-1.53a6.32,6.32,0,0,1-.72-4.4c.51-2.42-.53-4.26-3-4a3,3,0,0,0-2.22,1.7c-.5,2.75-1.46,1.78-2.77.64-2.95-2.57-5.87-2.18-8.09,1.15a7.35,7.35,0,0,0,1.69,1.16,25.22,25.22,0,0,1,12.25,8.3c4.88,6.08,11.09,6.2,17.73,4.63,2.68-.64,5.17-2,7.77-3a21.21,21.21,0,0,1,3.89-1.16,40.44,40.44,0,0,1,7-.85,23.89,23.89,0,0,1,5.42,1.08,10.48,10.48,0,0,1,1.85.81c.17-.43.34-.63.3-.75-3.11-8-6-16.19-9.44-24.07A31.7,31.7,0,0,0,428.06,156a14.65,14.65,0,0,1-6.43-10.59c-.14-1.12-1.27-2.17-2.07-3.16q-2.76-3.42-5.64-6.75a9.34,9.34,0,0,0-2.58-2.51,15.25,15.25,0,0,1-9.07-13.2c-.41-4.67-1.27-5.51-5.87-6.47-4.95-1-9.84-2.33-14.8-3.51-3.89,8.68-3,17.2,0,25.55,1.51,4.1,3.94,7.87,5.88,11.82a11.81,11.81,0,0,1,.63,2.49,11.62,11.62,0,0,1-2.28.25c-5-.48-10,3.54-10.58,8.4-.82,7.48,1.54,14.35,4.39,21a117.87,117.87,0,0,0,6.51,11.87c.83,1.46.81,2.6-.75,3.4-7.73,4-6.48,10.88-5.84,17.6,1,10.66,8.41,16.35,16.68,21.39a3.12,3.12,0,0,1,1.39,1.46,16.51,16.51,0,0,1-2.66-.86c-9.43-4.83-16.66-11.41-17.55-22.76a84.21,84.21,0,0,1-.23-9.79c.15-3.69,2.38-6.24,5.45-8,1.81-1,1.84-1.9.64-3.38-5.29-6.6-7.75-14.44-9.59-22.51a30.73,30.73,0,0,1-.9-6.17c-.17-7.46,1.93-10.48,8.87-13.22,1-.39,1.94-.85,2.33-1-2.11-5.78-4.54-11.16-6-16.79-1.6-6.28-1.7-12.79,1-19,.94-2.16.08-2.75-1.8-3.11-5.45-1-5.86-1.06-5.84,4.32A122.76,122.76,0,0,0,372.93,130c.56,3.83,1.93,7.52,2.8,11.31a2.35,2.35,0,0,1-.71,2c-9.18,6.67-10.39,18.3-6.73,27.42a59.89,59.89,0,0,0,5.81,10.63c2.43,3.67,2.64,4.86-.39,8.27a14.05,14.05,0,0,0-3.93,9.62,147.31,147.31,0,0,0,1.33,16.24c.72,5.64,3.89,10.13,8,13.86a105.35,105.35,0,0,0,9,7c3,2.19,3.41,3,2.34,6.46-4.21,13.4,4.26,27.44,17.12,31.92,2.08.72,2.75,1.32,2.44,4-1.14,9.48,3.13,21.93,11.88,27.31,5.71,3.5,11.5,6.2,18.39,5.48,1.46-.15,2,.49,1.86,1.91-.44,6,1.44,11,7,14.27-2.85.31-5.82-1.62-7.19-5.07-1-2.41-1.26-5.07-2-7.56-.25-.79-1.13-2-1.68-2-13,.6-21.32-5.86-26.61-17.24a32.11,32.11,0,0,1-3.12-17.14,2.92,2.92,0,0,0-1.52-2.29c-10.85-4.27-17.73-12-19.66-23.44-.61-3.62.68-7.67,1.59-11.41.41-1.7.63-2.4-1.13-3.33-11.27-6-17.53-15.38-18.9-28-.38-3.42-.68-6.86-.84-10.29a15.55,15.55,0,0,1,6.15-13.5c-2.21-3.73-4.58-7.37-6.57-11.21-3.08-5.92-4.55-12.27-3.46-18.93.8-4.88,2.47-9.64,6.63-12.68,2.36-1.71,2.31-3.27,1.66-5.67-2.29-8.32-3.86-16.76-3.42-25.45a12.64,12.64,0,0,1,.13-1.63c.68-4.29.67-4.19-3.64-5.11-11.25-2.42-22.48-4.94-33.7-7.4q-11.31-2.49-22.59-4.87a15.06,15.06,0,0,0-2.6-.14c-2.21,10.24-2.73,20.3,1.1,29.89,2.3,5.73,5.87,11,9.17,16.28,1.25,2,1.82,2.82-.68,4.34-3.54,2.15-3.81,6.28-4.14,9.93-1.35,15.27,4.07,28.41,13.18,40.34a3.92,3.92,0,0,1,.82,3.08c-2,5-1.57,10-.48,15,1.17,5.29,2.86,10.46,4.34,15.67a8.88,8.88,0,0,0,.92,2.26c5.17,8,10.43,16,19.72,20a17.9,17.9,0,0,1,3.54,2c3.18,2.3,2.8,2.23,1.66,6.07a11.51,11.51,0,0,0,.17,7.4c5.5,12.46,12.43,24,25.32,30.2,4.52,2.17,6.78,4.95,8.79,9.67,4,9.41,10.8,16.76,21.75,18.71a2.64,2.64,0,0,0,1.08.13c4.11-1.27,5.33,1.25,6.4,4.49,1.35,4.14,4.44,7,8,9.39a25.3,25.3,0,0,1,3.32,2.53c-6.19-2.07-11-5.77-13.6-11.89a3.6,3.6,0,0,0-3.62-2.47c-6-.44-11.13-3.05-15.72-6.82L396,318.08l-6.56,4.67-.28-.42a47.39,47.39,0,0,0,4-4.72,3,3,0,0,0-.09-2.75c-3.07-4-5.89-8-6.47-13.27-.09-.8-1.24-1.73-2.11-2.17-7.1-3.57-13.93-7.48-19-13.79a2.57,2.57,0,0,0-3.46-1c-4.06,1.57-8.23,2.87-12.35,4.26a8.82,8.82,0,0,1-1.25.21l-.29-.75,14.23-6.27c-.91-3-2.7-1.93-4.49-1.27a20.39,20.39,0,0,1-5.5,1.28,43.91,43.91,0,0,1,4.84-2.33c2.68-.94,2.51-2.27,1.37-4.5a98.32,98.32,0,0,1-4.8-11.17c-.49-1.35-.09-3-.14-4.53a19.17,19.17,0,0,0-.25-2,8,8,0,0,0-2,.38c-8.34,3.79-16.6,7.76-25,11.39-4.81,2.08-9.83,3.71-14.8,5.39-3.53,1.2-4.91,2.9-4.9,6.58,0,4.27,1.54,6.51,5.26,7.53,1.31.36,2.67.57,4,.84a3.4,3.4,0,0,0,4.22-2.29c0-.06,0-.12.05-.17a3.49,3.49,0,0,0-.68-3c-1.47-1.26-3.31-2-5-.11a3.44,3.44,0,0,1-.86.37c-1.6-1.82-.53-3,1-3.78,2.25-1.12,7,.54,8.28,2.71s.12,6.14-2.23,7.75c-2.52,1.72-5.09.31-7.65,0-1.27-.14-3.42-.69-3.65-.26a22.78,22.78,0,0,0-1.71,5.71,8.57,8.57,0,0,0,.09,2.26,13.83,13.83,0,0,1-2.22-.33c-2-.7-4-.77-5.6.78C297.31,301.75,294.49,304,292.78,307.89ZM181.59,116.11l-.15.78a3.34,3.34,0,0,0,.87.48c2.16.44,3.1.84,1.19,3.21-2.3,2.86-4.68,6.07-5.62,9.51-1.36,5-1.6,10.33-2.07,15.54a77.34,77.34,0,0,0-.34,11.69c.29,5,.44,10.21,1.78,15,4.25,15.15,13,27.19,25.75,36.66,5.7,4.22,11.16,5.56,17.92,4.27,7.92-1.51,16-2.4,23.91-3.73,5.9-1,11.75-2.2,17.6-3.39,3.35-.69,6.65-1.62,10-2.3,2.82-.58,5.71-.85,8.53-1.43,6.47-1.35,12.89-2.91,19.38-4.17,4.27-.82,8.62-1.2,12.91-1.91,2.81-.45,5.57-1.13,8.36-1.71L311.6,175H291.87c6.14-1.95,12.54-2.25,19.3-2-.52-3.29-.92-6.3-1.55-9.27-.12-.53-1.13-1.09-1.82-1.26-3.25-.81-6.59-1.32-9.79-2.26-3.74-1.11-7.39-2.55-11.07-3.85l.25-.72,22,4.59c.21-6.33,0-12.36,4-17.59-4.5-1.4-8.6-2.86-12.8-3.93-6.75-1.71-13.54-3.35-20.38-4.66-4.57-.87-8.89-2.71-14-1-3.6,1.2-6.28,2.41-7.73,5.87-.54,1.28-1.37,2.07-2.74,1.24-2.65-1.63-5.37-1.22-8.15-.56-3.14.75-5.48,3.16-5.57,5.89a7.26,7.26,0,0,0,5.28,7.09,2.62,2.62,0,0,0,2.28-1.09c.24-.58-.42-1.7-1-2.35-.38-.45-1.23-.5-1.88-.73l-.15-.87c.95-.29,1.93-.92,2.83-.82,2.27.27,3.44,2.15,3.18,4.59a4.51,4.51,0,0,1-4,4.12c-2.8.09-7.36-3-8.56-5.9-1.68-3.93-1.06-7.19,1.91-9.91,3.7-3.39,8.12-3,12.62-2.44a3.18,3.18,0,0,0,2.3-.37c1.82-1.78,3.44-3.75,5.53-6.1-27-4.52-54.13-7.83-80.61-14.64ZM304.67,92.39C238.22,78.2,172.08,63,106.73,43.07a15.79,15.79,0,0,0,0,2.75c1.18,5.17,3,10,6.6,14.12,3.92,4.52,7.42,9.45,11.66,13.66,8.36,8.31,16.89,16.49,25.75,24.26,9.09,8,19.21,14.2,31.47,16.38,9.72,1.73,19.34,4,29,5.85,9.08,1.72,18.2,3.26,27.31,4.75,4.84.78,9.74,1.14,14.57,2,9.82,1.7,19.64,3.39,29.38,5.49s20,3.12,29.41,7.3c.24.1.63-.13,1.22-.27-.6-1.13-1.11-2.07-1.6-3-2.27-4.42-4.46-8.9-6.86-13.25a8.57,8.57,0,0,0-3.24-3.56,17.84,17.84,0,0,0-6.49-1.67c-3.81-.27-7.65.08-11.46-.15-4.36-.26-8.7-.86-13-1.32l.08-1c10.88.8,21.9-1.89,32.89,2.28a9.54,9.54,0,0,1-.54-2.29c.14-2.94-1.48-4.23-4.16-4.62-3.49-.5-7-1.26-10.47-1.52-9.52-.71-19-1-28.56-1.92-4.69-.48-9.26-2.16-13.88-3.29l.21-.93c1,.14,2,.27,3.07.44,5,.82,10,1.92,15,2.43,12.68,1.27,25.74-.8,37.92,4.61.65-2.73-.24-4.16-3.25-4.9-3.26-.8-6.58-1.28-9.85-2-2.68-.64-5.33-1.5-8-2.26.1-.38.21-.76.31-1.14l21.08,4C303.07,100.75,303.8,96.87,304.67,92.39Zm-134,126.74.43-1c-1-.75-2-1.44-3-2.27a31.69,31.69,0,0,1-2.85-2.93c-10-10.83-17-23.5-22.5-37a150.89,150.89,0,0,1-6.84-20.23c-1.33-5.3-1.26-10.93-2-16.39-1-7.09-1.13-14.11,1.3-21,1.34-3.82,2.88-7.59,4.45-11.33.19-.47,1.09-.64,1.66-1a8.71,8.71,0,0,1,.42,1.9c0,.51-.39,1-.55,1.51-1.71,5.52-4.34,10.94-4.91,16.57a82.65,82.65,0,0,0,3.14,32.6c3.36,10.9,8.26,21.4,13.21,31.73a89.44,89.44,0,0,0,18.25,25.27c2,2,4.08,3.07,7,2.62,6.28-.94,12.59-1.7,18.89-2.47,2.76-.34,5.53-.53,9.15-.87-2.19-1.72-3.77-3-5.38-4.22-7.71-5.89-14.65-12.45-19.47-21s-8.36-17.5-9-27.33a131,131,0,0,1,.2-16.34c.3-4.78,1.13-9.52,1.76-14.28.6-4.5,3.89-7.48,6.34-10.91,1.13-1.57,1.19-2.48-.82-3.22-6.45-2.38-12.76-5.21-19.33-7.21-12.81-3.92-25.75-7.47-38.67-11C116.42,98,111.13,97.07,106,95.7c-2.48-.65-3.4.61-4,2.47-.92,2.93-1.67,5.91-2.52,8.86-1,3.73-2.71,7.41-3.06,11.21-.91,10-.65,20,3.16,29.46C103,156.24,107,164.56,110.82,173c7.22,16,18.63,28.91,30.36,41.6,4.95,5.38,10.63,8.61,18.35,6.64C163.2,220.24,167,219.8,170.65,219.13Zm183.56,36.24a29.74,29.74,0,0,0-3.53-2.57c-5.48-2.81-10.59-6.12-14.24-11.16-1.86-2.57-3.82-4.2-7.14-3-.09,0-.26-.15-.68-.42l3.2-1.61c-2.82-7.65-8.58-2.49-13-3.08l9.17-3.22c-1.59-6-3.54-11.53-4.41-17.2s-.65-11.44-.89-16.6c-4.2.81-8.61,1.69-13,2.51s-8.6,1.4-12.85,2.32c-7.87,1.7-15.7,3.59-23.56,5.39-4.72,1.08-9.35,2.08-11,7.72-.9,2.93-.75,5,1.94,6.49a16.76,16.76,0,0,0,5,1.79c.66.13,2.14-.76,2.18-1.26a17,17,0,0,0-.68-4.08c-.84.23-1.69.45-2.53.69l-1.85.53c0-.75-.33-1.62-.05-2.22a3.33,3.33,0,0,1,4.27-2,6,6,0,0,1,3.45,2.93c1.82,5.18-.95,8.19-6.37,7.4-1.48-.21-3.22-.53-4.48,0a10,10,0,0,0-6,7c-.55,2.32-1.79,3.2-4,3-2.61-.21-4.92.42-6.42,2.74-2.44,3.79-4.81,7.62-7.49,11.89,1.94.1,3.69.27,5.45.25,2.45,0,4.94-.55,7.33-.23s5.46.39,6.89,3.07c3,5.72,7.89,9.39,13.63,12,1.11.5,3.3.89,3.68.37a7.92,7.92,0,0,0,1.61-4.82c-.14-2.08.32-3.6,1.94-4.71a16,16,0,0,1,3.85-2c5.76-2,11.7,1.61,11.46,7a4.44,4.44,0,0,1-1.77,3.31,6.68,6.68,0,0,1-4.37.06c-.63-.18-1-1.71-1.19-2.68-.06-.33.75-.83,1.17-1.25.51.64,1,1.28,1.55,1.92a2.75,2.75,0,0,0,.53.36c1.66-.46,2.34-1.3,1.56-3.15-1-2.34-2.79-4.11-5.11-3.8s-4.77,1.84-7.06,3c-.23.11-.1,1.6.3,2.1.82,1.05,2,1.81,2.91,2.82a5.31,5.31,0,0,1,.69,1.81,16.68,16.68,0,0,1-2,0c-.32,0-.59-.4-.9-.58-1.75-1-2.58-.42-2.53,1.5a13.41,13.41,0,0,0,.37,2.67c1,4.09,4.32,5.76,7.78,6.91,2.63.89,5,2.8,8.29,1.69,11.92-4.05,24-7.6,35.86-11.83,7.61-2.65,15-6.27,23-9.77ZM5,4.77l-.64.61c.42,1,.77,2.14,1.27,3.15,1.5,3,3.07,6,4.6,9,5.7,11.14,11.55,22.18,20,31.59C42.92,63.12,58,73.88,74.76,82.39,86,88.11,97.2,94.48,111,93a79,79,0,0,0-6.17-5.53c-12.29-9.41-23.13-19.92-29-34.66-2.52-6.39-5.63-12.64-7.32-19.19-.93-3.65-2.33-5.32-5.64-6.52-10.74-3.92-21.39-8.06-32-12.18C22.2,11.54,13.62,8.14,5,4.77ZM177.85,223.12c-2,6.69.07,12.67,2.12,18.56a94.72,94.72,0,0,0,29.73,42.78c4.76,3.92,9.35,8.12,15.27,10.31a4.88,4.88,0,0,0,2.61.45q13.2-3.62,26.4-7.41c.59-.17,1-.9,1.7-1.54-2.32-1.13-4.26-1.91-6-3-17.83-10.47-29.81-25.92-37.84-44.63-2.5-5.83-3.07-12.06-2.9-18.36,0-1.48,0-2.78-2.11-2.49-5.22.69-10.46,1.3-15.68,1.94a50.65,50.65,0,0,0-6.48.86A64,64,0,0,0,177.85,223.12Zm84.43-13.85c-3.5.55-6.43,1-9.34,1.49-6.95,1.25-13.87,2.61-20.84,3.81-6,1-12,2-18,2.81-2.11.29-2.41,1.43-2.28,3.17a62.59,62.59,0,0,0,6.34,23c8.22,16.89,20.58,29.62,36.38,39.36,1.12.69,2.79.85,3.51,1.78,1.13,1.47,2.2,1.18,3.57.83,6.76-1.71,13.53-3.36,20.29-5.08,2.74-.69,5.47-1.5,8.2-2.25v-.74a18.52,18.52,0,0,1-4-1.23c-2.56-1.43-5.38-2.75-7.33-4.83-2.24-2.41-4.26-4.92-7.2-6.14-5.44-2.27-9.5-6.19-13.3-10.55a8.42,8.42,0,0,0-4.91-2.76c-3.76-.38-7.61.14-11.4-.09a23.18,23.18,0,0,1-6.24-1.59c-1.34-.49-1.86-2-.48-2.69,4.1-2.08,6.06-5.83,8.09-9.51s4.91-5.92,9.36-5.81c.84,0,2.24-.5,2.46-1.12a13,13,0,0,1,6.71-7.72c-.91-2.43-2.42-4.64-2.36-6.8s1.51-4.41,2.76-7.34Zm-39.72,87.54a10,10,0,0,0-1.34-1.42C203.42,284.48,189.57,270,181,250.82c-3.78-8.52-7.71-17.08-6-26.86.38-2.14-1.12-2.22-2.55-2-5.2.65-10.38,1.42-15.58,2.09-4.31.56-6,2.39-5.55,6.74.87,7.83,2.15,15.6,5.12,23a79.92,79.92,0,0,0,14.54,24c8.19,9.12,17,17.13,28.4,21.84a20.22,20.22,0,0,0,7.82,1.29c2,0,3.88-1.26,5.85-1.78C216,298.29,219,297.61,222.56,296.81Zm83-20.3c-10.86,3.44-21.09,6.75-31.36,9.92-4.6,1.41-9.26,2.64-13.93,3.79-1.94.47-2.33,1.51-1.73,3.16,1.7,4.65,2.84,9.64,5.31,13.86,7.91,13.56,18.79,23.65,34.78,26.94,2.34.49,5,1,7.18.4,6.08-1.74,12-4.06,18-6.16,3-1.07,6-2.18,9.66-3.48-2.65-2.09-4.94-3.79-7.1-5.64-1.24-1.06-2.19-1.54-3.82-.55a8.84,8.84,0,0,1-4.16.94c-6,.2-11.12-2.14-15.58-6.08-3.07-2.7-6.28-4.85-10.82-3.38-2.27.73-3.24-.57-2.07-2.67,3.42-6.08,7.28-11.74,15-12,1.08-2.18,2.11-4.24,3.25-6.53-4-3-3.31-7.51-2.61-12.52ZM69.8,30.23a7,7,0,0,0,0,1.71C73.67,43.21,78.08,54.29,84.92,64c8.3,11.81,19,21.42,30.51,30.17a23,23,0,0,0,7.1,3.25c6.41,2,12.91,3.66,19.37,5.47l16.53,4.65a3,3,0,0,0-1.22-1.73c-5.49-4.33-11-8.58-16.45-13-10-8.12-18.1-18-26.42-27.8-5.25-6.15-9.19-12.5-9.78-20.69a3.59,3.59,0,0,0-1.8-2.65C91.94,37.84,81.07,34.13,69.8,30.23ZM254.89,291.61a6,6,0,0,0-1.26.1c-6.9,2-13.73,4.36-20.73,6-2.82.67-3,2.07-2.34,4a94.89,94.89,0,0,0,4.89,12.56c7.22,14.07,18,24.45,33.06,30,5.09,1.89,10.45,3.59,15.87,1.14s10.47-5.05,15.67-7.63c.43-.21.69-.75,1.43-1.61-2.53-.36-4.64-.68-6.74-.95s-4.58,0-6.58-.81c-10.3-4-17.66-11.73-24.16-20.13C259,307.75,256.29,300,254.89,291.61Zm-27.47,6.79c-5.67,1.45-11.32,3.1-17,4.27-2.44.5-3.25,1.53-2.62,3.63,1.2,4,2.51,7.9,4,11.76,3.71,9.69,10,17.79,17,25.15,4.52,4.67,10.4,7.49,16.38,10.06,5.5,2.35,10.84,3.48,16.28,0a4.27,4.27,0,0,1,1.06-.29L275,348.91a9,9,0,0,0-3.65-1.69c-3.82-1-7.69-1.19-11.42-3.33a66.65,66.65,0,0,1-29.5-34.43c-1.38-3.48-2-7.25-3-11.07Zm170.22,48.14c-4.67,2.28-9.33,1.35-14,.22-.37-.09-1.15.95-1.55,1.59-.93,1.49-1.36,3.71-2.67,4.46-3.34,1.9-7.18,2.88-10.89,1-1.77-.88-2.75-.69-4.25.51a12.38,12.38,0,0,1-8.95,2.58,29.77,29.77,0,0,1-12.93-3.9c-1.43-.84-2.87-1.59-4.55-.36-.37.27-1.16,0-1.74-.08.1-.57,0-1.27.34-1.68,2.17-2.79,4.41-5.51,6.88-8.56-1.31-2-1.32-4.55.8-7.07a2,2,0,0,0,0-1.85c-1.43-2.49-3-4.9-4.52-7.41a17,17,0,0,1-2.13,1.18q-13.4,5.28-26.83,10.49c-1.6.62-1.87,1.77-1.1,3,1.6,2.61,3.06,5.4,5.15,7.59,3.68,3.87,7.7,7.46,11.74,11,10.71,9.34,23.44,10.78,36.5,7.48,13.28-3.34,24.37-11.22,34.73-20.2Zm-177.72-9.09a14.11,14.11,0,0,0-.74-1.9c-6.28-8.45-11.18-17.54-13.24-28-.31-1.53-1.17-2.1-2.78-1.7-7.83,1.91-15.68,3.75-23.51,5.68-2,.5-4,1.26-5.94,1.89l-.27,1.15c3,2.29,5.78,4.87,9,6.83,9.27,5.73,18.72,11.17,29.26,14.32C214.17,336.5,216.8,336.82,219.92,337.45Zm-16.71-34c-7.37-3-14.78-6-20.8-11.41-5.14-4.59-10-9.42-14.94-14.28a4.14,4.14,0,0,0-4.81-1.19c-3.54,1.08-7.23,1.72-10.87,2.48-3.31.69-6.64,1.29-10.43,2,17.91,16.46,39.23,21.24,61.86,22.44Zm94.85,84c-.34-.77-.36-1-.48-1.08-1-.52-2.1-1.07-3.19-1.5-13.75-5.38-25.36-13.9-35.79-24.2a3,3,0,0,0-2.56-.59c-3,1-5.92,2.27-8.85,3.45s-6.12,2.49-9.51,3.86c19,10.91,39.05,16.65,60.38,20.09ZM251,357.84l-.18-1.13-3.86-.22c-.79-.05-1.75.15-2.36-.23-7.29-4.55-15.14-8.33-20.86-15.11a5.16,5.16,0,0,0-4-1.58c-5.12.6-10.21,1.54-15.29,2.48-1.7.31-3.32,1-5.77,1.71,2.91,2.17,4.87,4.29,7.29,5.31,7.41,3.13,14.85,6.33,22.56,8.55,6.49,1.87,13.35,3,20.19,1.12a22.55,22.55,0,0,0,2.24-.87Zm91.45,38.93a10.22,10.22,0,0,0-1.89-.54c-4-.35-8-.51-11.91-1-6-.78-12-1.19-17.78-3.46-4.46-1.76-9-4.34-14-1.14-2.51,1.56-5.54,2.28-8.55,3.46,8.53,6.37,41.84,9.24,54.19,2.71Z" style="fill:none;stroke:#fff;stroke-miterlimit:10;stroke-width:3px"/><path d="M497.19,313.27l1.8-8,1-.57a8.22,8.22,0,0,0,.73,1.7,59.69,59.69,0,0,0,4.83,6.38,52,52,0,0,0,7.67,6.93,22.43,22.43,0,0,0,7.11,3c5.22,1.37,8.08,5.28,10.85,9.36.29.43.13,1.17.22,2.16-2.1-2.24-3.73-4.42-5.8-6a24.11,24.11,0,0,0-6.84-3.65c-2.79-.95-5.25-1.91-7.37-4.22-3.42-3.7-7.39-6.9-11.12-10.3l-1,.18c0,2.24-.37,4.56.09,6.7a28.62,28.62,0,0,0,2.8,7c.7,1.34,1,2.3-.33,3.25a4.35,4.35,0,0,0-1.78,5.47c.82,1.56,3,2.57,4.81,3.37.77.33,2.69-.24,2.95-.87a5.14,5.14,0,0,0-.19-3.74c-.25-.54-1.82-.48-3-.74-.51-2,.31-2.95,2.51-2.35a5.47,5.47,0,0,1,3.77,6.14c-.46,2.94-2.19,4.29-5.34,4.15l-2.18-.13c-1,3.65.79,6.28,2.86,8.81.56.7,1.55,1.1,2,1.85s.57,2,.19,2.34c-5.43,5.65-4.08,11.52-.65,17.41q5.81,10,11.8,19.8a37.76,37.76,0,0,1,5.62,18.5,35.87,35.87,0,0,1-.41,4.13c-1.65-5.64-2.7-10.61-4.58-15.25-1.64-4.06-4.22-7.75-6.38-11.61-3.63-6.46-7.56-12.77-10.76-19.44-2-4.17-1.14-8.75,1.29-12.74.89-1.47.8-2.39-.28-3.57a11.65,11.65,0,0,1-3-9.54,3.15,3.15,0,0,0-1.09-2.42,5.74,5.74,0,0,1-2.09-7.5c1.49-3.19.2-5.68-.87-8.19-3.31-7.8-5.87-15.73-6.22-24.28a66.71,66.71,0,0,1,11.76-41.18c6.34-9.27,14.13-17.46,25-21.54,5.41-2,11.09-3.49,17-2a20.16,20.16,0,0,0,4.18.25c-.74-2.88-2-5.56-2-8.25-.06-4.14,3.43-5.9,6.63-7.49,2.49-1.24,4.61.12,6.52,1.55,2.14,1.61,2,6.53-.32,7.92-1.41.87-2.58.45-2.86-.43.94-1.84,2.06-3.09,2-4.24-.07-.75-2.24-2.16-2.85-1.9a11.65,11.65,0,0,0-4.82,3.62c-.71,1-.56,3.26.08,4.5,1.41,2.72,3.57,3.24,6.49,2.19a21.56,21.56,0,0,1,3.31-1.23c8.68-1.55,11.73-14.31,8.67-20.87-3.94-8.41-10.65-14-18-18.81C544,184,535.73,180.1,528,175.28c-5.83-3.65-11.21-8-16.69-12.19a25.82,25.82,0,0,1-3.37-3.8c-1.31,2.08-.3,3.65.62,5.07,1.06,1.63,2.21,3-.79,3.75a1.91,1.91,0,0,0-.85,1.68c.39,2,1,4.06,1.64,6.43,3.41-3.32,6.26-3.26,7.28-.15a6.23,6.23,0,0,1-.69,4.49c-.88,1.56-2.62,1.23-4.16.54-5.27-2.38-8.31-9.7-6.26-15.17.12-.34.42-.8.3-1-1.65-3,.49-5.69.6-8.54,0-.82.85-1.61,1.3-2.41.66.56,1.64,1,1.93,1.69,2.11,5.07,5.92,8.56,10.25,11.74,10,7.34,21.1,12.78,31.88,18.81,7.68,4.29,14.57,9.58,19.5,17.08,5,7.67,3.93,15.17-.18,22.82-2.68,5-6.75,7.11-12.15,7.95a46.13,46.13,0,0,1-13.78.12,31.05,31.05,0,0,0-22.31,5.27c-10.38,7.11-18.9,16.09-23.14,28.14-3.88,11-6.58,22.45-5.2,34.33.46,3.87,1.54,7.68,2.34,11.52Z" style="fill:none;stroke:#fff;stroke-miterlimit:10;stroke-width:3px"/><path d="M447.78,198.4A94.87,94.87,0,0,0,437.56,200c-5.39,1.41-8.62,8.77-5.87,14.57.66,1.39,3.6,1.78,5.57,2.41.29.09,1.38-1.06,1.36-1.61a3.29,3.29,0,0,0-1.23-2.15c-.47-.39-1.36-.26-2.08-.36.42-2.17,2-3,3.86-2a5.28,5.28,0,0,1,2.13,5.74c-.81,2.34-2.47,3.2-4.9,2.78-2.64-.46-5.1-1.08-6.95-3.34a2.85,2.85,0,0,0-2.8-.38c-1.53,1.06-3.45,2.38-3.91,4a18.11,18.11,0,0,0-.06,7.26c.91,6.84,1,6.83-1.34,12.75a3.55,3.55,0,0,0,.43.23c2.34-2.84,4.64-2.11,7.56-.58a6.21,6.21,0,0,0,8.43-2.42s.05-.1.08-.14c.92-1.8,1.75-3.7,0-5.55s-3.32-1.2-5.08.51c.6-3.13,2.55-4.16,5.29-2.8,1.77.89,2.8.63,3.95-.79a9.47,9.47,0,0,1,8.27-3.92c1.53.09,2.06-.58,2.05-2.11a8,8,0,0,1,.74-3.38c1.42-2.84,2.79-2.92,4.58-.3,1.22,1.78,2.35,1.57,3.78.3,2.07-1.83,4.11-3.81,7.32-3.79-1.75,1.26-3.42,2.29-4.9,3.55-4.24,3.64-4.2,3.67-8.9.76-1,3.17-.07,5.9,1.4,8.54,1.18,2.12,3.45,3.59,3.35,6.53,0,.84,1.52,2.27,2.57,2.52,2.27.54,2.81,1.95,2.76,3.88,4.55.4,4.46.56,9.48,3.59s10.45,2.57,15.7.41a7,7,0,0,0,2.55-2.68c.74-1.12,1.05-2.54,1.83-3.63a41.47,41.47,0,0,0,6.11-11c1.44-4.37,6-6.92,10.94-7.41a6.33,6.33,0,0,1,6.27,2.9c-.3.2-.5.4-.58.36-5.62-2.8-9.54.46-13.24,3.91-.93.86-1.05,2.57-1.58,3.87a28.23,28.23,0,0,1-2.06,4.72c-1.38,2.1-3.52,3.8-4.51,6a9.89,9.89,0,0,1-8.84,6.22c-5.77.54-11.28-.15-15.81-4.28a4.68,4.68,0,0,0-5.31-.86c-.73.29-1.5.48-2.58.84a10.12,10.12,0,0,1,.21-2.13c.65-2-.08-3-1.9-3.83a7.62,7.62,0,0,1-2.86-2.39,39.48,39.48,0,0,1-4.79-7.46c-1.25-3-3.29-3-5.73-2.64-3.48.47-7.1,4.24-7.44,7.66-.63,6.43-5.14,9.58-11.42,7.77-2.27-.66-4.08-1.11-6.23.7-1,.86-3.27.42-4.94.27-.28,0-.87-2.09-.54-2.41,3.55-3.43,3.63-7.31,2.43-11.79a18.22,18.22,0,0,1-.1-7.57,7,7,0,0,1,6.06-5.89c2.12-.36,2.5-1.28,2.28-3.07-.71-6,3.77-10.8,7-12.18S444,197.19,447.78,198.4Z" style="fill:none;stroke:#fff;stroke-miterlimit:10;stroke-width:3px"/><path d="M511.88,395.38l-15-19.24c-.89-1.15-1.72-2.34-2.61-3.48-5-6.48-5.36-13.24-1.13-20.2.81-1.32,1.08-2.32.12-3.68-4.18-6-7.81-12.22-8.11-19.83,0-.49-1.14-1.28-1.8-1.35-2.18-.2-4.38,0-6.55-.2-7-.52-13.95-1-20.9-1.73a11.31,11.31,0,0,1-9.35-8.78,110.41,110.41,0,0,1-1-11.12,10.46,10.46,0,0,0-3.35,0c-10.18,3-22.11-8.19-24.11-16.14-1.08-4.33-2.15-8.59-1-13.12.17-.7-.79-2.09-1.58-2.54a53,53,0,0,0-5.53-2.26c-5.95-2.51-10-6.67-11.76-13-1.56-5.73-2.76-11.49-.94-17.36a26.45,26.45,0,0,1,2.55-5c.19-.33.84-.39,1.28-.57.09.54.45,1.26.23,1.58-3,4.31-2.37,9.2-2.21,14a25.67,25.67,0,0,0,3.61,12.94c2.93,4.69,7.8,6.61,13,7.66,3.31.68,3.58.83,3.19,4.18-1.38,12,4.62,23.4,15,27.14,3.19,1.14,7.14.64,10.66.22,3.75-.44,3.63-.57,3.37,3.1-.67,9.16,1,15,9.24,16.95,5.77,1.38,11.81,1.72,17.76,2.18,3.24.25,6.52-.36,9.79-.29.81,0,2.24,1.11,2.29,1.79.59,8,4.3,14.65,8.77,21,.63.91.49,2.69.13,3.89-.9,2.9-2.61,5.61-3.15,8.55-1.05,5.79,2.68,9.93,6,14,4.7,5.89,9.53,11.68,12.44,18.75C511.49,394.24,511.76,395.07,511.88,395.38Z" style="fill:none;stroke:#fff;stroke-miterlimit:10;stroke-width:3px"/><path d="M359,394.46c.25,2.24.31,4.17.7,6,1.67,7.82,5.75,14.43,10.79,20.46A102.12,102.12,0,0,0,391.36,440c5.79,4,12.56,5.53,19.21,7.3a8.09,8.09,0,0,1,5.57,4c3.4,5.84,8.7,8.69,15.66,8.36a7.43,7.43,0,0,1,4.74,1.32c14,11.72,30.36,14.8,48,13.67a5,5,0,0,1,3.12,1.2c2.71,2.19,5.87,2.23,9,2.08,2-.09,3.92-.74,5.9-.92.71-.06,1.49.5,2.23.77-.55.49-1,1.26-1.65,1.44-5.66,1.6-11.1,1.47-16.15-2.08a4.4,4.4,0,0,0-2.82-.5c-17.86,1.75-34.06-2.18-48.08-13.77a6.49,6.49,0,0,0-4.1-1.5c-7.7.46-13.28-2.67-17.35-9.11-.67-1.06-2.44-1.61-3.81-2-7.64-2.28-15.51-4.14-22.13-8.8-12.62-8.84-23.55-19.36-29.79-33.84a18.67,18.67,0,0,1-1.48-11.14,7,7,0,0,1,.42-1.27C357.93,395,358.16,395,359,394.46Z" style="fill:none;stroke:#fff;stroke-miterlimit:10;stroke-width:3px"/><path d="M449.32,270.43c7.34-5.29,15.7-5.44,23.65-6.92,3.73-.69,7.16-1.76,9.85-4.66A5.51,5.51,0,0,1,486,257c5-.46,7.41-4.17,9.08-7.93,1.3-3,2.77-5.23,5.66-6.51,2.69-1.2,3.79-3.13,4.63-6.06,2-6.8,4.15-8.83,10.71-8-3.07,1-5.74,2.6-7,5.7-.72,1.74-1.13,3.64-2,5.3a14.12,14.12,0,0,1-3,3.87c-1.13,1-2.77,1.4-3.95,2.35a6.7,6.7,0,0,0-2.42,3.11c-1.38,5.67-5.32,8.68-10.45,10.6-.58.22-1.34.31-1.69.73-3.72,4.5-8.74,5.54-14.24,6.08A111.36,111.36,0,0,0,455.77,269c-1.73.41-3.28,1.84-4.79,3-1.67,1.24-2.89,1.65-3.43-1-.32-1.61-1.35-1.84-3-2-2.25-.15-4.94-.52-6.56-1.85-2.78-2.28-5.77-2.77-9-3.07a23.7,23.7,0,0,1-4.49-.92,1.92,1.92,0,0,1-1.21-1.23c0-.39.61-1.05,1.1-1.25,4.78-2,7.64-5.41,7.79-10.71.17-6,7.6-9.85,12.84-8.69l1.87.39c5.14,1.08,6.69,4.69,3.86,9.11-1.17,1.82-3,1.9-4.86,1.47s-3.79-1.3-3.85-3.56a3.94,3.94,0,0,1,1.5-2.88c.68-.49,2-.1,3-.1l.43,1c-.36.12-.81.14-1,.38a17.33,17.33,0,0,0-1.31,1.75c.7.49,1.35,1.25,2.12,1.39a3,3,0,0,0,2.39-.63c1.42-1.7.33-4.8-1.78-5.53-6-2.06-11.7,1.15-12.47,7.35a14.16,14.16,0,0,1-6.74,10.87,27.48,27.48,0,0,0,3,.19,8.89,8.89,0,0,1,7.16,2.61c2,1.93,4.44,2.78,7.23,1.42,1.48-.72,2.4-.28,2.7,1.45A10.48,10.48,0,0,0,449.32,270.43Z" style="fill:none;stroke:#fff;stroke-miterlimit:10;stroke-width:3px"/><path d="M348.52,102.42c-.3,4.59-1,8.45-.71,12.25.53,7.66.8,15.45,5.36,22.2a2.74,2.74,0,0,1-.38,2.63c-4.15,3.78-5.52,8.9-6.67,14-2.65,11.65-.38,22.23,7.66,31.39a3.17,3.17,0,0,1,.3,2.52c-.7,2.75-2.13,5.42-2.31,8.19-1.26,18.8,7.65,32.6,22,43.56.73.55,1.38,1.22,2.07,1.83l-.44.84a10.67,10.67,0,0,1-2.94-1.11c-10.62-8.41-19.46-18.31-22.23-31.91-1.43-7-2.29-14.41,1.07-21.42a2.9,2.9,0,0,0-.55-2.57c-7.14-7.27-8.35-16.54-8.35-25.93A30.8,30.8,0,0,1,349,139.72a3.35,3.35,0,0,0,.26-2.81,54.49,54.49,0,0,1-4.77-25.38,22.39,22.39,0,0,1,1.47-6.31C346.31,104.24,347.44,103.55,348.52,102.42Z" style="fill:none;stroke:#fff;stroke-miterlimit:10;stroke-width:3px"/><path d="M444.93,334.34a11.63,11.63,0,0,1-2.18-.48c-5.93-2.66-10.49-6.68-12.94-12.88-.32-.8-1.32-1.93-2-1.92-14.92.24-22.53-9.66-29.05-20.89-2.31-4-3.82-8.39-3.36-13.25.09-.78-1.18-2-2.11-2.51-5.16-2.62-10-5.66-13.43-10.39a33.74,33.74,0,0,1-6.14-24.41,16.85,16.85,0,0,1,1.44-3.83l1,.16a17.13,17.13,0,0,1,0,2.68c-1.17,7.45.42,14.41,3.81,21,3.53,6.86,9.21,11.22,16.5,13.68.6.2,1.43,1.62,1.24,2-1.77,3.15-.38,6.15.59,8.94a43.38,43.38,0,0,0,16.16,21.05c2.39,1.73,5.87,2.08,8.92,2.79,2.55.59,5.2.68,7.77,1.21.52.1,1.35,1.4,1.19,1.76-1.06,2.3,0,4,1.53,5.34,3,2.73,6.21,5.27,9.34,7.87.64.53,1.34,1,2,1.48Z" style="fill:none;stroke:#fff;stroke-miterlimit:10;stroke-width:3px"/><path d="M33.09,85.36c3.51,8,6.73,16.15,10.58,24,9.27,19,24.81,31.3,43.67,39.92,2.79,1.28,5.67,2.36,8.44,3.71.77.38,1.25,1.37,1.86,2.08-.92.41-1.88,1.24-2.77,1.18-8.16-.59-16.3-1.32-24.45-2-3.6-.32-7.2-.69-10.79-1.13-.58-.07-1.1-.63-1.64-1,.54-.33,1.11-1,1.62-.92,4.59.4,9.18,1,13.77,1.4q8.53.85,17.09,1.59a4.32,4.32,0,0,0,2.38-.58c-14.4-6.87-29-13.47-39.44-25.88A92.53,92.53,0,0,1,33.09,85.36Z" style="fill:none;stroke:#fff;stroke-miterlimit:10;stroke-width:3px"/><path d="M452.32,292c2.49,1.13,4.44,2.41,4.48,5.51,0,1.16,1.24,2.55,2.26,3.4a35.08,35.08,0,0,0,4.87,2.89c2.38-2.19,5.54-2.57,8.87-2.59,1,0,2.68-.57,2.92-1.26.32-.93-.36-2.27-.78-3.37-.32-.83-1.22-1.52-1.29-2.32a3.33,3.33,0,0,1,.89-2.57c.6-.49,1.78-.29,2.71-.39l.11.83-3,1.08c1,1.05,1.72,2.29,2.56,2.4,1.08.15,2.95-.28,3.29-1a10.71,10.71,0,0,0,1.11-5.59,114.5,114.5,0,0,0-2.5-12.19,2.22,2.22,0,0,0-1.79-1.24c-4.51.46-9.12.66-13.47,1.81-3.12.83-6,2.84-8.74,4.66-.74.49-1,2.27-.84,3.38.08.65,1.34,1.55,2.12,1.6s1.89-.66,2.83-1.05l-.18-.72-2.41-1.09-.25-.75c.81-.35,1.71-1.13,2.4-1a4.08,4.08,0,0,1,2.68,1.82,3.66,3.66,0,0,1-.62,3.15c-1.85,2.06-6.23,1.94-8,0-2.06-2.28-1.68-5.42,1.1-7.61a21.87,21.87,0,0,1,14-4.54c7.28.09,13.76-1.48,19-6.91l.41.67c-.93,1.06-1.67,2.4-2.81,3.13-4.71,3-4,7.22-2.87,11.6.57,2.19,1.38,4.33,1.74,6.55.54,3.33-.75,5.25-3.68,6.79a4.35,4.35,0,0,0-2.07,2.52c-.5,2.18-1.77,3-3.81,3.18-1.44.15-2.85.56-4.3.74-2.58.32-4.1,1.58-4.5,4.27-.12.82-1,1.54-1.45,2.31a10,10,0,0,1-1.15-2.16,7.5,7.5,0,0,0-4.38-5.5,7.91,7.91,0,0,1-3.09-3.44c-.6-1.13-.37-2.67-.8-3.93A19,19,0,0,0,452.32,292Z" style="fill:none;stroke:#fff;stroke-miterlimit:10;stroke-width:3px"/><path d="M483.81,224.54c-.89.25-1.45.46-2,.56a18,18,0,0,1-1.88.14c.09-.75,0-2,.29-2.16,1.43-.56,3.12-1.29,4.48-1,1,.23,2.15,2,2.23,3.14.33,4.65-4.14,8-8.84,6.77-3.07-.76-3.07-.76-5.65,1,1.64-3.35-.65-5.13-1.81-7.46-1.84-3.69,2.68-10.09,7-10.31,4.16-.22,8.4-.57,11.94,2.52.34.29,1.5,0,2.06-.35,7.65-5,15.93-7,24.88-4.81,2.8.68,5.34,2.42,8,3.67l-.33.7c-2.45-1-4.82-2.38-7.37-2.91-9-1.87-16.77,1.08-23.94,6.25-.81.58-1.37,1.68-2.22,2a3.81,3.81,0,0,1-2.5-.79c-.34-.2-.21-1-.46-1.51-1.29-2.3-8.26-2.85-11.73-.94-2.17,1.19-2.74,4.83-1.19,7.56a6.63,6.63,0,0,0,6.3,2.93C482.7,229.18,483.27,228.22,483.81,224.54Z" style="fill:none;stroke:#fff;stroke-miterlimit:10;stroke-width:3px"/><path d="M393.74,362.05c-2.42,1.21-4.85,3-5.25,7,5.83,0,11.49,0,17.14.05a7,7,0,0,1,3,1c2.11,1.07,5.55-.17,8.34-3.07,1.67-1.73,1.13-3.48.09-5.2a2.69,2.69,0,0,0-1.31-1.27,9.92,9.92,0,0,0-3.12-.26c-.19,0-.57,1.27-.47,1.33a21,21,0,0,0,2.48,1.21l.92.42-.09.88c-1.45-.15-3.19.13-4.27-.58a3.64,3.64,0,0,1-.93-3.49,5.19,5.19,0,0,1,3.52-2.2c3.54-.4,5.56,1,6.57,4.69.63,2.31,1.86,3.11,4.06,3,1.36-.07,2.73-.05,4.08-.16s2.64-.33,4-.5l.28.78c-1.21.43-2.46,1.33-3.62,1.22-5.54-.54-10.32.68-14.61,4.47a5.67,5.67,0,0,1-7.13.29,2.63,2.63,0,0,0-1.26-.48c-4.56-.21-9.14-.48-13.72-.51a36,36,0,0,0-5.26.84,3.89,3.89,0,0,1-2-.17c-.2-.1-.19-1.23.07-1.68,1.6-2.71,3.36-5.32,4.94-8a9.21,9.21,0,0,0,.64-2.73,6.58,6.58,0,0,1,1.1-3Z" style="fill:none;stroke:#fff;stroke-miterlimit:10;stroke-width:3px"/><path d="M483.38,169.3a28,28,0,0,1,12.16,2.37,32,32,0,0,1,14.77,12.79c1.36,2.23,4,3.8,6.34,5.28,5.64,3.59,11.55,6.77,17.12,10.47,3.57,2.37,5.59,6.14,6.91,10.18.22.66-.39,1.59-.62,2.4-.62-.36-1.63-.58-1.8-1.09-2.61-7.65-9-11.55-15.29-15.59-3.88-2.51-7.94-4.73-11.82-7.24a8.74,8.74,0,0,1-3.14-3.22c-3.78-7.84-10.5-11.72-18.42-14-2.1-.61-4.25-1-6.38-1.56Z" style="fill:none;stroke:#fff;stroke-miterlimit:10;stroke-width:3px"/><path d="M136.83,221.17c-24.22-7.06-43.13-22.16-60-40.38-7.08-7.65-16.29-22.62-16-26.32C78.46,186.05,103.81,208,136.83,221.17Z" style="fill:none;stroke:#fff;stroke-miterlimit:10;stroke-width:3px"/><path d="M394.86,221.61l9.62,2.23a40.09,40.09,0,0,1,2.31-5.63c.21-.36,1.84.09,3.12.2a13.88,13.88,0,0,0-2.26,2.8c-.13.31.73,1.49,1.16,1.5a6.17,6.17,0,0,0,3.48-.68,7.23,7.23,0,0,0,2-3.15c1.31-3.27,2.35-6.65,3.79-9.86.36-.8,1.87-1.09,3.12-1.21-3.69,3.24-4.1,7.72-5.16,11.83-1.1,4.3-4.35,6.2-8.7,5.26a124.41,124.41,0,0,0-13-1.8c-1.66-.19-2.35-.38-1.93-2.45.89-4.35,1.36-8.79,1.9-13.21.25-2.05,2.36-4.91,4.74-5a22.69,22.69,0,0,1,8.51.91c2.91,1,5.48,3,8,5.08-2.45-1-4.85-2.17-7.36-3a24.82,24.82,0,0,0-7-1.57c-1.39,0-3,1.13-4.16,2.09-.5.39-.27,1.69-.37,2.57.92-.09,1.85-.11,2.76-.29a23.72,23.72,0,0,0,2.31-.72c-.38,1-.51,2.28-1.21,2.92a3.49,3.49,0,0,1-2.8.4c-2.29-.63-2.77.47-2.76,2.35C394.87,216,394.86,218.72,394.86,221.61Z" style="fill:none;stroke:#fff;stroke-miterlimit:10;stroke-width:3px"/><path d="M448,280.72c-2.11,1.71-2,4.35-1.56,7.25.3,2.23-2.27,4.27-4.75,4.19-2.22-.06-3.64-1.17-3.69-3.47,0-.79.33-2,.88-2.29.85-.39,2-.1,3-.1l.06.94-2.77,1.47c1.06.81,1.9,1.93,2.53,1.82a4.22,4.22,0,0,0,2.77-1.83c2.12-4.12-.56-9.78-5-10.87a3.92,3.92,0,0,0-2.32.19,1.89,1.89,0,0,0-.94,1.46c0,.39.77.78,1.23,1.12.62.45,1.27.86,1.9,1.29-.72.44-1.52,1.34-2.13,1.22-3.26-.62-4.23,1-4.44,3.83a40.27,40.27,0,0,1-1.08,5.08l-3.61-1.16c2-3.33,3.83-6.23,5.57-9.16a2.63,2.63,0,0,0,.19-1.3c0-4.24,3.14-6.16,7-4.17.87.45,1.58,1.23,2.42,1.75C444.72,278.9,446.31,279.74,448,280.72Z" style="fill:none;stroke:#fff;stroke-miterlimit:10;stroke-width:3px"/><path d="M409.35,259a23.06,23.06,0,0,0,3.2-1.35c.57-.35.73-1.37,1.3-1.69a18.65,18.65,0,0,1,3.22-1.13,10.44,10.44,0,0,1-1.17,2.54c-2.83,3.37-5,3.88-8.33,2.3-1.53-.72-1.5-1.34-.49-2.63a26.49,26.49,0,0,0,3.45-5.64c1-2.33,2.14-4.09,5-4.31,2.6-.2,4.89,0,6.22,2.68a10.38,10.38,0,0,0,1.62,1.88c-1.82,1.25-2.93.47-4-.86-2.07-2.62-4.86-2.44-6.47.41-1.33,2.34-2.58,4.71-3.86,7.06Z" style="fill:none;stroke:#fff;stroke-miterlimit:10;stroke-width:3px"/><path d="M421.38,173.19c1.2.3,2.44.43,2.45.63.1,1.77.45,3.75-.18,5.29-.74,1.82-2.51,1.29-3.94.31-2.55-1.74-3.78-4.58-2.9-6.71,1-2.36,4.85-4.23,7.59-3.66a3.31,3.31,0,0,1,1.3.42c4,2.71,8,5.25,13.14,4.87.08,0,.18.27.27.41-3,1.19-7.55.33-9.69-1.83-2.95-3-6.08-3.43-9.22-1a3.64,3.64,0,0,0-1.32,2.9c.24,1.19,1.37,2.19,2.12,3.27.61-.63,1.59-1.2,1.71-1.92S422.06,174.61,421.38,173.19Z" style="fill:none;stroke:#fff;stroke-miterlimit:10;stroke-width:3px"/><path d="M530.69,206.84l-14.51-6.16.42-.84C521.9,200.7,526.69,202.61,530.69,206.84Z" style="fill:none;stroke:#fff;stroke-miterlimit:10;stroke-width:3px"/><path d="M502,172.1c-2.76-2.16-5.79-2.91-7.53-5.91C497.79,166.16,501.82,169.06,502,172.1Z" style="fill:none;stroke:#fff;stroke-miterlimit:10;stroke-width:3px"/><path d="M442.81,186.25h-9.3C435.69,183.38,439.57,183.45,442.81,186.25Z" style="fill:none;stroke:#fff;stroke-miterlimit:10;stroke-width:3px"/><path d="M504.17,184.61l-10.46-1.38C496,181.49,501,182.18,504.17,184.61Z" style="fill:none;stroke:#fff;stroke-miterlimit:10;stroke-width:3px"/><path d="M432.94,182.33c2.82-2.29,5.12-1.25,7.43,0Z" style="fill:none;stroke:#fff;stroke-miterlimit:10;stroke-width:3px"/><path d="M368.58,291.87l-6.17,1.82-.22-.7,6.11-2Z" style="fill:none;stroke:#fff;stroke-miterlimit:10;stroke-width:3px"/><path d="M261.9,199.8a18,18,0,0,1-18.37-10.31,6.21,6.21,0,0,0-3.56-3.35c-5.42-2.47-11-4.57-15-9.45-1.12-1.35-3.73-1.52-5.68-2.12-6.32-1.93-12.67-3.77-19-5.77-.67-.21-1.07-1.24-1.6-1.89.71-.24,1.46-.76,2.12-.67,5.73.75,10.36-1.47,14.93-4.64,3.55-2.46,7.42-5,11.49-5.94,3.78-.84,7.74-.39,10.47-3.87.18-.23.82-.11,1.25-.15-1.66,2.31-3.16,4.59-4.89,6.68-.39.47-2,.71-2.28.39-1.49-1.73-3.14-1.35-4.69-.49-3.24,1.81-6.36,3.85-9.56,5.73-2.49,1.46-5,2.82-7.56,4.25a23,23,0,0,0-2,1.57c4.22,1.17,7.79,2.46,11.48,3.11a18.17,18.17,0,0,1,9,4.31c3.86,3.24,8.84,5.13,13.26,7.76a8.15,8.15,0,0,1,3,3c3.33,6.45,8.66,10,15.62,11.52Z" style="fill:none;stroke:#fff;stroke-miterlimit:10;stroke-width:3px"/><path d="M268.12,201.68c-2.91-2.2-3-2.94-1.3-6,2.58-4.5,7.72-5.46,10.6-2,1.52,1.84,1.42,4.53-.38,5.5-.6.32-1.59-.08-2.4-.14.25-.61.54-1.2.74-1.82s.66-2.09.49-2.18c-1.2-.63-2.65-1.56-3.81-1.33C268.81,194.37,267.45,197.27,268.12,201.68Z" style="fill:none;stroke:#fff;stroke-miterlimit:10;stroke-width:3px"/><path d="M308.07,167.81l-7-.32v-.76h7Z" style="fill:none;stroke:#fff;stroke-miterlimit:10;stroke-width:3px"/><path d="M325.18,223.81l-6.6,1.38-.21-.83,6.4-2C324.9,222.84,325,223.33,325.18,223.81Z" style="fill:none;stroke:#fff;stroke-miterlimit:10;stroke-width:3px"/></g></g></g></svg>