<svg xmlns="http://www.w3.org/2000/svg" viewBox="0 0 133.72 254.63" style=""><g id="Layer_2" data-name="Layer 2"><g id="Layer_1-2" data-name="Layer 1"><g id="Layer_1-2-2" data-name="Layer 1-2"><path d="M45,211.33c-4.49-3.25-8.81-1.48-12.94-.7-5.78,1.09-7.79.38-10.19-5a6.12,6.12,0,0,0-2-2.08c-1.37-1-2.83-1.92-4-2.71-1.92,1.21-3.64,3.08-5.62,3.41-6.34,1.06-9.65-2.91-8.89-8.75.63-5.13,3.36-9.81,8.58-11.73a38.1,38.1,0,0,0,8.88-4.23C22,177.38,25.76,178.85,29,181a12,12,0,0,0,4.58,1.77c2.28.38,3,1.24,2.28,3.47-.44,1.29-1.08,2.51-1.48,3.8-.84,2.72-.22,3.63,2.63,4.06,2.42.36,4.84.68,7.27,1,4.42.64,6.55,1.69,10.91,5.44,3.6-2,7.93-2.84,10.46-6.73.26-.41,1.88-.4,2.53,0,2.33,1.39,4.58,2.9,6.76,4.51,1.31.94,2.24.75,3.28-.41,2.92-3.3,6.62-4.7,11-5.07s8.88-1.48,13.87-2.37c-.9-1.29-1.58-1.87-1.72-2.57-.24-1.15-.54-2.61,0-3.49a3.35,3.35,0,0,1,3-1c1.61.44,2.22-.23,3.11-1.3A8.71,8.71,0,0,1,119.74,181a8.34,8.34,0,0,1,.91.87,4,4,0,0,0,2.42,1.18c3.8.27,6.7,1.93,8.08,5.47,1.6,4.09,2.25,8.32-1,12a7.18,7.18,0,0,1-8,1.89c-1.26-.41-2-2.41-3.11-3.83-2.28.48-3.76,2-3.54,4,.49,4.46-1.74,7.31-6.35,7.37a35.27,35.27,0,0,1-9.09-1.13,26.06,26.06,0,0,0-13.15.48c.59,2.08,1.16,4.11,1.77,6.28A5.46,5.46,0,0,1,95,216.85a.76.76,0,0,0,.45.29c5.37.49,10.74,1.13,16.13,1.31a5.46,5.46,0,0,0,3.66-2.38c1.17-1.79,2.45-2.67,4.47-2.16s3,2.27,3.19,4.27c.48,4-1,7-4.79,8.51-4.87,1.88-9.84,3.52-14.87,4.91-5.31,1.46-10.73,2.55-15.38,5.76a8.73,8.73,0,0,1-2.17,1.16,9.78,9.78,0,0,0-5.23,4.34c-2.1,3.17-5.52,5.51-8.52,8a11.48,11.48,0,0,1-4.25,2.32,5.53,5.53,0,0,1-3.8-.31A42.4,42.4,0,0,1,56.4,248a7.54,7.54,0,0,1-2.35-4.27,7.34,7.34,0,0,0-6.11-6.32c-4.31-.6-5.84-2-6.43-6.37-.22-1.65-.89-2.1-2.42-2.17-5-.21-9.94-.53-14.91-.83-6.08-.31-11.46-6.7-10.79-12.75a5.43,5.43,0,0,1,5.71-5.13,5.53,5.53,0,0,1,2.5.76c1.59.83,2.37,2,2,3.74-.54,2.65.94,2.5,2.63,2s3.54-1.4,5.36-1.94c1.37-.4,2.84-.45,4.24-.79s2.6-.86,3.92-1.24c.84-.24,1.72-.32,2.57-.54S44.12,211.61,45,211.33Zm35.23,25.18c2.68,0,5.25,0,6.4-3.24.19-.54,1.33-.87,2.1-1.05s1.74,0,2.56-.16c4.22-1,8.47-1.93,12.6-3.2a129.21,129.21,0,0,0,13.22-4.74c3.12-1.34,3.62-4.47,1.59-7.12-.92,1-1.67,2.26-2.79,2.84-5.29,2.78-10.72,3.79-16.3.65a3.59,3.59,0,0,0-2.49-.57c-1.81.67-2.92-.1-4.1-1.24-1.67-1.62-5-1.58-7-.76a8,8,0,0,1-4.81.14c-.66-.16-1.52-2-1.3-2.75.39-1.39,1.7-1.65,3.1-.83a1.78,1.78,0,0,0,1.59,0,1.49,1.49,0,0,0,.3-1.43c-.24-.48-1-1.18-1.32-1.08-2.14.69-3.26-.45-4.29-2.76-.53,1.15-.82,1.73-1.07,2.33s-.51,1.33-1,2.49c-.59-2.12-.93-3.62-1.45-5a9.75,9.75,0,0,0-1.24-1.82c-.47-.69-1.22-1.35-1.34-2.1-.36-2.31-3.72-5.74-5.46-5.14a64.38,64.38,0,0,0-9.27,3.69c-1.28.68-2,2.55-2.77,4-.32.58,0,1.48-.29,2.12-.2.47-.85.76-1.29,1.12a4.13,4.13,0,0,1-.92-1.2,13.85,13.85,0,0,1-.44-2.31l-.92.12a14.91,14.91,0,0,0,0,2.5c.57,3.26.63,3.12-2.57,2.42a3.13,3.13,0,0,0-2.57,1.49c-.66,1.31.25,1.92,1.68,1.84,1.59-.1,2.68.9,2.11,2.28a3.76,3.76,0,0,1-3,1.93,4.56,4.56,0,0,1-4-4.49c-.19-1.95-1.37-2.4-2.38-1-1.57,2.13-3.59,2-5.76,2.27a53.13,53.13,0,0,0-6.46,1.76,23.49,23.49,0,0,1-5.73,1.26c-2.72,0-3.56-1.6-2.9-4.23.16-.66,0-2-.21-2-.89-.2-2.49-.3-2.68.1-.64,1.36-1.49,3.26-1,4.38,1.33,3,3.1,5.93,6.66,6.69a41.42,41.42,0,0,0,7.53.82c5.35.16,10.69,2.07,16.07,0a2.48,2.48,0,0,1,2.24.44c.49.85.89,2.25.5,3-.62,1.21-1.83,1.34-2.75-.1-1-1.67-1.91-1-2.5.36a3.15,3.15,0,0,0,1.43,4.22l.18.08c1.67.83,3.61,2,5.15-.66A55,55,0,0,1,55,227.56l1.1.73c-1.3,2.33-2.61,4.65-4,7.15,1.88.86,2.37,3.85,5.39,2.83-.19-.57-.47-1-.39-1.21.33-1,.53-2.28,1.26-2.87a2.68,2.68,0,0,1,2.58.34,4.22,4.22,0,0,1,0,3.2,6.1,6.1,0,0,1-2.35,2.16c-2.59,1.72-2.61,4.13,0,5.92,2.16,1.46,4.3,2.94,6.48,4.36a2,2,0,0,0,1.5.4c2.56-1,5.29-1.82,6.42-4.92.4-1.09,1.67-1.88,2.59-2.76a22.16,22.16,0,0,0,2.85-2.63,24.33,24.33,0,0,0,1.89-3.83Zm2.68-26.92c2.14-3.8,5.68-4,8.78-4a93.76,93.76,0,0,1,14.75,1.62c3.64.63,6.24-1,6.07-4.64a5.42,5.42,0,0,1,2.69-5c2.91-2,3.55-4.78,3-8.27-3,.3-5.5-.26-6-4.39a13.76,13.76,0,0,1-8.58,9,57.3,57.3,0,0,1-11.82,2.88,23.75,23.75,0,0,0-11,4.46c-.58.46-.65,1.57-1,2.38a7.32,7.32,0,0,0,2.32-.29c2.23-1,4.33-2.3,6.61-3.14a45.16,45.16,0,0,1,6-1.31c.09.32.19.64.28,1-5,1.83-10.46,2.76-14.47,7ZM48,202a7.86,7.86,0,0,0-1.12-.48c-4.48-1.16-9-2.2-13.41-3.49-3.88-1.14-5-3.56-3.67-7.35.32-.91.66-1.82,1-2.75l-7.39-3.7c.8,4.55-.8,6.95-4.71,7.71a1.41,1.41,0,0,0-.77.69c-2.11,3.55-1.22,6.36,2.43,8.53,1.44.85,3.32,1.91,3.76,3.28,1.1,3.43,3.24,3.42,6.14,3.14,6.28-.62,12.75-3,18.79,1.8l1.16-2.87-13.6-3.72.07-.76c3.7-1.24,7.48.05,11.32,0ZM6.72,200.44c0-4.39,2.43-6.11,6.15-4.79.64.22,1.92.26,2.07,0,.67-1.31,1.65-2.92,1.35-4.14-.52-2.2-1.87-4.21-3-6.6-4.15,1-7,4.11-8.27,8.49C4.37,195.62,3.84,198.36,6.72,200.44Zm112.72-12.53,1.77,6a4.46,4.46,0,0,1,.51.07c1.29.32,3.19.26,3.72,1.08,1,1.47-.86,1.67-1.85,2.19a1.4,1.4,0,0,0-.41,1.35c.28.44,1.19,1,1.42.86,1.37-.88,3.4-1.72,3.75-3a13.86,13.86,0,0,0-.13-6.65,4.85,4.85,0,0,0-5.17-3.63c-1.33.1-2.61,1.24-3.59,1.73Z" style="fill:none;stroke:#fff;stroke-miterlimit:10;stroke-width:2.5px" class="ceVnQkak_0"></path><path d="M10.5,55.64A13.33,13.33,0,0,1,10.05,53a12.56,12.56,0,0,1,.55-2.63c.85.28,2,.3,2.51.88,1.83,2.11,3.41,4.46,5.18,6.63a17.58,17.58,0,0,0,3.22,3.23c1.45,1,2.69,1.06,4-.76,2.13-2.86,5.59-3.57,9-4a20.23,20.23,0,0,1,5.71,0c8.28,1.56,13.54-3.33,18.37-8.71,3-3.31,5.29-7.23,8.06-10.76a2.54,2.54,0,0,1,2.36.25c2.3,3.18,4,6.91,6.7,9.68a50.3,50.3,0,0,0,10.66,8.09c1.23.73,3.66-.36,5.48-.86a16.29,16.29,0,0,1,14.68,2.72,5.89,5.89,0,0,1,2,2.45c.24.65-.35,1.62-.56,2.44-.7-.23-1.6-.25-2.06-.72a13,13,0,0,0-10.71-3.7,7.8,7.8,0,0,0-6,3.39c-4.73,5.93-9.79,11.73-17,14.94A6.11,6.11,0,0,1,65.57,75a3.22,3.22,0,0,0-1.68-.75c-4.48-.14-8.1-2.32-11.66-4.72-1.12-.76-2.37-1.33-3.46-2.13-.86-.63-2.15-1.44-2.2-2.24-.21-3.16-2.56-3.5-4.71-3.85-5.49-.89-10.95-1.57-16.1,1.7-2.61,1.65-7.11.12-9.48-2.75L14.1,57.53l-.95.19c.47,7,.68,14,1.39,20.93.52,5.1,1.73,10.13,2.54,15.2s2.05,10,6.31,13.71c1.14,1,1.62,2.76,2.3,4.22,3.1,6.66,8.31,11.41,14.38,15.16a26.73,26.73,0,0,1,9.06,8.41c.54.86.43,2.12.61,3.2-1.15-.09-2.72.28-3.41-.33-6-5.37-13.66-8.65-18.63-15.32-2.81-3.77-5.67-7.3-5.2-12.4,0-.47-.68-1.17-1.21-1.51a16.71,16.71,0,0,1-7.12-10.8,22.44,22.44,0,0,0-3-6.92c-3.62-5.52-5.33-11.63-6.3-18C4.06,67.89,3.2,62.53,2.72,57.14c-.18-1.9.08-4.94,1.22-5.6,2-1.19,3.16,1.58,4.51,2.93.49.48,1,.94,1.52,1.41Zm-4.42.24C4.72,60.77,9,83.47,12.26,87.77a20.11,20.11,0,0,0,0-4.19,46.57,46.57,0,0,1-1.35-19.33C11.5,59.77,9.63,57.54,6.08,55.88Zm64.89-3c-3,2.46-.62,6.23-3.19,8.89-.58-2.83-1.14-5.66-1.7-8.49l-1.49.14c0,3.19-.47,6.48.16,9.54.48,2.38,4.11,2.62,5.85.76,2.12-2.3,2.39-7.83.37-10.89Zm-2.39,18.3c2.35-1.59,4.65-3,6.81-4.69.48-.36.45-1.4.65-2.12-.8,0-1.83-.24-2.37.15-2.9,2.11-6,1.48-9.09.85A5.39,5.39,0,0,0,62.72,65a3.35,3.35,0,0,0-2,1c-.2.27.33,1.48.81,1.75C63.72,69,65.89,69.9,68.58,71.18Z" style="fill:none;stroke:#fff;stroke-miterlimit:10;stroke-width:2.5px" class="ceVnQkak_1"></path><path d="M57,22.14c.27-3.56.35-6.72.81-9.82a8.38,8.38,0,0,1,1.92-3.55c2-2.48,4-4.91,6.14-7.22A2.15,2.15,0,0,1,68,1.5c2,1.87,3.76,3.89,5.59,5.89,3.62,4,5.24,8.39,3,13.66a2.37,2.37,0,0,0,0,.92c2.34,1.08,4.25.11,6.3-1,1.24-.68,2.82-.73,4.92-1.22-1.51,3.5-2.91,5.95-3.61,8.58s-.49,5.2-.91,7.78c-.17,1-.73,2.53-1.48,2.81a4.83,4.83,0,0,1-3.92-.15,87.68,87.68,0,0,1-8.79-7.66c-1.43-1.39-2.22-1.52-3.7-.05a84.15,84.15,0,0,1-8.78,7.67c-1,.71-2.9.59-4.18.18-.67-.21-1.28-1.87-1.25-2.85.14-5-.76-9.73-3.72-13.92A4.89,4.89,0,0,1,47,20.89c1.58-1.55,3-.91,4.49,0C54.72,22.77,54.72,22.71,57,22.14ZM66.78,7.57C65.13,11,63.37,14,62.3,17.24A3.78,3.78,0,0,0,64.68,22l.11,0a8.33,8.33,0,0,0,5.49-.92c2.07-1.15,2.22-3.67,1.37-5.58C70.51,13,68.72,10.71,66.78,7.57ZM54.63,27.63c-.12,2.26-.27,4-.25,5.73a1.67,1.67,0,0,0,.9,1.18c.24.14.89-.12,1.13-.4C57.42,33,56.63,29,54.63,27.63Zm23.61,1.64c-2,2.14-1.93,4.44,0,6.28ZM60.52,26.2l-1.42-.13-.3,5.42,1.48.07Z" style="fill:none;stroke:#fff;stroke-miterlimit:10;stroke-width:2.5px" class="ceVnQkak_2"></path><path d="M54.82,113.77c-.34,3.09-.84,5.94-.87,8.8a6.27,6.27,0,0,0,1.54,3.57c3.27,4.11,6.76,8.06,10,12.18a27.56,27.56,0,0,1,2.37,4.33c2.83-3.56,5.71-7,8.34-10.57a84.92,84.92,0,0,0,6.18-9.5,8.85,8.85,0,0,0,0-8.61c-.31-.6.09-1.57.17-2.36.77.3,1.83.39,2.27,1a9.43,9.43,0,0,1,1.54,9.77,77.52,77.52,0,0,1-6.56,11.39,58.69,58.69,0,0,1-5.2,5.93c-3.41,3.86-2.58,8.89-3.62,13.4-.1.43.74,1.08,1.14,1.62.51-.43,1.27-.77,1.49-1.32,1-2.7,2-5.45,2.92-8.18a3.94,3.94,0,0,1,.79-1.71,10.58,10.58,0,0,1,2.19-1.2c.33.76,1.08,1.62.92,2.26-1,4-2.15,7.86-3.24,11.78a14.64,14.64,0,0,0-.53,2.36c-.2,1.45.24,3.48-.57,4.26-2.3,2.21-4.85,4.54-7.76,5.64-3.21,1.23-7.39-3.33-6.92-6.66a5.77,5.77,0,0,0-.78-3.27c-2-3.75-4.19-7.42-6.29-11.13a6.62,6.62,0,0,1-1.07-2.18,8.47,8.47,0,0,1,.29-2.5c.85.28,2.11.29,2.5.88,1.93,2.95,3.62,6.07,5.44,9.1.62,1,1.37,2,2.29,3.32.43-.84.81-1.22.78-1.57-.45-5.06-.91-10.09-4.15-14.37-2.85-3.76-5.77-7.46-8.28-11.46-2.43-3.82-2.41-8.11-.93-12.32C51.83,114.69,53,113.33,54.82,113.77ZM67.56,164c1.14-.36,2.12-.44,2.18-.72a22.6,22.6,0,0,0,.27-3.49h-.78Z" style="fill:none;stroke:#fff;stroke-miterlimit:10;stroke-width:2.5px" class="ceVnQkak_3"></path><path d="M110.72,60.62a24.37,24.37,0,0,0,4.08-3.37c1.11-1.38,1.63-3.22,2.52-4.8.76-1.36,1.67-2.63,2.51-3.93.7.46,1.71.78,2,1.43A28.61,28.61,0,0,1,123,54.68c1.54-2.08,2.53-3.52,3.64-4.86a11.85,11.85,0,0,1,1.93-1.52c.32.67,1,1.38.92,2-.76,7.73-1.48,15.47-2.53,23.16-1,7-3.72,13.36-6.88,19.6a17,17,0,0,0-1.27,5c-.9,5.28-4.41,8.58-8.59,11.34a5.77,5.77,0,0,0-2.85,4.39,16.82,16.82,0,0,1-3.63,7.78c-5.12,6-10.66,11.58-16.08,17.3a3.24,3.24,0,0,1-1.85,1.07,16.36,16.36,0,0,1-3.28-.42c.24-1.06.13-2.47.78-3.12,2.75-2.76,5.89-5.13,8.58-7.94,4.06-4.23,8.81-8.2,11.47-13.23,2.35-4.42,5.54-7.76,8.52-11.5a16.73,16.73,0,0,0,3.3-7.27c1.59-9.45,2.87-19,4-28.46a49,49,0,0,0-.12-8.39c-.09-1.93-1-2.36-2.64-1.17s-3.43,2.11-5.15,3.15Zm16-6c-2.66,2.09-4.27,3.64-4,7,.36,3.9-.37,7.89-.53,11.85-.1,2.32,0,4.65,0,7,2.53-8.3,4.66-16.58,4.53-25.82Z" style="fill:none;stroke:#fff;stroke-miterlimit:10;stroke-width:2.5px" class="ceVnQkak_4"></path><path d="M87.34,95.12A34.93,34.93,0,0,1,85,97.89c-3.14,3-6.48,5.84-9.45,9a25,25,0,0,0-4.07,6.21c-1.31,2.66-3,3.06-4.9.8-3.74-4.52-7.56-9-11.21-13.59-1-1.2-1.36-2.83-2.19-4.65,1.54-1.19,3.26-2.45,4.9-3.82,3.27-2.73,6.52-5.48,9.71-8.31,1.31-1.17,2.44-1.68,4-.43C76.82,87.07,81.92,90.94,87.34,95.12Zm-9.46.65c-.22-.74-.22-1.51-.6-1.89A64.62,64.62,0,0,0,71,88.31a3.16,3.16,0,0,0-3,.42,59.94,59.94,0,0,0-6,6.64c-.36.47,0,1.9.45,2.51,1.45,1.84,3.25,3.39,4.7,5.23,1.31,1.65,2.35,1.58,3.72.14,1.8-1.9,3.75-3.67,5.58-5.54A13.41,13.41,0,0,0,77.88,95.77Z" style="fill:none;stroke:#fff;stroke-miterlimit:10;stroke-width:2.5px" class="ceVnQkak_5"></path><path d="M97.27,139.63c1.62.23,3.45.06,4.81.78a35.42,35.42,0,0,1,6.13,4.48c3.56,3,7.46,5.09,12.26,5.21.75,0,1.48.78,2.21,1.19-.45.8-.84,2.22-1.38,2.28a19.54,19.54,0,0,1-6.78,0c-5.14-1.42-10.14-3.35-15.22-5a20.74,20.74,0,0,0-3.59-.38c2.33,3.32,5.16,4.53,8.14,5.46,1,.3,2,.32,2.92.67a11.86,11.86,0,0,1,2.08,1.37c-.67.64-1.29,1.76-2,1.84-3,.33-6.21.88-9.16.35-3.86-.68-7.56-2.3-11.31-3.85,3.13-1.59,6.27-.16,9.7.2a7.48,7.48,0,0,0-5.51-3.76,6.83,6.83,0,0,1-2.11-1.17c.59-.6,1.09-1.59,1.78-1.75,4.41-1.06,8.85-2,13.43-.84a23.21,23.21,0,0,0,3.43.37c-2.92-3.73-5.84-6-10.1-6.33Z" style="fill:none;stroke:#fff;stroke-miterlimit:10;stroke-width:2.5px" class="ceVnQkak_6"></path><path d="M98,108.51c-4.85-.1-8.81-2.85-9.68-6.8-.46-2.1-.18-4,2-5.07,1.36-.64,2.53-.58,3.27,1.17,1.48,3.5,5.13,4,7.38.9a11.31,11.31,0,0,0,1.85-4.16c.39-1.78,1.16-2.91,3-2.75a3.93,3.93,0,0,1,3.87,3.56C110.72,101.91,104.72,108.65,98,108.51Z" style="fill:none;stroke:#fff;stroke-miterlimit:10;stroke-width:2.5px" class="ceVnQkak_7"></path><path d="M36.25,93.65a10.68,10.68,0,0,1-.53,2.18c-1.5,2.23-1.1,4.32,1.16,5.73.23.14.52.18.74.33,5.11,3.41,7.75,3.07,11.9-1.52.46-.52,1-1,1.52-1.61,2,1.76,1.19,3.67.55,5.36-1.75,4.62-9.12,8.84-14,8a5.06,5.06,0,0,1-3.18-1.76,79.68,79.68,0,0,1-5.3-9.46c-1.25-2.67-.75-3.27,2.1-4.22.55-.18.92-.83,1.45-1.14C33.57,95,34.6,94.5,36.25,93.65Z" style="fill:none;stroke:#fff;stroke-miterlimit:10;stroke-width:2.5px" class="ceVnQkak_8"></path><path d="M83.52,87.13c-2.15-1.22-4.38-2.35-6.44-3.75a2.33,2.33,0,0,1-.22-2.28,21.31,21.31,0,0,1,4.19-4.5c5.21-3.76,10.67-7.25,15.87-10.94,2.11-1.48,4.1-1.08,6.07,0,.46.25.59,1.12.87,1.71-.6.19-1.34.7-1.78.52-2.35-1-3.53.12-4.93,1.92-3.7,4.79-7.69,9.35-11.52,14A37.18,37.18,0,0,0,83.52,87.13Z" style="fill:none;stroke:#fff;stroke-miterlimit:10;stroke-width:2.5px" class="ceVnQkak_9"></path><path d="M92.55,48.39c2.42-.47,4.83-1,7.27-1.38,3.76-.55,7.21-5.18,7.62-9.6.25-2.73-2.16-3.89-4.39-4.9s-3.74,0-5.13,1.27c-.48.45-.4,1.66-.27,2.46,0,.23,1.16.32,1.79.41.81.11,2-.13,2.34.3a2.66,2.66,0,0,1,.07,2.51c-.58.72-2.14,1.6-2.62,1.31-1.87-1.09-4.06-2.33-5-4.1-.62-1.21.28-3.71,1.26-5.1,2.08-3,6.5-3.56,10.07-1.78,4.59,2.28,6.22,5.24,5.3,9.45-1.11,5-3.31,9.38-8.6,10.86-2.52.7-5.37.36-8.06.3-.63,0-1.25-.8-1.88-1.23Z" style="fill:none;stroke:#fff;stroke-miterlimit:10;stroke-width:2.5px" class="ceVnQkak_10"></path><path d="M43,51.16a10.53,10.53,0,0,1-2.64,1.27c-8.15,1.34-13.89-2.72-15.82-10.66-1-4,.21-6.73,3.26-9,3.28-2.38,6.76-3,10.39-.85a5.88,5.88,0,0,1,3.26,5.85c-.32,2.66-2.37,4.26-4.9,4.84a3.51,3.51,0,0,1-2.8-.91A2.93,2.93,0,0,1,33.56,39c.22-.43,1.63-.24,2.5-.38.57-.08,1.51-.13,1.61-.42.23-.69.37-1.81,0-2.23-1.29-1.43-2.84-2.49-5-1.69-3.26,1.23-5.11,3.32-4.73,5.5a11.68,11.68,0,0,0,11.48,10c1.13,0,2.24.27,3.37.41Z" style="fill:none;stroke:#fff;stroke-miterlimit:10;stroke-width:2.5px" class="ceVnQkak_11"></path><path d="M37.35,68.39a6.33,6.33,0,0,1,2.16.72c6.23,5.25,13.78,7.89,21.12,11a35,35,0,0,1,3.66,2.11c-1,1.12-1.89,2.24-2.85,3.35a6.11,6.11,0,0,1-.85.69c-4.32,3.36-4,3-7.6-.91-4.48-4.83-9.6-9.06-14.56-13.42-.56-.5-1.84-.18-2.78-.27s-1.72-.22-2.58-.33a10.18,10.18,0,0,1,1.78-2.4C35.42,68.47,36.4,68.56,37.35,68.39Z" style="fill:none;stroke:#fff;stroke-miterlimit:10;stroke-width:2.5px" class="ceVnQkak_12"></path><path d="M41.48,143.63,37.72,151l.38.64,7.65-3c-.86,1-1.29,1.9-2,2.31a48.16,48.16,0,0,1-5.5,2.91,23.72,23.72,0,0,0-10.71,9.27c-.46.75-1.57,1.09-2.38,1.61-.1-1-.68-2.44-.21-3,2.6-3.33,5.49-6.44,8.22-9.67,2.13-2.52,4.18-5.11,6.27-7.66.33-.4.67-.79,1-1.18Z" style="fill:none;stroke:#fff;stroke-miterlimit:10;stroke-width:2.5px" class="ceVnQkak_13"></path><path d="M49.5,151.47c-1,3.43-4.38,4.2-7,6.66,2.09,0,3.61.12,5.1,0a42.76,42.76,0,0,0,4.44-.94c.11.27.21.54.31.81-1.91.75-3.77,1.85-5.75,2.19-4.61.78-8.51,2.45-11,6.65-.28.47-1.16.6-1.77.88-.18-.72-.67-1.53-.5-2.17a14.28,14.28,0,0,1,6.62-9C42.92,154.77,46,153.29,49.5,151.47Z" style="fill:none;stroke:#fff;stroke-miterlimit:10;stroke-width:2.5px" class="ceVnQkak_14"></path><path d="M39.72,97.89c1.43-1.16,2.43-2.47,3-2.31,1.07.33,1.9,1.48,2.82,2.29-.78.75-1.52,2.06-2.35,2.12S41.34,98.93,39.72,97.89Z" style="fill:none;stroke:#fff;stroke-miterlimit:10;stroke-width:2.5px" class="ceVnQkak_15"></path><path d="M101,95.14c-1.46.88-2.3,1.78-3.12,1.77s-1.32-1.11-2-1.73c.74-.66,1.4-1.69,2.23-1.84C98.72,93.22,99.6,94.21,101,95.14Z" style="fill:none;stroke:#fff;stroke-miterlimit:10;stroke-width:2.5px" class="ceVnQkak_16"></path><path d="M71.9,221.69c0-.5-.16-.8-.06-1,2-3.83,0-6-3-8-1.6-1-2.77-1.43-4.31-.16a4.69,4.69,0,0,1-2.21,1c-3.68.54-5.75,2.41-5.7,6.3,0,.36-.39.72-.61,1.11-2.14-1.85-2.37-3.82-.31-6.39a40.86,40.86,0,0,1,5.18-4.74c1.08-1,2.3-1.76,3.33-2.76,1.44-1.39,2.59-1.14,3.93.2s3.13,2.35,4.39,3.79c1.1,1.27,2.43,2.94,2.43,4.42C74.9,217.77,74.84,220.44,71.9,221.69Z" style="fill:none;stroke:#fff;stroke-miterlimit:10;stroke-width:2.5px" class="ceVnQkak_17"></path><path d="M61.72,215.63c2.1.39,4.32.49,6.25,1.29.73.3,1.08,2.2,1.09,3.38a5.64,5.64,0,0,1-5.78,5.48h-.15a5.38,5.38,0,0,1-5.21-5.56,1.62,1.62,0,0,1,0-.22C58,217.29,59.21,216.05,61.72,215.63Z" style="fill:none;stroke:#fff;stroke-miterlimit:10;stroke-width:2.5px" class="ceVnQkak_18"></path><path d="M76,242.09c-2.09.36-3.72-.26-4.29-2.07a3.52,3.52,0,0,1,1.14-2.89,3.1,3.1,0,0,1,2.72-.22c.48.21.64,1.47.7,2.28A17.47,17.47,0,0,1,76,242.09Z" style="fill:none;stroke:#fff;stroke-miterlimit:10;stroke-width:2.5px" class="ceVnQkak_19"></path><path d="M80.31,236.43c-.81-.3-1.94-.36-2.39-.94a29,29,0,0,1-4.12-7.21c2.58,2.41,5.47,4.54,6.42,8.23Z" style="fill:none;stroke:#fff;stroke-miterlimit:10;stroke-width:2.5px" class="ceVnQkak_20"></path><path d="M64.72,236.12c-.3-1.86-.68-3.73-.85-5.6,0-.41.69-.89,1.07-1.34.4.38,1.12.73,1.15,1.13.12,1.9,0,3.8,0,5.7Z" style="fill:none;stroke:#fff;stroke-miterlimit:10;stroke-width:2.5px" class="ceVnQkak_21"></path><path d="M69.3,92.29c4.81,2.6,4.82,3.06.33,7.39C65.36,96.88,65.29,95.77,69.3,92.29Z" style="fill:none;stroke:#fff;stroke-miterlimit:10;stroke-width:2.5px" class="ceVnQkak_22"></path></g></g></g><style data-made-with="vivus-instant">.ceVnQkak_0{stroke-dasharray:1212 1214;stroke-dashoffset:1213;animation:ceVnQkak_draw_0 5600ms ease-in 0ms infinite,ceVnQkak_fade 5600ms linear 0ms infinite;}.ceVnQkak_1{stroke-dasharray:603 605;stroke-dashoffset:604;animation:ceVnQkak_draw_1 5600ms ease-in 0ms infinite,ceVnQkak_fade 5600ms linear 0ms infinite;}.ceVnQkak_2{stroke-dasharray:229 231;stroke-dashoffset:230;animation:ceVnQkak_draw_2 5600ms ease-in 0ms infinite,ceVnQkak_fade 5600ms linear 0ms infinite;}.ceVnQkak_3{stroke-dasharray:276 278;stroke-dashoffset:277;animation:ceVnQkak_draw_3 5600ms ease-in 0ms infinite,ceVnQkak_fade 5600ms linear 0ms infinite;}.ceVnQkak_4{stroke-dasharray:298 300;stroke-dashoffset:299;animation:ceVnQkak_draw_4 5600ms ease-in 0ms infinite,ceVnQkak_fade 5600ms linear 0ms infinite;}.ceVnQkak_5{stroke-dasharray:144 146;stroke-dashoffset:145;animation:ceVnQkak_draw_5 5600ms ease-in 0ms infinite,ceVnQkak_fade 5600ms linear 0ms infinite;}.ceVnQkak_6{stroke-dasharray:150 152;stroke-dashoffset:151;animation:ceVnQkak_draw_6 5600ms ease-in 0ms infinite,ceVnQkak_fade 5600ms linear 0ms infinite;}.ceVnQkak_7{stroke-dasharray:67 69;stroke-dashoffset:68;animation:ceVnQkak_draw_7 5600ms ease-in 0ms infinite,ceVnQkak_fade 5600ms linear 0ms infinite;}.ceVnQkak_8{stroke-dasharray:76 78;stroke-dashoffset:77;animation:ceVnQkak_draw_8 5600ms ease-in 0ms infinite,ceVnQkak_fade 5600ms linear 0ms infinite;}.ceVnQkak_9{stroke-dasharray:74 76;stroke-dashoffset:75;animation:ceVnQkak_draw_9 5600ms ease-in 0ms infinite,ceVnQkak_fade 5600ms linear 0ms infinite;}.ceVnQkak_10{stroke-dasharray:107 109;stroke-dashoffset:108;animation:ceVnQkak_draw_10 5600ms ease-in 0ms infinite,ceVnQkak_fade 5600ms linear 0ms infinite;}.ceVnQkak_11{stroke-dasharray:108 110;stroke-dashoffset:109;animation:ceVnQkak_draw_11 5600ms ease-in 0ms infinite,ceVnQkak_fade 5600ms linear 0ms infinite;}.ceVnQkak_12{stroke-dasharray:77 79;stroke-dashoffset:78;animation:ceVnQkak_draw_12 5600ms ease-in 0ms infinite,ceVnQkak_fade 5600ms linear 0ms infinite;}.ceVnQkak_13{stroke-dasharray:73 75;stroke-dashoffset:74;animation:ceVnQkak_draw_13 5600ms ease-in 0ms infinite,ceVnQkak_fade 5600ms linear 0ms infinite;}.ceVnQkak_14{stroke-dasharray:67 69;stroke-dashoffset:68;animation:ceVnQkak_draw_14 5600ms ease-in 0ms infinite,ceVnQkak_fade 5600ms linear 0ms infinite;}.ceVnQkak_15{stroke-dasharray:15 17;stroke-dashoffset:16;animation:ceVnQkak_draw_15 5600ms ease-in 0ms infinite,ceVnQkak_fade 5600ms linear 0ms infinite;}.ceVnQkak_16{stroke-dasharray:13 15;stroke-dashoffset:14;animation:ceVnQkak_draw_16 5600ms ease-in 0ms infinite,ceVnQkak_fade 5600ms linear 0ms infinite;}.ceVnQkak_17{stroke-dasharray:71 73;stroke-dashoffset:72;animation:ceVnQkak_draw_17 5600ms ease-in 0ms infinite,ceVnQkak_fade 5600ms linear 0ms infinite;}.ceVnQkak_18{stroke-dasharray:35 37;stroke-dashoffset:36;animation:ceVnQkak_draw_18 5600ms ease-in 0ms infinite,ceVnQkak_fade 5600ms linear 0ms infinite;}.ceVnQkak_19{stroke-dasharray:17 19;stroke-dashoffset:18;animation:ceVnQkak_draw_19 5600ms ease-in 0ms infinite,ceVnQkak_fade 5600ms linear 0ms infinite;}.ceVnQkak_20{stroke-dasharray:22 24;stroke-dashoffset:23;animation:ceVnQkak_draw_20 5600ms ease-in 0ms infinite,ceVnQkak_fade 5600ms linear 0ms infinite;}.ceVnQkak_21{stroke-dasharray:17 19;stroke-dashoffset:18;animation:ceVnQkak_draw_21 5600ms ease-in 0ms infinite,ceVnQkak_fade 5600ms linear 0ms infinite;}.ceVnQkak_22{stroke-dasharray:21 23;stroke-dashoffset:22;animation:ceVnQkak_draw_22 5600ms ease-in 0ms infinite,ceVnQkak_fade 5600ms linear 0ms infinite;}@keyframes ceVnQkak_draw{100%{stroke-dashoffset:0;}}@keyframes ceVnQkak_fade{0%{stroke-opacity:1;}91.07142857142857%{stroke-opacity:1;}100%{stroke-opacity:0;}}@keyframes ceVnQkak_draw_0{0%{stroke-dashoffset: 1213}23.92857142857143%{ stroke-dashoffset: 0;}100%{ stroke-dashoffset: 0;}}@keyframes ceVnQkak_draw_1{0.12987012987012986%{stroke-dashoffset: 604}24.058441558441558%{ stroke-dashoffset: 0;}100%{ stroke-dashoffset: 0;}}@keyframes ceVnQkak_draw_2{0.2597402597402597%{stroke-dashoffset: 230}24.188311688311686%{ stroke-dashoffset: 0;}100%{ stroke-dashoffset: 0;}}@keyframes ceVnQkak_draw_3{0.3896103896103896%{stroke-dashoffset: 277}24.318181818181817%{ stroke-dashoffset: 0;}100%{ stroke-dashoffset: 0;}}@keyframes ceVnQkak_draw_4{0.5194805194805194%{stroke-dashoffset: 299}24.448051948051948%{ stroke-dashoffset: 0;}100%{ stroke-dashoffset: 0;}}@keyframes ceVnQkak_draw_5{0.6493506493506493%{stroke-dashoffset: 145}24.577922077922075%{ stroke-dashoffset: 0;}100%{ stroke-dashoffset: 0;}}@keyframes ceVnQkak_draw_6{0.7792207792207791%{stroke-dashoffset: 151}24.70779220779221%{ stroke-dashoffset: 0;}100%{ stroke-dashoffset: 0;}}@keyframes ceVnQkak_draw_7{0.9090909090909091%{stroke-dashoffset: 68}24.83766233766234%{ stroke-dashoffset: 0;}100%{ stroke-dashoffset: 0;}}@keyframes ceVnQkak_draw_8{1.0389610389610389%{stroke-dashoffset: 77}24.967532467532468%{ stroke-dashoffset: 0;}100%{ stroke-dashoffset: 0;}}@keyframes ceVnQkak_draw_9{1.1688311688311688%{stroke-dashoffset: 75}25.097402597402596%{ stroke-dashoffset: 0;}100%{ stroke-dashoffset: 0;}}@keyframes ceVnQkak_draw_10{1.2987012987012987%{stroke-dashoffset: 108}25.227272727272727%{ stroke-dashoffset: 0;}100%{ stroke-dashoffset: 0;}}@keyframes ceVnQkak_draw_11{1.4285714285714286%{stroke-dashoffset: 109}25.357142857142854%{ stroke-dashoffset: 0;}100%{ stroke-dashoffset: 0;}}@keyframes ceVnQkak_draw_12{1.5584415584415583%{stroke-dashoffset: 78}25.487012987012985%{ stroke-dashoffset: 0;}100%{ stroke-dashoffset: 0;}}@keyframes ceVnQkak_draw_13{1.6883116883116882%{stroke-dashoffset: 74}25.616883116883116%{ stroke-dashoffset: 0;}100%{ stroke-dashoffset: 0;}}@keyframes ceVnQkak_draw_14{1.8181818181818181%{stroke-dashoffset: 68}25.746753246753247%{ stroke-dashoffset: 0;}100%{ stroke-dashoffset: 0;}}@keyframes ceVnQkak_draw_15{1.948051948051948%{stroke-dashoffset: 16}25.876623376623375%{ stroke-dashoffset: 0;}100%{ stroke-dashoffset: 0;}}@keyframes ceVnQkak_draw_16{2.0779220779220777%{stroke-dashoffset: 14}26.006493506493506%{ stroke-dashoffset: 0;}100%{ stroke-dashoffset: 0;}}@keyframes ceVnQkak_draw_17{2.2077922077922074%{stroke-dashoffset: 72}26.136363636363637%{ stroke-dashoffset: 0;}100%{ stroke-dashoffset: 0;}}@keyframes ceVnQkak_draw_18{2.3376623376623376%{stroke-dashoffset: 36}26.266233766233764%{ stroke-dashoffset: 0;}100%{ stroke-dashoffset: 0;}}@keyframes ceVnQkak_draw_19{2.4675324675324677%{stroke-dashoffset: 18}26.396103896103895%{ stroke-dashoffset: 0;}100%{ stroke-dashoffset: 0;}}@keyframes ceVnQkak_draw_20{2.5974025974025974%{stroke-dashoffset: 23}26.525974025974026%{ stroke-dashoffset: 0;}100%{ stroke-dashoffset: 0;}}@keyframes ceVnQkak_draw_21{2.727272727272727%{stroke-dashoffset: 18}26.655844155844154%{ stroke-dashoffset: 0;}100%{ stroke-dashoffset: 0;}}@keyframes ceVnQkak_draw_22{2.857142857142857%{stroke-dashoffset: 22}26.785714285714285%{ stroke-dashoffset: 0;}100%{ stroke-dashoffset: 0;}}</style></svg>