<svg xmlns="http://www.w3.org/2000/svg" viewBox="0 0 396.7 641.44"><g id="Layer_2" data-name="Layer 2"><g id="Layer_1-2" data-name="Layer 1"><path d="M185.32,431.77c33.38,8.33,66.18,18,94.17,39,11.18,8.32,21.38,18,29.05,29.71,3.27,5.05,5,11.09,7.35,16.81a41.62,41.62,0,0,1,1.38,4.65l1.23-.25c-1.55-8.4-2.53-16.89-4.65-25.13a126.11,126.11,0,0,0-8.49-23.83c-13.22-25.87-33.95-42.76-62.18-50.1-23.34-6-47.17-8.65-71.08-11.35-20-2.28-39.82-5.14-59-11.5-4.57-1.47-8.89-3.59-13.3-5.39l.41-1.22a11.19,11.19,0,0,1,2.36.4c20.57,7.59,42,10.53,63.65,12.65s43.34,4.82,64.63,9.63c19.67,4.41,38.28,11.26,54.43,23.59.49.24,1.07.49,1.64.73-7.27-11.67-14.77-22.2-25.46-30.19-8.9-6.61-18.85-10.12-29.63-12.16-22.68-4.16-45.45-8-67.89-13.3-26.6-6.29-50.76-18.36-72.46-34.93-2.62-2-4.74-4.49-7.1-6.77l.73-.74c2.61,2,5.06,4.25,7.75,6.12,22.28,15.34,46.44,26.12,73.12,31.09,20.4,3.76,40.72,7.92,61.12,11.92,1.63.32,3.35.49,5.06.73l.16-.81-22.93-6.37c-14.85-4.16-29.95-7.67-44.47-12.65-10-3.51-19.18-9.06-28.81-13.71l.49-1.14a5,5,0,0,1,1.55.49c17.79,10.2,37.46,14.69,57.13,19.18,11.5,2.61,23.09,5.06,34.43,8.24,15.67,4.41,29.62,12.57,42.84,21.95a7,7,0,0,0,2,1.06c-7.5-9.87-16.89-17.54-28.56-21.71-14-5.05-28.31-9.71-42.59-14.11-27.18-8.41-54.76-15.26-81.28-25.63-10.28-4-34-17.38-39.74-23.42.49.08.81,0,1,.17,19.5,13.54,41.45,21.78,64,28.39,23.59,6.94,47.17,13.71,70.84,20.57,11.34,3.26,22.68,6.45,33.94,9.55a36.69,36.69,0,0,1-4.4-3.59c-11.26-11.92-25.87-17.3-41.05-21.47-17.14-4.65-34.36-8.65-51.57-13-20.4-5.06-40.64-10.69-59.49-20.24-16.65-8.49-32.81-18-47.09-30.19C39,285.46,32.07,274.85,25.62,264c-10.44-17.38-15.26-36.32-17.3-56.06-1.47-14.37,2.29-28.08,6.28-41.7C21.05,144.12,27.66,122,33.78,99.81c2.86-10.53.16-20-8.24-27.42C22.68,69.86,19,69.29,16.16,71,5.79,77,1.63,86.26,12.32,96.14c2.69,2.45,6,3.83,9.55,2.53,3.75-1.39,5.38-4.57,5.38-8.49.08-.33.17-.65.25-1l1.06.08c-.33,2.78,0,5.8-1.14,8.16a8.09,8.09,0,0,1-7.67,4.66c-5.06-.17-15.1-5.55-17.39-13.63a18.67,18.67,0,0,1,5.8-18.85c12.4-10.45,27.5-2.7,32.64,7.91a30.3,30.3,0,0,1,3,18.53c-1.63,11.26-3.84,22.27-8.16,33-3.51,8.57-5.63,17.63-8.16,26.61-2.45,8.57-5.47,17.05-6.86,25.78-3.1,20.16,1.15,39.42,8.65,58.11,2,5.06,4.65,9.87,7,14.77,6.94,14.77,19.5,24.56,31.5,34.76,20.32,17.3,44.8,25.13,70.34,30.76a709.86,709.86,0,0,1,84.54,24.32c3.35,1.14,6.53,2.7,9.88,4.08l.57-.73a75.23,75.23,0,0,0-5.79-5.63c-7.84-6.29-17-9.22-26.77-10.77-11.67-1.88-23.58-2.94-34.93-6.12-14.85-4.17-29.13-10.12-43.74-15.1A139.6,139.6,0,0,1,75.4,283.09c-22.77-19.66-39.66-43-43.09-74.26-1.63-15.18-1.3-29.78,3.59-44.31,1.55-4.57,2.86-9.3,4.65-14-9.13,33.13-9.54,65.61,6.53,96.7l1.31-.25c-1.55-4.57-2.78-9.22-4.65-13.62-4.57-11.1-5.47-22.69-4.33-34.52,1.23-12.73,2.12-25.46,3.51-38.11a193.57,193.57,0,0,1,4.41-23.59c-1.14,9.47-2.45,18.86-3.51,28.32-2.12,18.12-5.06,36.23-1.55,54.35A133.7,133.7,0,0,0,56.22,259c1.8,3.18,4.41,5.87,6.69,8.73l.74-.41a7.48,7.48,0,0,0-.65-1.71c-13.31-20.4-16.24-43.17-14.86-66.75.9-15.26,2.29-30.52,3.92-45.78.74-7.35,2.86-14.61,3.51-21.95,1-10.86,1.14-21.71,1.22-32.65a17,17,0,0,1,.58,3.51c0,15.83,1.3,31.67-2.37,47.42-2,8.56-1.55,17.79-2,26.68-.49,11.59-1.55,23.18-.82,34.76,1.23,19.26,5.8,37.79,16.9,54.19,5.87,8.65,17.38,19.58,23.5,22.44-2.12-2.37-5.14-6-8.41-9.3-9.46-9.47-16.81-20.32-19.91-33.3a340.33,340.33,0,0,1-7.51-40.31c-1-8.73.25-17.87,1.31-26.68,2.28-20.73,5.55-41.38,5.3-62.35-.08-6.12,0-12.24,0-19.34.66,6.12,1.88,11.42,1.64,16.65q-1.11,24.48-2.94,49c-.9,13-3.1,25.87-2.94,38.84.16,11.26,2.86,22.44,4.49,33.71,3,21.05,14.85,36.64,30,50.67a86.6,86.6,0,0,0,32.48,19.26c18.77,6,37.05,13.46,56.63,16.73,10.53,1.71,21,3.34,32.4,5.22-5-2.28-9.14-4.81-13.63-6.12-15.18-4.32-30.36-8.32-45.7-12.08-9.87-2.36-20-4-30-6-12.81-2.69-22.85-10-31.5-19.42C81.85,268.89,72,253.39,66.26,235.52c-3.18-10.2-3.35-20.57-2.37-31,1.23-13.63,2.21-27.26,3.51-40.89,1.06-11.18,2.78-22.35,3.76-33.53,1.63-18.12-1.39-35.42-8.49-52.31A178.66,178.66,0,0,1,54.43,52c-2.37-9.38-4-19-5.71-28.64A19.93,19.93,0,0,1,49,16.74c1.06,5.14,1.63,10.44,3.18,15.42C55.73,44,59.49,55.83,63.65,67.5c1.47,4.16,4.41,7.83,7.1,11.42a215.11,215.11,0,0,0,30.44,32.89c13,11.34,27.9,18.93,43.9,25a8,8,0,0,0,2,.08c-26.77-18.28-55.33-32.81-75-58.76,3.27,3.19,6.45,6.53,9.88,9.47,9,7.51,17.71,15.34,27.17,22.11,10.2,7.43,21.14,13.8,31.75,20.65a19.27,19.27,0,0,1,2,1.39c7.67,7.67,17.54,10.77,27.41,14.11,7.19,2.45,14.29,5.39,21.71,7.68-4.24-2.62-8.49-5.31-12.81-7.76-31.17-18-62.35-36-89.19-60.22A114.66,114.66,0,0,1,79.15,74.68a6.74,6.74,0,0,1,.9.49c24.89,23.25,52.55,42.59,82.26,59.16,13.46,7.51,26.93,14.93,39.17,24.48,6.93,5.39,13.54,10.77,18.77,18.36a6.61,6.61,0,0,0,.4-1.3c-3.18-10.61-8.56-19.43-18.76-24.81-23.26-12.32-46.85-24.16-68.55-39.17C112.61,97.53,92.45,82.51,75.56,63.58c-.73-.9-1.55-1.72-2.2-2.61a4.77,4.77,0,0,1-.16-1.06,16.86,16.86,0,0,1,1.38,1.22c21.47,23.83,47,42.68,74.43,59.08,17.05,10.28,34.68,19.67,52.39,29,10.28,5.39,17,13.22,19.58,24.32,1.39,6,4.82,10.61,7.92,15.5l.89-.16c-.81-4.73-1.14-9.71-2.69-14.28-5.47-16-15.59-27.83-30.85-35.91-23-12.24-46.75-23.17-68.46-37.78a6.14,6.14,0,0,1-2.61-2.77c1.79,1.14,3.59,2.28,5.47,3.34,17.78,9.71,35.57,19.51,53.36,29.22,5.55,3,11.35,5.87,16.9,9,12.16,6.78,20.15,17.22,25.78,29.71s7.92,25.7,8.65,39.41a201.55,201.55,0,0,1-3.67,52.88,8,8,0,0,0,0,2,122,122,0,0,0,11.26-60.47c-1.14-17.63-5.38-34.11-13.54-49.53-6.37-12.16-16.32-21.06-28.57-27.18-16.23-8.16-32.88-15.58-49.12-23.74C139.21,96.38,126.57,90.1,115,82.35,103,74.27,91.56,65.13,83.8,52.48,81.6,49,78.66,45.87,76.71,42.2a31.11,31.11,0,0,1-.49-29.79C81.76,1.15,94.49-1,105.18,5.15c7.76,4.49,11.1,11.34,9.47,18.36s-9.47,11-14.93,7.51a22.48,22.48,0,0,1-3-3.1c2.77.65,4.89,1.63,6.85,1.38a10.57,10.57,0,0,0,5.55-3.18c2.78-2.85,2.61-8.32-.41-12.32-3.51-4.73-8.32-8.16-14.28-8.24-2.77-.08-5.79,2.2-8.32,3.92-1.39,1-2,3-3.18,4.48-6.12,7.92-3.51,15.92.16,23.59,4.33,9.38,12.16,16,19.75,22.68,19.75,17.38,42.6,29.54,66.59,39.83,11.75,5,23.42,10.2,34.76,16,21.54,10.93,35.5,28.64,43.41,51.25,11.35,32.64,9.06,64.79-4.24,96.37-4.9,11.67-9.71,23.34-10.69,36.23a37.53,37.53,0,0,0,6,23.18c.41-5.39.32-10.69,1.38-15.83,3-14.61,5.8-29.38,9.88-43.74a250,250,0,0,0,9-66.35,7.41,7.41,0,0,1,.74-3.75c0,10.12.08,20.24,0,30.36-.25,17.46-5.06,34.11-9.3,50.84-3.84,14.93-7.1,30-6.86,45.61a139,139,0,0,0,1.39,14.2,8,8,0,0,0,2,4.16c-.25-4.24-.33-8.48-.65-12.73-1.72-20.4,2.44-39.82,10.28-58.43,9.71-23.17,12.16-47.08,10.61-71.89-1.23-20.4-7.76-39.25-15.18-57.94-.33-.89-.74-1.71-1.06-2.53a3.13,3.13,0,0,1,0-1.22,10.49,10.49,0,0,1,1.47,1.88C266.11,164.6,273.21,195,270.76,227A144.3,144.3,0,0,1,261,270.61c-8,19.83-11.84,40.47-9.63,61.93.24,2.21.49,4.41.81,6.86.82-6,1.31-11.83,2.45-17.38,1.23-5.88,3-11.67,4.57-17.47s3.18-11.42,4.49-17.13c3.51-15.34,6.94-30.77,10-46.19.89-4.57.57-9.47.73-14.2l.16-3.59.9-.08a38.64,38.64,0,0,1,.9,4.16c.9,11.59-.57,22.93-3.18,34.19C270,275.34,266,288.8,262.52,302.43c-4.08,15.92-6.86,32-5.14,48.56.4,3.83,1.55,7.67,2.44,11.83,1-8,1.72-15.34,2.7-22.6,2.36-17.06,8.32-33.05,14.85-48.8a136.26,136.26,0,0,0,9.87-42.52c.08,2,.33,3.92.33,5.88a53,53,0,0,1-.41,6.28,216.42,216.42,0,0,1-11.83,47.49c-5.39,14.2-7.92,29.05-9.47,44.07-1.22,12.24,4.08,22.77,10,33.78a24.48,24.48,0,0,0,.65-3.51c.25-12.24,4.9-23.25,9.3-34.35,4.33-10.69,9-21.38,11.92-32.56,2-7.43,1.14-15.59,1.47-23.42a25.68,25.68,0,0,1,.41-5.06c1.95,6.85,3.26,13.95,1.87,20.81-2.69,13.38-6,26.6-9.71,39.82-4.65,16.73-7.51,33.46-4.32,50.84.24,1.47.73,2.86,1,4.24,2-9,3.59-18.19,6.12-27.17a200.33,200.33,0,0,1,9.05-26.28c10.78-24.4,15.18-49.61,11.43-76.05a81.44,81.44,0,0,0-9.55-29c-.73-1.23-1.22-2.45-1.88-3.67l.74-.49c2.12,3.42,4.57,6.69,6.28,10.36a103.32,103.32,0,0,1,8.49,59.41c-2.94,19.58-8.16,38.52-14.2,57.28a240.28,240.28,0,0,0-7.34,30c-2.86,15.67,2.77,29.38,11.34,43a67.07,67.07,0,0,1,2.12-7.59c4.08-10.44,8.24-20.89,12.57-31.25,3.67-8.74,7.91-17.3,11.58-26,8.49-20.31,7.76-40.72-.08-61-1.71-4.41-3.83-8.65-6-13.71,1,.65,1.31.73,1.39,1,6.28,12.32,12.41,24.89,13.71,38.84,1.39,14.93.41,29.46-7.18,43.17-5.22,9.46-8.81,19.91-13.06,29.95-1.06,2.44-2,5-3,7.42-7.1,16.24-7.42,32.81-1.71,49.45a14.16,14.16,0,0,0,.82,1.72c.81-2,1.38-3.67,2.12-5.31a100,100,0,0,1,19-28.48c5.47-5.63,11.1-11.18,16.24-17.13,8.16-9.39,11.51-20.49,10.69-32.89a3.24,3.24,0,0,1,.74-2.45c.24,2.12.73,4.16.81,6.29.65,12.4-3.34,23.17-11,32.88-6.36,8.08-13,16.08-18.68,24.65a87.49,87.49,0,0,0-15.1,45.21c-.24,5.14.57,10.28.9,15.42l1.06.16c1.47-2.12,2.77-4.4,4.41-6.44,8.56-10.61,19.09-18.12,33.29-18.2,10.28-.08,19.42,3.51,25.71,12.24,6.36,8.89,6,18.52,1.14,27.66-4.25,8-11.67,12.49-20.73,13.71C360,541.37,354.4,534.27,358,524.23a24.88,24.88,0,0,1,4.65-7.67c-.65,3.1-1.38,6.28-1.79,9.39-.57,4.48,1.55,7.26,6.12,8.16,9.63,1.87,21.3-6.7,22.77-16.49,2.36-16-8.49-24.4-21.87-26.19-14-1.8-24,5.87-31.91,16.24-7.75,10-11.59,21.78-12.08,34.6a122.65,122.65,0,0,1-13.14,50.84c-1.38,2.77-2.61,5.71-3.75,8.65-4.73,12.81-12.08,24.23-19.75,35.41a8.51,8.51,0,0,1-1.06,1.39c-.08.16-.41.08-1.47.33,2.45-4.74,5-8.9,6.86-13.31,4.32-10.12,9.14-20.07,12.08-30.6,2.12-7.26-.17-14.93-4.33-21.62-2.61-4.25-6.45-6.37-11.34-6a54.22,54.22,0,0,0-10.28,1.55c-10.86,2.94-14.45,13.55-13.71,21.3.49,5,3.5,8.48,8.07,10.52,3.6,1.56,6.86.58,9.72-1.79,2.53-2.12,1.79-5.06,1.22-7.75-.25-1.23-.73-2.37-1.14-3.76,5.14,1.31,6.69,9.88,2.85,14a10.77,10.77,0,0,1-9.46,3.34c-11.51-1.38-17.87-9.63-15.67-21,2.61-13,11.42-22.77,27.25-20.73,8.9,1.15,13.63,6.78,17.22,14,1.39,2.86,2.21,6,3.35,9.14.08,0,.41,0,.49-.08,5.14-14.53,9.55-29.46,6-44.88-4.82-21.06-16.24-37.62-37-46.19-17.79-7.35-36.07-12.65-55.49-9.71-8.65,1.3-17.14,4.08-25.79,5.87a189.63,189.63,0,0,1-19.17,3.18c-17.71,1.88-34.2-14.85-36.73-29.86-1.46-8.65,1.72-15.75,7.68-21.71,3.26-3.26,7.5-4,11.91-3.75,6.53.32,15.67,8.08,17.22,14.44,1.39,5.71-3,11.34-8.24,10.45-.66-.08-1.15-.57-2.37-1.15a20.11,20.11,0,0,1,2.94-2.2c3.18-1.63,3.67-4.24,2.69-7.34a14.38,14.38,0,0,0-13.06-9.88c-6.28-.16-10.36,2.45-12.81,8.65-3.43,8.65-3.26,16.81,3.67,23.83.9.9,1.72,1.88,2.53,2.86,7.35,8.48,16.73,11.58,27.5,9.54,8.33-1.55,16.57-3.5,24.73-5.54a102.32,102.32,0,0,1,65.45,4.73c10,4.08,20.15,7.75,28.56,14.93l5.87,5.14.9-.73c-4.9-6.53-9.55-13.22-14.69-19.59-7.75-9.63-17.62-16.72-28.4-22.6a369.51,369.51,0,0,0-61-26.85C195.6,435.77,190.46,433.73,185.32,431.77ZM208.5,304a21.1,21.1,0,0,0,0-3.18c-1.8-12.32,1.14-23.91,4.65-35.58,5.63-18.44,9.63-37.21,8.08-56.79-1.39-17.39-8.08-32.08-23.1-41.54-8.57-5.39-18.2-9.22-27.58-13.14-8.57-3.59-17.55-6.12-26.2-9.3-10.11-3.76-19.91-8.24-30.19-11.59C102.41,129,93,122,84.29,113.68c-.49-.49-1.14-.89-2.53-2,3,9.06,1.39,17.14.41,25.3-.9,7.34-1.14,14.77-2,22.2-1.46,12.65-3.18,25.29-4.65,37.94a85.38,85.38,0,0,0-.08,9.06V223.2l-.49.08c-1-5.31-2-10.61-2.85-15.92A89.76,89.76,0,0,0,76,238.62c5.14,15.75,13.63,28.8,27.91,38.11,19.42,12.65,40.64,17.95,63.49,19C181.32,296.39,195.52,296.31,208.5,304Zm11.75,16c-5.47-11.26-5.88-22.93-3.84-34.85.9-5.46,2.94-10.69,4.57-16,6.12-19.91,9.55-40.15,5.71-61a91.29,91.29,0,0,0-2.53-9.3c-.08,3.18,1,6.2,1,9.22.17,7.75.66,15.58-.49,23.17-2.12,14.2-3.75,28.48-9,42.11-4.49,11.51-6.78,23.34-2.37,35.58.33.9-.33,2.12-.49,3.1-1.14-.41-2.61-.49-3.26-1.22a25.82,25.82,0,0,0-16.73-8.49c-8-1-16.08-1.71-24.16-2.45-3.75-.33-7.59-.41-11.59-.65,10.86,2.77,21.63,5.06,32.16,8.24s21.79,5.14,31,12.57ZM69,83.57l-.49.25a25.4,25.4,0,0,0,.82,3.34c6.61,21.22,7.91,42.93,5.63,65-1,9.22-.9,18.6-1.31,27.91l.9.08C78.42,156,82.34,132,79.23,107.24c10.12,7.91,18.37,17.3,29.46,21.54-6.77-6.61-14.52-13.3-21.13-20.89S75.07,91.65,69,83.57Zm64.39,211.19c-4.82-2.12-9.55-3.92-14-6.2A123.39,123.39,0,0,1,106,280.4c-4.08-2.77-7.91-6-12.32-9.47C101.76,283.26,120,294,133.34,294.76ZM28.48,249.15c-1.88-1.8-2.94-3.6-4.25-3.84-1-.16-2.93,1.71-3.34,3-.74,2.37,1.22,3.83,3.26,3.83C25.29,252.16,26.44,250.61,28.48,249.15Zm0,16.07c1.87,1.47,3.1,3.18,4.08,3,1.14-.16,3.1-2,2.94-2.86a5.13,5.13,0,0,0-2.94-3.26c-.82-.16-2.21,1.63-4.08,3.1Zm18.77,15.1c-2.13-1.31-3.27-2.69-4.49-2.69-.9,0-2.61,1.95-2.45,2.77.16,1.22,1.71,2.94,2.77,3s2.21-1.55,4.17-3.1Zm12.24,11.75c-2-1.47-3.1-2.78-4.25-2.94-.81-.08-2.69,1.8-2.53,2.29a6,6,0,0,0,2.78,3.26C56.14,295,57.53,293.46,59.49,292.07ZM236,148.53c-1.64-1.31-2.7-2.69-3.59-2.69s-2.53,1.55-2.45,2.36a3.88,3.88,0,0,0,2.36,2.69C233.14,151.06,234.28,149.75,236,148.53ZM317,558.91h.89c.82-4.65,2.7-9.14,1.8-13.95l-1.14-.16ZM70.83,300.07c-1.14,1.63-2.29,2.53-2.2,3.34.08,1,1.3,1.8,2,2.69.89-.81,2.2-1.55,2.53-2.52C73.28,302.84,72,301.78,70.83,300.07ZM87.4,310c-1.07,1.39-2.37,2.37-2.21,2.94.33,1.06,1.47,2,2.29,2.86.73-.82,2-1.64,2.12-2.45s-1.14-1.88-2.2-3.35ZM281.61,419.37c-1.22-1.06-2.12-2.45-2.77-2.28-1,.24-1.72,1.38-2.53,2.2.81.82,1.55,2,2.45,2.2C279.41,421.66,280.39,420.35,281.61,419.37ZM21.38,233.07c-1.47-1-2.53-2-2.86-1.88a7.52,7.52,0,0,0-2.36,2.7c-.17.24,1.46,1.87,1.79,1.71A14.6,14.6,0,0,0,21.38,233.07Zm207,59.24c-1.55-1-2.45-2.12-3.27-2S223,291.58,223,292.4s1.31,2.2,2,2.2C225.88,294.52,226.77,293.37,228.41,292.31Zm24,104.05c-1.14,1.47-2.45,2.61-2.29,3a5.72,5.72,0,0,0,2.53,2.28c.33.17,1.88-1.3,1.8-1.87C254.44,398.81,253.46,397.91,252.4,396.36ZM102.17,325.12c.81-1.47,1.71-2.45,1.63-3.27s-1.55-2-1.88-1.79c-.9.41-2.12,1.39-2.2,2.2S100.94,323.81,102.17,325.12Zm129-44.31c.9-1.8,1.71-2.78,1.71-3.76,0-.49-1.46-1.71-2-1.55-.89.25-2.28,1.39-2.2,2,.16.9,1.31,1.8,2.53,3.35Zm34,124.44c-1.55-.81-2.45-1.71-3.35-1.71-.57,0-1.79,1.63-1.63,2a3.75,3.75,0,0,0,2.29,1.88c.65.08,1.47-1.07,2.69-2.13Zm8.73,6.61c-1.22-1.06-1.88-2-2.85-2.28-.41-.08-1.8,1.39-1.72,2a3.43,3.43,0,0,0,2,2.28c.49.17,1.47-1.06,2.61-2Zm-35.33-247.5c1-1.22,2-2.12,1.87-2.61-.24-.9-1.22-1.63-1.87-2.45-.74.73-2,1.31-2,2.12C236.49,162.07,237.63,163,238.61,164.36Zm-11,142.32c-1.47-.9-2.28-1.72-3.26-1.88-.41-.08-1.06,1.14-1.64,1.71a10.37,10.37,0,0,0,2.37,2C225.55,308.63,226.37,307.57,227.59,306.68Zm-108.7,21.46c-1.38-1-2.12-1.88-3-2.12-.41-.09-1.15,1-1.8,1.55.73.73,1.31,1.71,2.2,2.12C116.69,329.93,117.59,329,118.89,328.14Zm87.65,23.5c-1.23-1-2.12-2.12-2.61-2a3,3,0,0,0-1.8,2c-.16.49,1,2,1.22,1.88a24.37,24.37,0,0,0,3.19-2Zm42.68-150.8c-1.07,1.3-2,1.95-2,2.77-.09.57.81,1.31,1.3,2a13.93,13.93,0,0,0,2.2-2.12c.17-.41-.73-1.31-1.46-2.61Zm.08-13.63a14.64,14.64,0,0,0-3-2.12c-.25-.09-1.55,1.38-1.47,1.71a5,5,0,0,0,2.12,2.2c.33.17,1.22-.89,2.37-1.79ZM137.09,89.45c-1.39-1.06-2.12-2-2.85-2.12s-1.31.81-2,1.22c.65.73,1.22,1.71,2,2C134.73,90.83,135.62,90.1,137.09,89.45Zm9.47,7.91c.73-1.22,1.55-2.12,1.39-2.45a4.25,4.25,0,0,0-2.21-1.71c-.32-.08-1.55,1.22-1.39,1.71C144.6,95.65,145.5,96.22,146.56,97.36Zm91.72,160.27c-.82,1.47-1.71,2.37-1.63,3.1s1.14,1.31,1.79,2c.49-.81,1.31-1.55,1.47-2.36C239.91,259.67,239.1,258.94,238.28,257.63Zm-109,72.22c-.82,1.06-1.88,2-1.72,2.37a3.45,3.45,0,0,0,2.13,1.71c.49.08,1.71-1.14,1.63-1.55C131.05,331.57,130.16,331,129.26,329.85Zm18.2,6.53c-1.23-.9-2-1.8-2.78-1.88-.65-.08-1.3.9-2,1.39a11,11,0,0,0,2.21,2.12C145.33,338.18,146.23,337.2,147.46,336.38Z" style="fill:none;stroke:#fff;stroke-miterlimit:10;stroke-width:2.5px"/><path d="M99.54,209.72c-.27-11.49,1.08-21.24,4.31-30.59a55,55,0,0,1,7.05-13.64c3-4,8.21-4.24,12.64-3.63,13.18,1.74,25.82,5.71,38.32,10.48,9.82,3.77,17.35,10.36,24.61,17.35a44.08,44.08,0,0,1,8.74,12.3c3.7,7.6,7.87,15.26,6,24.27-.67,3.36-1.88,6.59-2.89,9.89a70.53,70.53,0,0,1-15.06,27.36,21.29,21.29,0,0,1-7.53,5c-16.6,6.86-33.08,5.72-49.21-1.48-7.26-3.22-13.18-8.6-18.09-14.65a23.17,23.17,0,0,1-4.16-9.35C101.69,231.57,99.27,220.08,99.54,209.72Zm4.31.88a72.06,72.06,0,0,0,2.89,24.6c1.48,5,3.22,10.16,6.18,14.32a43.7,43.7,0,0,0,23.73,16.68c8.34,2.49,16.95,3.9,25.42,1.75,11.83-3,21-10.22,27.36-20.78a57.66,57.66,0,0,0,7.39-19.43c1.75-9.54.07-18.22-5.78-26-5-6.79-10-13.64-17.34-18.08A140.17,140.17,0,0,0,145.19,171c-9.61-3.23-19.23-3.5-29.11-2.35a4.09,4.09,0,0,0-3.63,2.62,82.07,82.07,0,0,0-8.6,39.33Z" style="fill:none;stroke:#fff;stroke-miterlimit:10;stroke-width:2.5px"/><path d="M190.17,276.93c2.62.54,4.51,2.56,4.3,4.58a3.35,3.35,0,0,1-3.43,3.22,3.39,3.39,0,0,1-3.42-4C188,279.35,189.3,278.21,190.17,276.93Z" style="fill:none;stroke:#fff;stroke-miterlimit:10;stroke-width:2.5px"/><path d="M98.06,146.66A3.07,3.07,0,0,1,95,143.3c0-2.29,1.48-3.16,3.56-3.16a2.86,2.86,0,0,1,3.16,3.23C101.56,145.45,100.15,146.53,98.06,146.66Z" style="fill:none;stroke:#fff;stroke-miterlimit:10;stroke-width:2.5px"/><path d="M190.51,264.85c1,1.62,2.08,2.56,2.08,3.43s-1.28,1.48-2,2.22c-.8-.87-2-1.61-2.28-2.62C188,267.34,189.36,266.33,190.51,264.85Z" style="fill:none;stroke:#fff;stroke-miterlimit:10;stroke-width:2.5px"/><path d="M181.63,275.88c-1.41.87-2.29,1.81-3,1.75a2.84,2.84,0,0,1-1.75-1.95c0-.68,1.21-1.75,1.89-1.75S180.35,274.87,181.63,275.88Z" style="fill:none;stroke:#fff;stroke-miterlimit:10;stroke-width:2.5px"/><path d="M92.82,174.5c-.81-1.08-1.61-1.75-1.61-2.36s.94-1.07,1.41-1.61c.6.54,1.48,1,1.54,1.61C94.37,172.81,93.49,173.42,92.82,174.5Z" style="fill:#fff;stroke:#fff;stroke-miterlimit:10;stroke-width:2.5px"/><path d="M90.47,197.82c-1.15.68-1.89,1.48-2.42,1.35a2.65,2.65,0,0,1-1.35-1.75c-.07-.34,1-1.28,1.48-1.21S89.39,197,90.47,197.82Z" style="fill:#fff;stroke:#fff;stroke-miterlimit:10;stroke-width:2.5px"/><path d="M95.78,151.7c.74,1.15,1.48,1.89,1.41,2.42s-1,1.08-1.55,1.55c-.47-.54-1.27-1-1.27-1.55S95,152.85,95.78,151.7Z" style="fill:none;stroke:#fff;stroke-miterlimit:10;stroke-width:2.5px"/><path d="M115.48,226.33c.94-12,2-21.45,5-30.66,2.75-8.27,7.86-11.63,16.13-12a53.67,53.67,0,0,1,23.2,4.17,84.66,84.66,0,0,1,23.66,14.38c6.32,5.58,9.15,12.71,8.94,21.11-.33,19.1-11.49,30.53-27.36,38.53-12.37,6.25-24.13,4.17-35.16-3.09-7.06-4.64-11.29-11.64-13-19.9A112.43,112.43,0,0,1,115.48,226.33Zm25.61-35.7a15.83,15.83,0,0,0-1.68-.07c-8.87-.53-10.82.88-13.38,9.28a113.94,113.94,0,0,0-4.57,33.95c.13,14.52,11.16,24,24.07,26.69,11.83,2.49,22.18-2,31.26-9.48,12.44-10.35,16.67-32.67,2.49-44.23-11.43-9.28-23.4-16.07-38.19-16.14Z" style="fill:none;stroke:#fff;stroke-miterlimit:10;stroke-width:2.5px"/><path d="M121.26,175.1c2.55.4,4.64,2.35,4.57,4.24a3,3,0,0,1-3.16,2.95c-2.15.14-4.17-1.54-3.7-3.69C119.17,177.32,120.45,176.24,121.26,175.1Z" style="fill:none;stroke:#fff;stroke-miterlimit:10;stroke-width:2.5px"/><path d="M115.74,194.46c-.67-1.14-1.88-2.28-1.94-3.43,0-.8,1.74-2.42,2.42-2.28a4.23,4.23,0,0,1,2.68,2.55c.14.94-1.14,2.09-1.81,3.16Z" style="fill:none;stroke:#fff;stroke-miterlimit:10;stroke-width:2.5px"/><path d="M140,178c-1.82,1.35-2.83,2.76-3.63,2.62-1.08-.13-1.95-1.54-2.89-2.35.8-.87,1.61-2.29,2.48-2.35S138,176.85,140,178Z" style="fill:none;stroke:#fff;stroke-miterlimit:10;stroke-width:2.5px"/><path d="M150,180.68c-1.08.74-1.75,1.55-2.29,1.48s-1.14-.94-1.75-1.41c.61-.61,1.08-1.55,1.82-1.75C148.15,178.93,148.89,179.87,150,180.68Z" style="fill:none;stroke:#fff;stroke-miterlimit:10;stroke-width:2.5px"/><path d="M128.32,223.44c.27-6.93,1.61-13.45,6.05-19.09,2.28-2.9,5.17-4.71,8.8-4.44,3.84.33,7.94.54,11.5,1.88,7.73,3,15.67,5.78,21,12.77,4.77,6.19,7.19,12.64,3.9,20.44-1.68,3.9-4.31,6.32-8.27,6.39-6.52.2-10.63,3.09-13.85,8.74-4,6.92-13.72,7.26-19.7,1-5.18-5.45-7.66-12.24-8.81-19.57A79.28,79.28,0,0,1,128.32,223.44Z" style="fill:none;stroke:#fff;stroke-miterlimit:10;stroke-width:2.5px"/><path d="M172,249.19a4.24,4.24,0,0,1-4.17,4.37h-.07c-1.81,0-3.7-2-3.76-4s2.28-4.3,4.5-4.37C170.54,245.15,172,246.77,172,249.19Z" style="fill:none;stroke:#fff;stroke-miterlimit:10;stroke-width:2.5px"/></g></g></svg>