<svg xmlns="http://www.w3.org/2000/svg" viewBox="0 0 803.15 361.35"><g id="Layer_2" data-name="Layer 2"><g id="evNPbVhepu61"><path d="M30.51,178.87c.17-1.38.35-2.21.38-3.05.67-18.4,5.75-35.65,14-52,4.12-8.21,8.59-16.33,15.1-22.94A138.63,138.63,0,0,1,71.56,91,11.81,11.81,0,0,1,75,89.43c1.61-.56,3.23-.64,4.53.73a4.26,4.26,0,0,1,.83,4.93,47.87,47.87,0,0,1-4,7.92c-8.7,12.19-13.48,26.07-17.06,40.35a76.17,76.17,0,0,0-1.82,17.47q-.21,16.86.48,33.71c.29,6.69,1.36,13.36,2.29,20a32.64,32.64,0,0,0,1.87,6.28c2.67,7.6,5.45,15.18,8.07,22.78a15.36,15.36,0,0,1,.87,4.13,3.9,3.9,0,0,1-2.85,4.21c-2,.41-3.19-.71-4.13-2.27s-2-3.26-3-4.86a64.83,64.83,0,0,0-9.2-11,46.5,46.5,0,0,1-10.74-16,96.39,96.39,0,0,1-6.79-28.28,1.46,1.46,0,0,0-.46-.91c-.83,2.9-1.79,5.74-1.1,8.83a58.07,58.07,0,0,1,1,5.85c.24,2.19-.69,3.77-2.26,4-2,.33-2.92-1-3.58-2.62-1-2.27-1.77-4.61-2.87-6.81-2.34-4.67-5.92-8.2-9.76-11.61-5.16-4.64-9.75-9.89-11.74-16.63-2.45-8.32-2.33-16.53,2.78-24.19A45.85,45.85,0,0,1,18,133.56c2.63-1.88,5.06-4.07,7.78-5.83a29.59,29.59,0,0,1,6-2.67c2.33-.85,3.73,0,4.15,2.39a6.66,6.66,0,0,1-.26,3.51c-4.36,10.45-5.45,21.59-6.95,32.67A37.17,37.17,0,0,0,30.51,178.87Z" style="fill:none;stroke:#fff;stroke-width:4px"/><path d="M67.38,173.42C67,159.34,69.85,143.5,75.1,128.3A150.38,150.38,0,0,1,114,67.4c5.5-5.21,10.89-10.49,17.36-14.54a21.33,21.33,0,0,1,6.54-2.76,5.3,5.3,0,0,1,4,1.24c1.65,1.4,1.18,2.57-.66,3.74-3.37,2.12-6.41,4.59-8.24,8.3a57,57,0,0,1-3,5.1C122.71,80,116.69,92,113,105.09a354.66,354.66,0,0,0-8.77,42.1c-2.88,18.12-4.79,36.32-4.32,54.68a152.63,152.63,0,0,0,9.23,49.36c5,13.4,10.71,26.29,18.83,38.12a11.19,11.19,0,0,1,1.71,4.27,5.06,5.06,0,0,1-2.23,5.36,4.4,4.4,0,0,1-5.38-.18c-4.1-3.22-8.41-6.3-12-10.06A129.68,129.68,0,0,1,89.4,259.87c-8.56-16.23-15.23-33.17-18.89-51.16A168.12,168.12,0,0,1,67.38,173.42Z" style="fill:none;stroke:#fff;stroke-width:4px"/><path d="M724.36,196.56c-1.33,5.28-2.51,10.43-3.93,15.51-2.34,8.2-7.85,14.14-14.36,19.2a66.23,66.23,0,0,1-18.39,10c-14.95,5.36-36.16.07-42.63-18.47-2.14-6.13-4-12.35-5.79-18.61a35.83,35.83,0,0,1,.07-18.67A66,66,0,0,1,643,174.23c4.28-9.33,12-14.4,21.91-15.74,9.56-1.28,17.46,2.06,23.21,10.12,4.39,6.16,6.48,12.76,5.31,20.34-1.77,11.4-11.73,20.14-22.91,19.81-6.13-.18-10.63-3-13.12-8.75-.59-1.36-1.16-2.73-1.74-4.1-3.71-8.91,3.11-17.67,11.76-18,2.08-.07,4.2.89,6.44,1.41.15-.43.36-.93.51-1.46,1.56-5.54,1.38-5.61-4.67-6.39s-15.37,3.78-17.95,11.84a45.11,45.11,0,0,0-1,25.3c.68,2.74,1.48,5.44,2.28,8.16,2.49,8.38,8.2,12.94,16.92,13.41a63,63,0,0,0,8.69.05,17.68,17.68,0,0,0,6.31-1.55c4.42-2.2,8.74-4.62,12.94-7.21,8.56-5.29,12.74-13.34,14.12-23.06.43-3,1-6,1.27-9,1.21-14-2.16-26.78-11.09-37.86a82.36,82.36,0,0,0-18.5-17.36,76.71,76.71,0,0,0-15.73-7.7c-13.63-5-27.69-4.2-41.69-1.93A54,54,0,0,0,615.37,128c-19.45,7.68-36.65,19.19-53.33,31.56-4.76,3.54-9.58,7-14.25,10.69a79.81,79.81,0,0,0-18.46,20.57c-4,6.33-8.56,12.29-12.85,18.42-3.25,4.63-6.42,9.34-9.72,13.9a33.87,33.87,0,0,1-3.11,3.34,16.72,16.72,0,0,0-1.56,1.7c-6,9-12.5,17.67-20.17,25.33-6.41,6.39-13.12,12.45-19.62,18.76q-4.11,4-7.95,8.23a276.42,276.42,0,0,1-43.48,39c-6.69,4.81-14.06,8.73-21.37,12.55-8.95,4.67-18,9.34-27.34,13.13-15.39,6.22-31,12.06-47.76,13.38A203.29,203.29,0,0,1,262,356.35c-20.08-3.61-38.89-10.66-57-20-2.63-1.37-5.31-2.66-8-4a86.35,86.35,0,0,1-23.63-17.73c-1.48-1.55-2.91-3.11-4.5-4.49-9.34-8.15-17-17.71-24.75-27.29C136,272.64,130,261,123,250.11c-2.08-3.27-3.28-7.17-4.56-10.89a78.35,78.35,0,0,1-3.34-11.82q-1.83-9.9-2.66-20c-.77-10.22-1.16-20.47-1.48-30.72a128.74,128.74,0,0,1,3.52-32.6,344.22,344.22,0,0,1,13.3-44.24,166.34,166.34,0,0,1,29.38-49.78c6.47-7.62,13.11-15,20.8-21.43,13.6-11.3,29.38-18.17,46.36-22.55C234.4,3.57,244.69,2.59,255,2a35.72,35.72,0,0,1,7,.46c17.36,2.46,32.51,10.19,46.79,19.91,6.22,4.22,12.1,8.85,16.87,14.73,8.68,10.71,13.89,22.83,14.29,36.67.16,5.61-.78,11.25-1.05,16.89-.13,2.81.21,5.63.36,8.45.12,2.47.38,4.94.37,7.4,0,6.78,2.33,12.88,5.13,18.87a38,38,0,0,0,11.53,13.86c7.49,5.82,19.3,6,26.79,1.17a43,43,0,0,0,14-14.27c1.52-2.55,2.46-5.3,1.44-8.4-.44,1.56-.86,3.08-1.34,4.59-2,6.29-6.65,9.22-12.91,10a8.5,8.5,0,0,1-7.51-2.65c-5.81-6-6.72-13.22-2.56-20.4,4.45-7.71,14.78-12.23,22.93-10.12,5.64,1.48,8.84,5.51,10.74,10.58,4.4,11.72,1.91,21.93-6.36,31.37-11.67,13.34-30.64,14-43.93,8.13-14-6.22-22.69-17.37-26.28-32.36-.27-1.13-.34-2.33-.59-4-2.06,3.29-3.74,5.69-2.83,9.67a42.92,42.92,0,0,0,11.43,21.13c3.11,3.17,5.83,6.73,9,9.89,8.9,9,19.53,11.5,31.75,8.43a69.43,69.43,0,0,0,26.33-12.71c4-3.11,8.25-6,12.51-8.76a33.2,33.2,0,0,1,26.52-5c9.57,2.16,14.84,12,10.81,20.33a10.09,10.09,0,0,1-14.53,4.44,6.31,6.31,0,0,1-3.24-5.18c-.18-3,1.66-4.61,4.67-4.16a12.37,12.37,0,0,0,3.33.19c1.55-.19,2.14-1.23,1.25-2.57A8.39,8.39,0,0,0,445,146a14.16,14.16,0,0,0-11.3-1.34,48.45,48.45,0,0,0-11,4.81c-4.94,3-9.53,6.6-14.25,10a73,73,0,0,1-38,13.65c-9.61.67-17.89-2.84-25.24-8.78C338,158.52,332.33,151.37,327,144a28.16,28.16,0,0,1-5.65-16.39,11.62,11.62,0,0,0-.21-1.44,11.66,11.66,0,0,0-1.13.68c-9.72,7.7-20.64,10.85-32.94,8.49a16.51,16.51,0,0,1-9.94-5.61c-.87-1-3.07-1.44-4.58-1.3-10.31,1-19.73,3.89-28,10.7a55.42,55.42,0,0,0-13.07,15.09c-1.28,2.18-2.45,4.45-3.89,6.5a3.33,3.33,0,0,1-2.68,1.38,3.1,3.1,0,0,1-1.9-2.33,9,9,0,0,1,1.25-3.68c1.1-2.24,2.33-4.42,3.55-6.63-4.24-2-4.92-3.75-4-8,2.14-9.6,7.41-17.49,13.45-25,3.33-4.13,6.58-8.32,10.07-12.32A39.89,39.89,0,0,1,260.58,94a2.59,2.59,0,0,0,1.29-1.64c2.63-15.61,10.81-27,25.21-33.89.11-.06.18-.21.35-.44a3.18,3.18,0,0,0-.63-.69c-3.11-2-6.12-4.1-9.34-5.87-9.13-5-18.67-4.71-28.41-2-12.17,3.35-21.43,11-30.33,19.45-12.39,11.79-19.45,26.31-23.85,42.53a101.52,101.52,0,0,0-3,32.38c.73,12.92,6.54,24,14.31,34.1,2.25,2.91,4.77,5.61,7,8.51,1.79,2.33,3.39,4.78,5.14,7.27,1.19-.46,1.91-1.55,2.22-3.3,1.19-6.43,4.6-11.83,8.35-17,8.4-11.58,19.2-19.66,33.5-22.49,9.41-1.86,18.58-.32,27.7,1.89,14.49,3.5,26.49,11.22,36.56,22s19.55,21.78,29.45,32.56c11.34,12.33,23.47,23.82,38.3,31.89a201.65,201.65,0,0,0,22.42,10.54c11.35,4.49,22.56,3.11,33.11-2.78a83.68,83.68,0,0,0,13.22-9.45,28.09,28.09,0,0,0,10-20.6,16.6,16.6,0,0,0-4.17-11.9,31.47,31.47,0,0,0-10.21-8.12,8.71,8.71,0,0,0-9.6.78,36,36,0,0,0-11.95,15.14,9,9,0,0,0-.78,3.69c.19,3.68,2.34,6.28,5,6.47,3.25.22,7-2.73,7.7-6a47.16,47.16,0,0,1,1.46-5.73,4,4,0,0,1,4-3c2.13,0,3.25,1.49,3.93,3.34,2.61,7.2-2,18.11-9.27,21.82a16.72,16.72,0,0,1-21.87-5.71c-4.17-6.33-5.12-13.11-2.49-20.23,4.37-11.78,13.17-19,24.64-23.2a14.44,14.44,0,0,1,10.19.4c8.94,3.31,16,8.85,20.75,17.26.22.39.49.77.9,1.43,1.3-6.23,3-12.17-1-17.61a29.06,29.06,0,0,0-6.56-6.49,18.51,18.51,0,0,1-8.19-13.49c-.77-6.58,3.26-10.4,9.8-9.41a11.83,11.83,0,0,1,8.39,5.12c6,8.56,7.86,18.17,6.1,28.28-1.95,11.19-4.56,22.27-6.88,33.4l-.32,1.42.5.46c.26-.44.5-.89.78-1.32,3.89-6.12,8.2-12.05,11.67-18.4,4.8-8.72,5.83-18.52,6.72-28.26.86-9.5,1.42-19,2.33-28.53.83-8.49,5-15.55,10.39-21.89a46.65,46.65,0,0,1,6.7-6.48c5.58-4.43,11.6-6.22,18.78-3.62,5.06,1.81,10.24,3.89,15.84,3.42a25,25,0,0,0,5.36-1c1.16-.37,1.61-1.25,1.09-2.69-1.45-4,.22-7.7,3.67-8.56,3.74-1,7.41,1.7,8.09,5.84,1,6.27-3.47,13.64-9.8,15.34-3.11.83-6.38.78-9.59,1.12-1,.1-2.07,0-3.33,0,1.72,8.26-2.2,14.42-7.07,20.14-3.35,4-7.32,4.89-11.82,3.27a8.23,8.23,0,0,1-5.67-7.68c0-4.5,3.55-7,7.59-5.06,1.89.9,2.87.55,3.63-1.22.1-.19.2-.38.31-.56,2.38-4.14,1.75-6.83-2.42-9.28a4.56,4.56,0,0,0-3.2-.37c-6.33,1.66-10.42,6.22-13.37,11.62a28.55,28.55,0,0,0-3,9.83c-1.3,10.12-2.1,20.23-3.28,30.34a93.64,93.64,0,0,1-5.16,22.47,1.78,1.78,0,0,0-.05,1.34c.5-.63,1-1.24,1.48-1.9,4.54-6.75,9.23-13.4,13.56-20.28,7.29-11.57,17-20.8,28-28.65,10.68-7.65,21.62-15,32.83-21.84,11.4-7,23.29-13.23,36.38-16.5a54.64,54.64,0,0,1,12.13-1.82c8.61-.18,17.3-.45,25.84.42,12.55,1.26,24.33,5.08,34.88,12.57a76.23,76.23,0,0,1,24.29,28.36,61.54,61.54,0,0,1,5.09,14.32,120.48,120.48,0,0,0,18.88,43.28,81.94,81.94,0,0,0,9.15,10.54c6.41,6.45,14.7,9,23.4,8.91,8.25-.07,14.62-3.75,16.65-12.53s1.93-17.07-3.65-24.48a28.12,28.12,0,0,0-7.23-6.39c-3.81-2.45-8.28-1.46-11.28,1.93-1.31,1.48-2.65,2.95-3.82,4.55a11.21,11.21,0,0,0-1.85,3.52c-1.21,4.5,2.08,7.72,6.47,6.44.88-.25,1.72-.65,2.58-1a5.16,5.16,0,0,1,7.26,4.18,7,7,0,0,1-4.16,7.6,15,15,0,0,1-19.57-6.33q-7-12.44,2.38-23.28c.78-.91,1.65-1.76,2.38-2.71,7.53-9.8,18.27-7.53,25-3.34,13.61,8.45,18.62,25.67,14,41.48-4.43,15-17.89,21.83-32.56,19-10.57-2.06-19-7.45-25.87-15.45A86.14,86.14,0,0,1,725.33,199c-.33-.84-.7-1.66-1-2.42Zm-508.1,2.66c-3.71,1.3-5.27,1-8.2-1.44-1.13-.95-2.23-2-3.27-3-14.6-14.88-21.46-33-22.13-53.58-.59-17.89,3.5-34.92,10.89-51.2,9.18-20.22,23-36,43.2-45.73a53.07,53.07,0,0,1,23.7-5.81c12.78.1,23.34,5.7,32.41,14.21,1.64,1.55,2.6,3.77,3.89,5.69a9.94,9.94,0,0,0,.78,1.24c1.37,1.46,2,3.11,1.17,5s-2.68,2.46-4.58,2.44c-6.12,0-10.89,2.78-14.78,7.12-6.84,7.57-9.5,16.4-7.24,26.49a2.68,2.68,0,0,0,1.77,1.61c4.06.67,4.91,1.92,4.14,6a20.55,20.55,0,0,0,1.3,12.45,3.73,3.73,0,0,0,1.45,1.67,25.72,25.72,0,0,0,12.14,3.31c4.79.07,9.2-1.38,13.68-2.67a17.76,17.76,0,0,0,8-5,47.52,47.52,0,0,0,9.33-14.78,71.94,71.94,0,0,0,5.86-32.48c-.78-12.44-7-22.1-15.59-30.4a123.54,123.54,0,0,0-27.05-19.58c-12.22-6.65-25.09-9.86-39-8.09-8.9,1.14-17.89,2.1-26.6,4-15.78,3.47-29.38,11.45-41.7,21.78-17,14.28-30.82,31.17-40.45,51.17a193.72,193.72,0,0,0-13.22,38,239.21,239.21,0,0,0-6.89,60.3v5a9.22,9.22,0,0,0,1-.92c12.23-17,29.29-26.86,48.88-32.91a20,20,0,0,1,11.7-.44,4.28,4.28,0,0,1,3.31,4,4,4,0,0,1-2.83,4.27c-2.58,1-5.24,1.7-7.86,2.54a92.93,92.93,0,0,0-9.64,3.18c-14.21,6.31-26.5,15.06-35.4,28.11-1.86,2.73-4.25,3.21-7.2,1.74a6.53,6.53,0,0,0-1-.27c3.66,35.31,16,66.4,41.41,91.36,1.25-4.33,2.14-8.72,3.77-12.82,8.64-21.78,23.88-38.11,42.72-51.48a17.6,17.6,0,0,1,2.18-1.29c17.08-8.9,35.15-14,54.5-14.11,20.71-.12,38.49,7.33,53.77,21.07a240.88,240.88,0,0,1,21.16,21.35,80.85,80.85,0,0,1,13.06,20.22c6.53,14.78,10.69,30.23,11.29,46.51.14,3.67.57,7.33.89,11,.06.6.2,1.19.34,2,.93-.39,1.65-.67,2.33-1,4-1.95,8-4,12-5.85,21.78-10,40.7-24.06,57.45-41.12q17.63-17.89,35.25-35.83c.35-.35.66-.77,1.19-1.4-3.83,1.82-7.26,3.61-10.82,5.11-4.67,2-9.45,3.73-14.19,5.57A47,47,0,0,1,428.14,265c-13.26-.94-25.35-5.57-36.92-11.7-18-9.56-32.58-23.34-45.84-38.56-8.56-9.82-16.94-19.76-25.57-29.49-8.89-10-19.55-17.3-32.9-20.11-2.84-.59-5.64-1.31-8.49-1.87-12.49-2.47-23.24,1.22-32.41,9.65A69.64,69.64,0,0,0,232.44,191c-.67,1.21-1.18,2.51-1.76,3.77l.62-.23c.42.61,1.16,1.18,1.21,1.81a65.37,65.37,0,0,1,.34,9.89c-.32,4.21-6.37,7.24-10,4.9-2.93-1.9-5.59-4.4-6.29-8.17-.21-1.18-.21-2.38-.33-3.74Zm-39.55,108.9a5.88,5.88,0,0,0,.35-.6c.17-.54.31-1.08.49-1.62a97.38,97.38,0,0,1,17.89-33.67c12.38-14.78,28.61-23.24,47-27.84,13.31-3.33,26.82-4.13,40.35-1.08,9.54,2.16,18.53,5.74,26.12,12.07,5.25,4.38,10.19,9.15,15.09,13.94,6.62,6.48,11.15,14.33,14.41,23,2.93,7.78,4.5,15.91,5.89,24.06a61.65,61.65,0,0,1,.84,11.59c-.09,4.67-.72,9.3-1.11,13.95,0,.59,0,1.18,0,2.12,4-1.39,7.73-2.64,11.4-4.05.42-.16.78-1.22.69-1.82-.37-3.22-1.09-6.42-1.3-9.65-1-14.39-3.43-28.39-8.56-42-4.2-11.15-11.07-20.28-19.26-28.56-4.82-4.87-10-9.42-15.2-13.85C300,234.13,287,227.44,271.2,226.24c-21.37-1.63-40.6,4.21-58.34,15.56-12.38,7.94-22.06,18.7-29.78,31.2-5.25,8.55-11.11,16.77-13.29,26.82a3,3,0,0,0,.31,2.38c2.07,2.1,4.3,4,6.61,6Zm104.23-38.84c1.83-1.38,3.42-2.78,5.2-3.88,5.23-3.29,10.43-3,15,1.13a24.15,24.15,0,0,1,5,6.22,39.51,39.51,0,0,1,4.67,25c-.08.6-.07,1.21-.12,1.93.58,0,1,.07,1.4.07,8.38,0,14.13,4.67,15.63,12.88a26.13,26.13,0,0,1-3.77,19.1c-.43.69-.85,1.4-1.4,2.34,6.18,2.33,10.67,5.85,11.05,13l5.15-1.36c-.68-5-1.18-9.73-2-14.44-1.46-8.14-2.93-16.29-4.77-24.34-1.81-7.87-4.21-15.62-9.22-22.16-2.7-3.52-5.78-6.75-8.69-10.11-5.68-6.57-11.92-12.32-19.89-16.2-7.66-3.73-15.39-6.72-24-7-13.68-.52-26.91,1.31-39.5,7C207,269.14,193,288.75,181.77,311.07a2,2,0,0,0,.78,2.86c4.42,3.16,8.81,6.38,13.22,9.54a12.42,12.42,0,0,0,1.63.82,60.36,60.36,0,0,1-1.92-6.71,36.41,36.41,0,0,1-.38-7c.38-10.31,8.1-17.28,18.42-16.75l2.93.2c.87-6.79,3.11-12.79,9.05-16.62s12.28-4.17,19-1.44c.78-6.16,3.58-11.1,6.93-15.79a14.48,14.48,0,0,1,13.15-6.33c6.83.27,12.38,4.49,15.05,11.53.48,1.31.85,2.58,1.3,3.94Zm5.49,49.42c1.95-2.82,3.84-5.61,5.78-8.37,6.41-9.14,8.24-18.92,4.11-29.49-2.18-5.57-4.93-6.15-9.26-2a22,22,0,0,0-7.33,14.61,19,19,0,0,1-3.31,9.91c-2.21,3.07-1.34,6,1.68,8.19a21.73,21.73,0,0,1,2,1.56c2.14,1.93,4.24,3.87,6.3,5.68Zm2.28,33.21c-.21-1.17-.31-1.78-.44-2.4-1.69-8.63-6.13-15.88-11.54-22.55-1.7-2.12-3.57-4.67-5.92-5.58A87.33,87.33,0,0,0,254,316.6c-5.57-1-10.82,1.26-16,3.43-7.29,3.07-10.89,9.28-14.09,15.93-.19.42,0,1.47.26,1.56,3.15,1.34,6.35,2.54,9.67,3.83.14-.77.2-1.22.29-1.62,1.51-7.32,5.4-12.93,12.44-15.75,13.74-5.53,29.3,4,31.35,19.09.37,2.69.51,5.44.78,8.29Zm-17.89-70.54-.46-.1a23.69,23.69,0,0,0-.25-4.21c-.6-2.59-1.06-5.33-2.33-7.6-1.88-3.41-6.5-3.79-8.5-.85a25.56,25.56,0,0,0-4,19.75c.78,4.25,2.39,8.39.78,12.88-.78,2.14.29,3.11,2.56,3.47a43.73,43.73,0,0,1,5.2,1c1.59.46,2.09-.07,2.33-1.61.69-3.95,1.51-7.89,2.33-11.83q1.21-5.4,2.38-10.85Zm-57.1,51.47.7-.09c1.31-7.19,6-12.44,10.25-18.13-3.15-1.63-4.1-4.61-5.26-7.39a5,5,0,0,0-4.72-3.3c-7.34-.32-14.78,4.89-10.64,15a18.74,18.74,0,0,0,6.17,8c1.55,1.18,2.83,2.54,2.79,4.71,0,.42.47.84.71,1.26ZM247.8,304.3c-.46-1.66-1-3.54-1.55-5.45a62.89,62.89,0,0,0-2.69-8.41c-1.33-2.88-6.06-4.59-9.19-3.81-4.09,1-7.62,4.58-7.39,8.18a34.82,34.82,0,0,0,1.91,8.37,49.38,49.38,0,0,0,2.8,5.93Zm20.93,45.79c.35-9.51-3.33-15.09-10.75-16.65a15.69,15.69,0,0,0-18.37,9.8,142.35,142.35,0,0,0,29.15,6.85Zm24.11-22.61,5.55,10.69c1.9-1.37,3.76-2.74,5.64-4.08s3.92-2.55,5.66-4.08c4-3.57,6.22-8,5.62-13.53-.28-2.54-1.41-3.57-3.95-3.35-3.48.3-6.5,1.5-8.69,4.54-2.69,3.76-5.28,7.69-9.81,9.81Zm8.39,24.27c7.57.06,14.78-1.22,22-2.44a3.59,3.59,0,0,0-2.74-3.83c-4-1.37-7.91-.92-11.85.14-2.47.66-4.95,1.27-7.69,2,.08,1,.16,2.46.26,4.16Z" style="fill:none;stroke:#fff;stroke-width:4px"/><path d="M622.64,162.26c-.19,4.33-2.82,8.69-6.86,12.13s-13.63,3.11-18-3c-6.41-9-1.59-23.22,9-24.75,5.84-.84,10.57.52,13.17,6C621.88,156.73,622.62,158.28,622.64,162.26Z" style="fill:none;stroke:#fff;stroke-width:4px"/><path d="M716.64,241.91a28.29,28.29,0,0,1,.68-4.38q2.8-9,5.84-17.89a11,11,0,0,1,2-3.2c1.65-2,3.56-1.8,4.52.63a63.72,63.72,0,0,1,2.33,7.25c1.14,4.45,2.26,8.9,3.11,13.4,1,4.89-.57,9.22-3.75,13s-7.68,3.8-11,.24a12.75,12.75,0,0,1-3.7-9Z" style="fill:none;stroke:#fff;stroke-width:4px"/><path d="M589.14,172.13c0,9.09-8.64,15.23-16.34,12.18a9.49,9.49,0,0,1-4.45-3.66,19.6,19.6,0,0,1-2.28-14.9c1-4.32,4.27-7.59,7.93-7.35a19.22,19.22,0,0,1,8.21,2.33A14.49,14.49,0,0,1,589.14,172.13Z" style="fill:none;stroke:#fff;stroke-width:4px"/><path d="M563.16,189a34.2,34.2,0,0,1-1.79,5.57,6.4,6.4,0,0,1-11,1,14,14,0,0,1-2.88-11.15,7.57,7.57,0,0,1,6.22-6.39,5.41,5.41,0,0,1,5.11,1.88C561.05,182.48,563.07,185.19,563.16,189Z" style="fill:none;stroke:#fff;stroke-width:4px"/><path d="M528.27,208.06c0-4.76,3-8.82,6.8-9.2,3.64-.35,7.68,3.3,8.48,7.78a9.74,9.74,0,0,1-3.66,9.81c-3.11,2.5-7.09,2.05-9.23-1.3-1.32-2.07-2-4.57-2.91-6.87Z" style="fill:none;stroke:#fff;stroke-width:4px"/><path d="M525.84,229.93c-.2,4.45-3,7.5-6.76,7.15-4-.38-6.5-3.89-5.67-8.28a10.53,10.53,0,0,1,1.38-3.49c1.11-1.77,2.58-3.29,4.93-3.07a5.89,5.89,0,0,1,5.22,4,28.74,28.74,0,0,1,.9,3.66Z" style="fill:none;stroke:#fff;stroke-width:4px"/><path d="M513.6,243.44c0,3.39-2.58,6.27-5.61,6.23s-5.37-2.76-5.37-6.23S505.07,237,508,237s5.58,3.18,5.59,6.44Z" style="fill:none;stroke:#fff;stroke-width:4px"/><path d="M496.72,253.53c1.77,0,3.55,2.34,3.45,4.44a3.48,3.48,0,0,1-3.43,3.58,3.65,3.65,0,0,1-3.26-4c.06-2.17,1.54-4.09,3.24-4Z" style="fill:none;stroke:#fff;stroke-width:4px"/><path d="M347.37,97.32A15.38,15.38,0,0,1,351.16,88c3-3.63,6.94-3.89,10.51-.83,1.05.91,2.42,1.49,3.4,2.47,6.11,6.18,3,17.6-5.45,19.87C353.12,111.22,347.27,106.1,347.37,97.32Z" style="fill:none;stroke:#fff;stroke-width:4px"/><path d="M420.87,121c-.61-3-1.34-6-1.8-9.08a39.45,39.45,0,0,1-.63-8c.33-6,5.61-9,11.06-6.28a8.2,8.2,0,0,1,4.82,7.63c.12,8.55-4.84,14.3-10.71,19.52-1.41,1.25-2.91.48-3.11-1.42a18.27,18.27,0,0,1,0-2.34Z" style="fill:none;stroke:#fff;stroke-width:4px"/><path d="M354.14,81.85c-3.71,0-6-2-6-5.34a7.65,7.65,0,0,1,7.39-7.32c3-.07,5.54,2.84,5.53,6.31C361,79.38,358.38,81.83,354.14,81.85Z" style="fill:none;stroke:#fff;stroke-width:4px"/><path d="M620.32,88.51c6.23.26,10.78,8.73,7.61,14.11a6.41,6.41,0,0,1-.78,1c-2.8,3.11-7.26,3-11.57.88-3.18-1.56-4.37-5.45-3.11-9.2C613.66,91.76,617.54,88.4,620.32,88.51Z" style="fill:none;stroke:#fff;stroke-width:4px"/><path d="M605.16,103.61c-.08,6.78-3.68,11.72-9.84,13.46a8.76,8.76,0,0,1-9.15-2.26c-3.89-3.89-6.38-8.35-4.49-14.08,1.16-3.55,3.26-6.22,7.29-6.81a9.7,9.7,0,0,0,1.82-.6c7.59-2.74,14.46,2.18,14.37,10.29Z" style="fill:none;stroke:#fff;stroke-width:4px"/><path d="M641,103.44c-2.49,0-4.15-1.86-4.14-4.62,0-4.16,2.55-7.58,5.61-7.58,2.85,0,5.44,3.11,5.44,6.49,0,3.63-2.57,5.75-6.91,5.71Z" style="fill:none;stroke:#fff;stroke-width:4px"/><path d="M344.5,60.5c0-3.26,1.89-5.74,4.39-5.71,3.79.05,6.3,2.39,6.34,5.93a5.4,5.4,0,0,1-5.38,5.61C346.75,66.37,344.53,64,344.5,60.5Z" style="fill:none;stroke:#fff;stroke-width:4px"/><path d="M346.26,48.16c0,2.33-1.66,4.44-3.61,4.44-2.34,0-4.76-2.58-4.79-5.05-.05-2.69,2-5.34,4.11-5.31C344.26,42.27,346.26,45.05,346.26,48.16Z" style="fill:none;stroke:#fff;stroke-width:4px"/><path d="M654,100a25.61,25.61,0,0,1,1.69-4c.82-1.28,2.29-1.71,3.45-.56a15.26,15.26,0,0,1,3,4,3.26,3.26,0,0,1-.91,4.38,6.24,6.24,0,0,1-4.28.65C655,104,654.35,102.14,654,100Z" style="fill:none;stroke:#fff;stroke-width:4px"/><path d="M674.07,104.46c0,2.44-1.44,4.21-3.48,4.22-2.66,0-4.67-1.8-4.67-4.21a4.62,4.62,0,0,1,4.13-4.6c2.14-.08,4,2,4,4.59Z" style="fill:none;stroke:#fff;stroke-width:4px"/><path d="M338,35.92c0,2.13-1.37,3.79-3.16,3.82S331,37.41,331,35.36a3.89,3.89,0,0,1,3.88-3.78c1.8,0,3.16,1.9,3.11,4.34Z" style="fill:none;stroke:#fff;stroke-width:4px"/><path d="M677.71,111.74c0-2.38,1.61-4.44,3.38-4.39,1.55,0,3.11,2.4,3,4.48a3.58,3.58,0,0,1-3.44,3.55c-1.76,0-3-1.57-3-3.64Z" style="fill:none;stroke:#fff;stroke-width:4px"/><path d="M330,27.28a3.19,3.19,0,0,1-2.88,3.3,3.14,3.14,0,0,1-2.81-3.33c0-1.77,1.27-3.4,2.74-3.45S329.93,25.44,330,27.28Z" style="fill:none;stroke:#fff;stroke-width:4px"/><path d="M687.5,116.64c.57-1.45.78-2.65,1.44-3.45a3.17,3.17,0,0,1,2.48-1c.64.1,1.23,1.12,1.68,1.85a2.62,2.62,0,0,1,.33,1.62,10.56,10.56,0,0,1-.77,3.81c-.3.52-2.16.72-2.77.29-1-.72-1.64-2-2.39-3.1Z" style="fill:none;stroke:#fff;stroke-width:4px"/><path d="M323.5,20.6c-.11,1.9-1.32,3.16-2.8,3.11s-2.66-1.42-2.52-3.26a2.66,2.66,0,0,1,5.32.15Z" style="fill:none;stroke:#fff;stroke-width:4px"/><path d="M698.65,119.76a3.78,3.78,0,0,1,3.88,3.64,3,3,0,0,1-2.79,3.33,3.63,3.63,0,0,1-3.58-3.68C696.13,121.09,697.1,119.8,698.65,119.76Z" style="fill:none;stroke:#fff;stroke-width:4px"/><path d="M315.34,13.27c-.12,1.68-.92,2.7-2.62,2.77a2.52,2.52,0,0,1-1.89-.85,2.48,2.48,0,0,1-.57-2c.1-1.61.91-2.75,2.61-2.74s2.35,1.28,2.47,2.81Z" style="fill:none;stroke:#fff;stroke-width:4px"/><path d="M711.31,131.14c-.17,2.1-.78,3.22-2.33,3.15s-2.07-1.1-2.05-2.44.69-2.66,2.21-2.39C710.06,129.63,710.8,130.74,711.31,131.14Z" style="fill:none;stroke:#fff;stroke-width:4px"/><path d="M716.36,143a3.06,3.06,0,0,1-2.09-1.08,3.45,3.45,0,0,1,2.19-5.49,3.36,3.36,0,0,1,2.81,3.6,3,3,0,0,1-2.91,3Z" style="fill:none;stroke:#fff;stroke-width:4px"/><path d="M770.29,199c1.37-1.12,2.17-2.27,3-2.27s1.69,1.27,1.91,2.14a1.71,1.71,0,0,1-1.94,2.28c-.85-.12-1.58-1.11-3-2.15Z" style="fill:none;stroke:#fff;stroke-width:4px"/><path d="M222.59,170.81c.45.78,1.33,1.72,1.2,2.44s-1.23,1.35-1.91,2c-.56-.69-1.55-1.37-1.55-2.08s.85-1.56,1.33-2.39Z" style="fill:none;stroke:#fff;stroke-width:4px"/><path d="M74.81,260.85c-.44-.78-1.29-1.56-1.2-2.24s1.06-1.33,1.65-2c.57.67,1.56,1.3,1.56,2s-.78,1.47-1.24,2.21Z" style="fill:none;stroke:#fff;stroke-width:4px"/><path d="M392.24,290.4A18.87,18.87,0,0,1,388.41,301c-3.74,4.83-9.92,5.05-13.83.35a16.24,16.24,0,0,1-3.44-14.11c1.23-6.06,6.43-9.93,12.06-9.28,5.27.62,9.06,5.57,9,12.43Z" style="fill:none;stroke:#fff;stroke-width:4px"/><path d="M304.89,92.83c-.2,4.66-1,7.91-3.63,10.54A11,11,0,0,1,283,98.78a14.06,14.06,0,0,1,6.52-16.2c4.38-2.45,9.82-1.07,12.86,3.38,1.62,2.4,2.67,5,2.52,6.87Z" style="fill:none;stroke:#fff;stroke-width:4px"/><path d="M159.08,271.16c-5-.1-8.29-3-9-7.89a9,9,0,0,1,6.51-10.11,6,6,0,0,1,5.44.86c3.36,2.41,5.29,8.56,3.89,12.45a7,7,0,0,1-6.89,4.69Z" style="fill:none;stroke:#fff;stroke-width:4px"/><path d="M410.31,288.21c0,5.33-3.71,8.84-8.56,7.93a7.81,7.81,0,0,1-3.24-1.43c-3.11-2.33-2.95-5.71-2.28-9.06s2.29-5.81,5.68-6.71a5.13,5.13,0,0,1,5.94,2.23,49.49,49.49,0,0,1,3,6.81Z" style="fill:none;stroke:#fff;stroke-width:4px"/><path d="M202.11,223.87c-.43,3.43-1,6.58-4.11,8.6a6.55,6.55,0,0,1-10.42-5.09c-.33-3.89,3.21-9.9,6.78-11.47a4.54,4.54,0,0,1,6.22,2.33,34.56,34.56,0,0,1,1.53,5.63Z" style="fill:none;stroke:#fff;stroke-width:4px"/><path d="M182.31,241a37.57,37.57,0,0,1-.94,4.58A6.26,6.26,0,0,1,175.3,250a6.37,6.37,0,0,1-6-4.51c-1.37-3.79.17-9.43,3.25-12s7.09-1.75,8.56,2.15a37.64,37.64,0,0,1,1.21,5.35Z" style="fill:none;stroke:#fff;stroke-width:4px"/><path d="M266.31,211.74A6.44,6.44,0,0,1,260,205c.06-3.54,2.56-6.68,5.27-6.64,4.82.08,7.85,2.68,7.84,6.75a6.61,6.61,0,0,1-6.76,6.67Z" style="fill:none;stroke:#fff;stroke-width:4px"/><path d="M246,211.71a6,6,0,0,1-6.34-6.23c0-3.74,3.3-7.46,6.7-7.51s6.08,3.23,6.11,7.12a6.28,6.28,0,0,1-6.47,6.62Z" style="fill:none;stroke:#fff;stroke-width:4px"/><path d="M170.54,156.32a5.88,5.88,0,0,1-5.69-6.33c.13-4,2.74-6.84,6.32-6.78,3.22,0,6,3.22,5.91,6.74a6.45,6.45,0,0,1-6.54,6.37Z" style="fill:none;stroke:#fff;stroke-width:4px"/><path d="M128.33,171.59c-3.11.07-5.39-2.48-5.52-6.22-.13-3.48,2.24-6.35,5.34-6.48s5.94,3,6.06,6.67-2.18,5.92-5.88,6Z" style="fill:none;stroke:#fff;stroke-width:4px"/><path d="M149.83,152.92a6.13,6.13,0,0,1,5.87-6.26c3.06,0,5.38,2.61,5.45,6.11s-2.55,6.7-5.45,6.76S149.79,156.36,149.83,152.92Z" style="fill:none;stroke:#fff;stroke-width:4px"/><path d="M146.68,158.45c0,3.51-2.39,6.31-5.44,6.34s-5.69-2.89-5.67-6.41c0-3.31,2.51-6.09,5.45-6.13S146.63,155,146.68,158.45Z" style="fill:none;stroke:#fff;stroke-width:4px"/><path d="M218.28,216.13a5.58,5.58,0,0,1-5.7,5.6c-2.87,0-5.35-2.76-5.37-6s2.76-6.34,5.64-6.32,5.47,3.2,5.43,6.71Z" style="fill:none;stroke:#fff;stroke-width:4px"/><path d="M291.74,206.84c0,3.16-2.33,5.7-5.09,5.65a5.71,5.71,0,0,1-5.14-5.5,5.87,5.87,0,0,1,5.53-5.62c2.65,0,4.73,2.41,4.7,5.47Z" style="fill:none;stroke:#fff;stroke-width:4px"/><path d="M297.65,212.7a6.23,6.23,0,0,1,3.11-5.45c2.14-1.31,4.13-.65,5.18,1.66.26.57.53,1.14.82,1.7,1.14,2.23,1,4.5-.56,6.08a4.53,4.53,0,0,1-5.22,1.14A5.4,5.4,0,0,1,297.65,212.7Z" style="fill:none;stroke:#fff;stroke-width:4px"/><path d="M362.81,288.09c-3.47,0-5.48-2.39-4.36-5.67a11.53,11.53,0,0,1,3.15-4.74c1.61-1.39,3.54-.57,4.43,1.38.32.7.69,1.37,1,2.06,1.82,3.52-.25,7-4.26,7Z" style="fill:none;stroke:#fff;stroke-width:4px"/><path d="M314.7,223.28a6.22,6.22,0,0,1,4.43-5.8c1.76-.46,3.49.27,3.89,2a18.25,18.25,0,0,1,.57,5.2,3.94,3.94,0,0,1-4.26,3.79,5.12,5.12,0,0,1-4.63-5.15Z" style="fill:none;stroke:#fff;stroke-width:4px"/><path d="M338.09,247.3a4.58,4.58,0,0,1,4.41-4.72c2.64,0,5.58,2.76,5.61,5.31a4.8,4.8,0,0,1-4.84,4.83,5.61,5.61,0,0,1-5.18-5.42Z" style="fill:none;stroke:#fff;stroke-width:4px"/><path d="M376.08,315.75a4.31,4.31,0,0,1-4.44,4.42c-2.58-.07-5-2.79-5-5.63,0-2.54,2.33-4.5,5.2-4.42C374.21,310.16,376.15,312.7,376.08,315.75Z" style="fill:none;stroke:#fff;stroke-width:4px"/><path d="M359.25,265a4.81,4.81,0,0,1-4.42,5c-2.43,0-4.6-2.34-4.57-5.12s2-5,4.25-4.93a5,5,0,0,1,4.74,5Z" style="fill:none;stroke:#fff;stroke-width:4px"/><path d="M326.58,233.91a4.51,4.51,0,0,1,4.3-4.62,4.47,4.47,0,0,1,4.12,4.55,4.27,4.27,0,0,1-4.32,4.29,4.05,4.05,0,0,1-4.1-4.22Z" style="fill:none;stroke:#fff;stroke-width:4px"/><path d="M422.22,283.56a21.28,21.28,0,0,1-2.76,4c-.53.52-2.8.37-3.11-.14-.86-1.56-1.81-3.58-1.48-5.15s2-3,3.53-3.74c1.89-.93,3.78,1.23,3.82,5.07Z" style="fill:none;stroke:#fff;stroke-width:4px"/><path d="M429.66,281.86a2.9,2.9,0,0,1-2.91-3,3.66,3.66,0,0,1,3.25-4,2.91,2.91,0,0,1,2.78,3.11A3.58,3.58,0,0,1,429.66,281.86Z" style="fill:none;stroke:#fff;stroke-width:4px"/></g></g></svg>