<svg width="1920" height="365" viewBox="0 0 1920 365" fill="none" xmlns="http://www.w3.org/2000/svg">
<path d="M56.5315 77.1379C22.523 82.0641 -27.9897 67.0533 -48.995 58.9321H-69V177.805C318.597 206.72 372.611 241.793 512.146 275.259C651.681 308.726 682.689 443.127 962.259 301.229C1185.92 187.711 1695.28 139.162 1922 129.078V40.4586H1867.99C1737.45 46.3487 1696.94 77.1379 1611.42 96.95C1525.9 116.762 1394.87 42.065 1192.82 6.99212C1031.18 -21.0662 724.699 42.065 591.666 77.1379C554.657 58.9321 358.107 10.2049 272.586 23.8592C197.002 35.927 99.0422 70.98 56.5315 77.1379Z" fill="url(#paint0_linear_30_25)"/>
<defs>
<linearGradient id="paint0_linear_30_25" x1="927" y1="52" x2="926.672" y2="365" gradientUnits="userSpaceOnUse">
<stop stop-color="#201D39"/>
<stop offset="1" stop-color="#29096C"/>
</linearGradient>
</defs>
</svg>
